<svg width="48" height="476" fill="none" xmlns="http://www.w3.org/2000/svg"><path d="M1.394 20.08c0-8.602 6.97-15.572 15.606-15.572 8.602 0 15.572 6.97 15.572 15.572 0 8.636-6.97 15.606-15.572 15.606A15.584 15.584 0 011.394 20.08zM17 34.054c7.684 0 13.94-6.256 13.94-13.974 0-7.684-6.256-13.94-13.94-13.94-7.718 0-13.974 6.256-13.974 13.94 0 7.718 6.256 13.974 13.974 13.974zM1.394 65.872h24.14l2.584-3.434s2.924 2.278 4.658 3.842c-.102.374-.476.544-.986.544H1.666l-.272-.952zm3.332-19.176h17.578l2.482-3.332s2.856 2.278 4.556 3.774c-.102.374-.51.544-.986.544H4.998l-.272-.986zm6.324 30.016l5.338.544c-.034.442-.34.85-1.224.952v22.848c0 1.054.578 1.36 2.278 1.36h4.454c1.598 0 2.89 0 3.604-.068.612-.034.952-.17 1.258-.612.51-.782 1.19-2.788 2.04-5.61h.374l.136 5.814c1.36.51 1.734 1.02 1.734 1.802 0 2.006-1.904 2.72-9.52 2.72H17c-4.284 0-5.95-.714-5.95-4.25v-25.5zM1.02 91.23l24.854-4.658 2.04-3.808s3.06 1.666 5.066 2.89c-.034.374-.374.646-.85.714l-30.668 5.78-.442-.918zm25.942 57.958s2.754 2.074 4.42 3.502c-.068.374-.476.544-.952.544H3.196l-.272-.952h21.59l2.448-3.094zm-2.618 11.322s2.652 2.006 4.284 3.366c-.068.374-.476.544-.952.544H5.508l-.272-.952h16.728l2.38-2.958zm4.352 12.104s2.822 2.108 4.522 3.57c-.102.374-.476.544-.986.544H1.394l-.272-.952H26.18l2.516-3.162zM9.316 187.5h12.648v.986H9.622l-.306-.986zm10.302 0h-1.02l1.462-2.21 3.842 2.822c-.51.578-1.7.918-3.298 1.054 1.53 9.214 5.202 17.442 12.818 21.522l-.204.408c-1.87.578-3.4 2.244-4.012 3.91-6.358-5.678-8.602-14.586-9.588-26.962v-.544zm-9.622 5.372l5.814 1.088c-.102.408-.51.782-1.292.816-1.7 9.282-5.576 16.66-13.226 20.536l-.374-.34c5.576-4.59 8.364-12.75 9.078-22.1zm-.68 30.628h12.648v.986H9.622l-.306-.986zm10.302 0h-1.02l1.462-2.21 3.842 2.822c-.51.578-1.7.918-3.298 1.054 1.53 9.214 5.202 17.442 12.818 21.522l-.204.408c-1.87.578-3.4 2.244-4.012 3.91-6.358-5.678-8.602-14.586-9.588-26.962v-.544zm-9.622 5.372l5.814 1.088c-.102.408-.51.782-1.292.816-1.7 9.282-5.576 16.66-13.226 20.536l-.374-.34c5.576-4.59 8.364-12.75 9.078-22.1zM1.394 308.08c0-8.602 6.97-15.572 15.606-15.572 8.602 0 15.572 6.97 15.572 15.572 0 8.636-6.97 15.606-15.572 15.606A15.584 15.584 0 011.394 308.08zM17 322.054c7.684 0 13.94-6.256 13.94-13.974 0-7.684-6.256-13.94-13.94-13.94-7.718 0-13.974 6.256-13.974 13.94 0 7.718 6.256 13.974 13.974 13.974zM9.316 331.5h12.648v.986H9.622l-.306-.986zm10.302 0h-1.02l1.462-2.21 3.842 2.822c-.51.578-1.7.918-3.298 1.054 1.53 9.214 5.202 17.442 12.818 21.522l-.204.408c-1.87.578-3.4 2.244-4.012 3.91-6.358-5.678-8.602-14.586-9.588-26.962v-.544zm-9.622 5.372l5.814 1.088c-.102.408-.51.782-1.292.816-1.7 9.282-5.576 16.66-13.226 20.536l-.374-.34c5.576-4.59 8.364-12.75 9.078-22.1zm18.02 37.87s3.162 2.72 5.032 4.488c-.102.374-.51.51-1.054.51H1.496l-.306-1.088h24.004l2.822-3.91zm0 36s3.162 2.72 5.032 4.488c-.102.374-.51.51-1.054.51H1.496l-.306-1.088h24.004l2.822-3.91zM46.28 13.61c-.16-.3-.35-.63-.74-1.04l.1-.13c.5.19.89.4 1.15.67.19.21.25.38.25.56 0 .24-.16.36-.34.35-.19-.01-.29-.16-.42-.41zm.81-.75c-.17-.25-.42-.59-.84-.94l.1-.14c.54.17.92.3 1.2.55.23.19.31.41.29.57 0 .21-.11.37-.33.36-.17 0-.27-.18-.42-.4zm-7.23.61l-.02-.14c.25-.15.59-.31.87-.31.62 0 1.35.56 1.35.89 0 .21-.19.29-.27.69-.04.23-.06.68-.09 1.19-.05.92-.1 2.06-.08 2.54.02.85.19 1.03 1.28 1.03 1.25 0 2.2-.32 2.41-.32.44 0 .9.19.9.6 0 .26-.19.44-.6.54-.44.11-1.2.17-2.14.17-1.69 0-2.64-.28-2.7-1.62-.03-.64-.02-1.66-.03-2.7-.01-.74-.02-1.48-.07-1.95-.02-.29-.08-.37-.22-.45-.17-.1-.39-.12-.59-.16zm3.5-.86l-.02-.14c.27-.19.57-.35.82-.35.62 0 1.34.53 1.34.88 0 .2-.21.34-.25.7-.04.36-.09.85-.12 1.39-.03.65-.09 1.77-.22 2.28-.13.5-.48.88-.99.88-.26 0-.39-.09-.5-.37-.14-.36-.58-.61-.99-.85l.05-.15c.49.12 1.03.23 1.22.23.22 0 .33-.02.41-.31.07-.32.12-1.23.13-1.66.01-.51.04-1.53 0-2.08-.01-.18-.11-.28-.31-.34-.18-.06-.35-.08-.57-.11zm-2.14 3.68c-1.24.46-1.79.84-2.12.84-.33 0-.72-.39-.91-.81-.09-.18-.09-.44-.08-.72l.14-.06c.21.27.43.44.68.44.26 0 1.51-.32 2.27-.52.85-.23 2.58-.63 3.48-.83 1.11-.27 1.55-.34 1.7-.34.52 0 1.14.24 1.14.74 0 .33-.22.43-.59.43-.48 0-.78-.15-1.68-.07-1.18.1-3 .49-4.03.9zm-.57 8.07c.15.33.38.65.64.65.37 0 1.96-.38 2.26-.51.23-.11.3-.22.43-.22.48 0 1.27.7 1.27 1.11 0 .29-.38.34-.6.47-.48.29-2.26 1.89-2.59 2.23-.06.08-.02.12.06.08.56-.28 1.32-.46 1.94-.46 1.5 0 2.63.83 2.63 2.22 0 1.55-1.43 2.79-5.35 2.55l-.02-.2c2.81-.34 4.2-1.43 4.2-2.85 0-.89-.68-1.35-1.64-1.35-1.31 0-2.57 1.1-3.48 2.25-.18.23-.32.41-.59.41-.23 0-.53-.25-.53-.71 0-.41.48-.71 1.27-1.4.7-.63 2.67-2.7 3.01-3.18.17-.24.13-.34-.12-.28-.37.09-1.1.42-1.52.67-.16.08-.31.25-.55.25-.41 0-.97-.63-.99-1.01-.02-.23.06-.51.14-.71l.13-.01zm1.82 33.89c.77-.68 1.84-.94 2.59-.94.67 0 1.07.08 1.41.27.31.17.4.37.4.54 0 .25-.14.37-.39.42-.3.06-.66.06-1.06.19-.45.14-1.12.46-1.65.78l-.13-.15c.43-.36.94-.78 1.1-.97.11-.12.16-.23-.58-.23-.3 0-.78.04-1.62.26l-.07-.17zm-.07 2.84c.06.23.14.54.26.75.39.68.86.94 2.1.94 1.02 0 1.43-.19 1.64-.19.42 0 .87.2.87.57 0 .63-1.01.76-2.21.76-1.89 0-2.67-.82-2.83-1.97-.04-.3-.03-.61 0-.84l.17-.02zm-3.13-4.57c.25.28.51.71.51 1.17 0 .45-.1.85-.23 1.34-.16.6-.44 1.64-.44 2.56 0 1.12.25 1.9.61 2.4.2.27.44.45.69.45.32 0 .5-.2.5-.56 0-.31-.21-.65-.21-1 0-.16.04-.38.13-.77.08-.38.44-1.24.63-1.79l-.21-.09c-.26.5-.78 1.45-1.03 1.81-.1.16-.18.14-.25 0-.06-.12-.1-.33-.1-.64 0-.84.38-1.76.75-2.43.24-.46.39-.66.39-.94 0-.54-.55-1.09-.86-1.3-.24-.15-.46-.25-.78-.32l-.1.11zm5.09 29.51v-.18c.57-.19 1.15-.17 1.55-.04.68.2 1.1.65 1.1 1.21 0 .33-.11.56-.42.56-.4 0-.66-.31-1.22-.3-.29.02-.6.12-.75.34-.14.21-.12.56-.07.95.07.53.37 1.77.37 2.66 0 .89-.69 1.37-1.83 1.37-1.11 0-1.76-.57-1.76-1.31 0-.8.79-1.54 2.25-1.54 1.13 0 1.91.33 2.46.64.64.34 1.08.75 1.08 1.2 0 .39-.23.55-.47.55-.3 0-.44-.28-.83-.61-.59-.54-1.46-1.12-2.82-1.12-.82 0-1.19.37-1.19.69 0 .33.27.58.97.58.73 0 1.13-.32 1.13-.9.01-.53-.05-1.34-.05-1.93 0-.62.11-1.07.4-1.41.39-.46.89-.66 1.21-.82.05-.08 0-.17-.1-.26-.22-.18-.57-.3-1.01-.33zm-5.45-.72c.42.32.73.57 1.37.57.49 0 1.12-.15 1.43-.23 1.14-.31 1.43-.59 1.6-.59.23 0 .51.16.51.48 0 .23-.13.35-.3.47-.63.39-2.21.75-3.27.75-.84 0-1.22-.26-1.49-1.36l.15-.09zm1.74-1.06v-.15c.19-.09.54-.2.82-.2.39 0 .73.11.93.27.23.17.07.56-.32 1.74-.23.69-.93 3.04-1.9 4.57-.25.4-.44.66-.72.66-.35 0-.54-.33-.54-.67 0-.25.07-.43.25-.65.71-.87 1.44-1.99 1.88-3.42.18-.56.28-1.08.29-1.46 0-.21-.08-.34-.25-.46-.16-.12-.34-.19-.44-.23zm3.71 13.78v-.18c.57-.19 1.15-.17 1.55-.04.68.2 1.1.65 1.1 1.21 0 .33-.11.56-.42.56-.4 0-.66-.31-1.22-.3-.29.02-.6.12-.75.34-.14.21-.12.56-.07.95.07.53.37 1.77.37 2.66 0 .89-.69 1.37-1.83 1.37-1.11 0-1.76-.57-1.76-1.31 0-.8.79-1.54 2.25-1.54 1.13 0 1.91.33 2.46.64.64.34 1.08.75 1.08 1.2 0 .39-.23.55-.47.55-.3 0-.44-.28-.83-.61-.59-.54-1.46-1.12-2.82-1.12-.82 0-1.19.37-1.19.69 0 .33.27.58.97.58.73 0 1.13-.32 1.13-.9.01-.53-.05-1.34-.05-1.93 0-.62.11-1.07.4-1.41.39-.46.89-.66 1.21-.82.05-.08 0-.17-.1-.26-.22-.18-.57-.3-1.01-.33zm-5.45-.72c.42.32.73.57 1.37.57.49 0 1.12-.15 1.43-.23 1.14-.31 1.43-.59 1.6-.59.23 0 .51.16.51.48 0 .23-.13.35-.3.47-.63.39-2.21.75-3.27.75-.84 0-1.22-.26-1.49-1.36l.15-.09zm1.74-1.06v-.15c.19-.09.54-.2.82-.2.39 0 .73.11.93.27.23.17.07.56-.32 1.74-.23.69-.93 3.04-1.9 4.57-.25.4-.44.66-.72.66-.35 0-.54-.33-.54-.67 0-.25.07-.43.25-.65.71-.87 1.44-1.99 1.88-3.42.18-.56.28-1.08.29-1.46 0-.21-.08-.34-.25-.46-.16-.12-.34-.19-.44-.23zm2.09 59.24c.86 0 1.58.16 1.96.24.12.03.15 0 .05-.1-.42-.47-1.06-1.29-1.53-2.02-.3-.48-.66-1.16-.9-1.53-.17-.26-.55-.33-1.13-.38l-.03-.15c.31-.21.69-.42 1.1-.42.57 0 1 .19 1.07.43.22.81.38 1.21.7 1.79.52.95 1.31 1.68 1.89 2.24.23.23.32.37.32.6 0 .36-.17.92-.55.92-.3 0-.5-.2-.82-.41-.51-.34-1.27-.75-2.38-.75-1.05 0-1.75.55-1.75 1.3 0 .64.68 1.11 2.08 1.11.71 0 1.12-.12 1.52-.12.44 0 .84.16.84.59 0 .39-.53.66-2.01.66-1.88 0-3.25-.71-3.25-1.99 0-1.12 1.2-2.01 2.82-2.01zm.69-2.59c1.22-.46 1.57-.96 1.82-1.01.24-.04.57-.01.73.18.16.17.13.45-.06.63-.33.31-1.17.75-2.01 1.05-.68.25-1.75.52-2.55.53-1.27.02-1.61-.42-2.06-1.44l.15-.12c.65.54 1.04.67 1.74.67.58-.01 1.55-.23 2.24-.49zm-1.66 10.49l.02-.14c.24-.09.62-.13.84-.09.79.11 1.31.73 1.31 1.13 0 .23-.31.35-.59.64-.51.51-1.38 1.64-1.79 2.32-.04.06-.01.09.05.06.49-.25.94-.35 1.26-.35.85 0 1.31.43 1.37 1.19.04.48.01.92.01 1.48 0 .5.28.66.68.66 1.07 0 1.95-1.18 2.37-2.26l.16.04c-.22 2.35-1.43 3.33-2.82 3.33-.95 0-1.47-.53-1.48-1.36-.01-.68.1-1.23.1-1.87 0-.42-.15-.76-.69-.76-.81 0-1.51.88-1.87 1.71-.25.57-.42 1.18-.58 1.65-.11.31-.29.58-.67.58-.37 0-.59-.38-.59-.75 0-.52.54-1.25 1.09-2.19.66-1.15 2.18-3.67 2.47-4.25.1-.19.07-.33-.04-.43-.15-.14-.42-.26-.61-.34zm.1 28.83l.12-.1c.5.33.94.46 1.36.46.87 0 1.56-.19 2.02-.35.72-.22.99-.4 1.05-.4.36.01.77.18.77.49 0 .32-.17.4-.63.58-.45.18-1.86.52-3.04.52-.64 0-1.15-.09-1.65-1.2zm1.63-1.43l-.03-.16c.26-.17.64-.39.91-.39.67 0 1.3.35 1.3.63 0 .24-.11.33-.17.69-.08.38-.16 1.23-.16 2.05 0 1.54.22 2.57.22 3.25 0 .96-.61 1.45-1.94 1.45-.9 0-1.7-.47-1.7-1.33 0-.99 1-1.42 2.16-1.42 1.66 0 2.58.64 3.07 1.11.22.22.33.43.33.66 0 .34-.17.53-.44.53-.23 0-.38-.16-.72-.46-.88-.82-1.76-1.15-2.8-1.15-.56 0-1.12.24-1.12.66 0 .37.44.52.91.52 1.02 0 1.26-.34 1.26-1.04 0-.5-.11-1.76-.11-2.79 0-.77.01-1.76.01-2.13 0-.42-.09-.45-.26-.52-.21-.08-.47-.13-.72-.16zm-4.42-.43l.11-.11c.33.08.54.16.78.32.31.2.86.77.86 1.32 0 .28-.16.47-.39.94-.36.66-.77 1.67-.77 2.67 0 .31.04.57.1.71.07.15.17.16.27.01.23-.36.77-1.46 1.03-1.96l.22.1c-.19.54-.52 1.48-.62 1.85-.09.39-.13.6-.13.76 0 .36.19.7.19 1 0 .36-.18.57-.5.57-.25 0-.48-.18-.68-.45-.37-.5-.62-1.35-.62-2.5 0-.92.28-2.11.44-2.71.13-.48.23-.89.24-1.33 0-.46-.27-.89-.53-1.19zm-.06 13.1c.48.46.96.64 1.59.64 1.06 0 2.29-.33 2.94-.67.4-.21.56-.32.65-.32.28 0 .9.07.9.48 0 .27-.2.45-.65.63-.63.24-2.28.72-3.9.72-.86 0-1.27-.22-1.67-1.39l.14-.09zm1.63-1.1v-.15c.27-.11.5-.19.74-.19.67 0 1.34.32 1.34.6 0 .27-.24.34-.36.76-.09.3-.18.7-.3 1.18-.21.82-.54 1.98-.65 2.39-.03.13-.01.16.11.08 1-.63 1.81-1.03 2.8-1.03 1.59 0 2.32.97 2.32 2.04 0 1.97-2.64 2.68-5.19 2.45l-.02-.21c.75-.07 1.5-.23 2.18-.5 1.47-.53 1.9-1.32 1.9-2.07 0-.68-.45-1.29-1.29-1.29-1.08 0-2.23 1.13-2.87 1.91-.2.23-.3.63-.6.63-.32 0-.65-.59-.65-1.01 0-.14.08-.18.22-.48.25-.47.65-2.11.83-2.91.13-.62.24-1.23.27-1.56.02-.24-.02-.3-.19-.4-.15-.09-.33-.15-.59-.24zm1.22 26.86l.12-.1c.5.33.94.46 1.36.46.87 0 1.56-.19 2.02-.35.72-.22.99-.4 1.05-.4.36.01.77.18.77.49 0 .32-.17.4-.63.58-.45.18-1.86.52-3.04.52-.64 0-1.15-.09-1.65-1.2zm1.63-1.43l-.03-.16c.26-.17.64-.39.91-.39.67 0 1.3.35 1.3.63 0 .24-.11.33-.17.69-.08.38-.16 1.23-.16 2.05 0 1.54.22 2.57.22 3.25 0 .96-.61 1.45-1.94 1.45-.9 0-1.7-.47-1.7-1.33 0-.99 1-1.42 2.16-1.42 1.66 0 2.58.64 3.07 1.11.22.22.33.43.33.66 0 .34-.17.53-.44.53-.23 0-.38-.16-.72-.46-.88-.82-1.76-1.15-2.8-1.15-.56 0-1.12.24-1.12.66 0 .37.44.52.91.52 1.02 0 1.26-.34 1.26-1.04 0-.5-.11-1.76-.11-2.79 0-.77.01-1.76.01-2.13 0-.42-.09-.45-.26-.52-.21-.08-.47-.13-.72-.16zm-4.42-.43l.11-.11c.33.08.54.16.78.32.31.2.86.77.86 1.32 0 .28-.16.47-.39.94-.36.66-.77 1.67-.77 2.67 0 .31.04.57.1.71.07.15.17.16.27.01.23-.36.77-1.46 1.03-1.96l.22.1c-.19.54-.52 1.48-.62 1.85-.09.39-.13.6-.13.76 0 .36.19.7.19 1 0 .36-.18.57-.5.57-.25 0-.48-.18-.68-.45-.37-.5-.62-1.35-.62-2.5 0-.92.28-2.11.44-2.71.13-.48.23-.89.24-1.33 0-.46-.27-.89-.53-1.19zm-.06 13.1c.48.46.96.64 1.59.64 1.06 0 2.29-.33 2.94-.67.4-.21.56-.32.65-.32.28 0 .9.07.9.48 0 .27-.2.45-.65.63-.63.24-2.28.72-3.9.72-.86 0-1.27-.22-1.67-1.39l.14-.09zm1.63-1.1v-.15c.27-.11.5-.19.74-.19.67 0 1.34.32 1.34.6 0 .27-.24.34-.36.76-.09.3-.18.7-.3 1.18-.21.82-.54 1.98-.65 2.39-.03.13-.01.16.11.08 1-.63 1.81-1.03 2.8-1.03 1.59 0 2.32.97 2.32 2.04 0 1.97-2.64 2.68-5.19 2.45l-.02-.21c.75-.07 1.5-.23 2.18-.5 1.47-.53 1.9-1.32 1.9-2.07 0-.68-.45-1.29-1.29-1.29-1.08 0-2.23 1.13-2.87 1.91-.2.23-.3.63-.6.63-.32 0-.65-.59-.65-1.01 0-.14.08-.18.22-.48.25-.47.65-2.11.83-2.91.13-.62.24-1.23.27-1.56.02-.24-.02-.3-.19-.4-.15-.09-.33-.15-.59-.24zm5.63 61.25c-.16-.3-.35-.63-.74-1.04l.1-.13c.5.19.89.4 1.15.67.19.21.25.38.25.56 0 .24-.16.36-.34.35-.19-.01-.29-.16-.42-.41zm.81-.75c-.17-.25-.42-.59-.84-.94l.1-.14c.54.17.92.3 1.2.55.23.19.31.41.29.57 0 .21-.11.37-.33.36-.17 0-.27-.18-.42-.4zm-7.23.61l-.02-.14c.25-.15.59-.31.87-.31.62 0 1.35.56 1.35.89 0 .21-.19.29-.27.69-.04.23-.06.68-.09 1.19-.05.92-.1 2.06-.08 2.54.02.85.19 1.03 1.28 1.03 1.25 0 2.2-.32 2.41-.32.44 0 .9.19.9.6 0 .26-.19.44-.6.54-.44.11-1.2.17-2.14.17-1.69 0-2.64-.28-2.7-1.62-.03-.64-.02-1.66-.03-2.7-.01-.74-.02-1.48-.07-1.95-.02-.29-.08-.37-.22-.45-.17-.1-.39-.12-.59-.16zm3.5-.86l-.02-.14c.27-.19.57-.35.82-.35.62 0 1.34.53 1.34.88 0 .2-.21.34-.25.7-.04.36-.09.85-.12 1.39-.03.65-.09 1.77-.22 2.28-.13.5-.48.88-.99.88-.26 0-.39-.09-.5-.37-.14-.36-.58-.61-.99-.85l.05-.15c.49.12 1.03.23 1.22.23.22 0 .33-.02.41-.31.07-.32.12-1.23.13-1.66.01-.51.04-1.53 0-2.08-.01-.18-.11-.28-.31-.34-.18-.06-.35-.08-.57-.11zm-2.14 3.68c-1.24.46-1.79.84-2.12.84-.33 0-.72-.39-.91-.81-.09-.18-.09-.44-.08-.72l.14-.06c.21.27.43.44.68.44.26 0 1.51-.32 2.27-.52.85-.23 2.58-.63 3.48-.83 1.11-.27 1.55-.34 1.7-.34.52 0 1.14.24 1.14.74 0 .33-.22.43-.59.43-.48 0-.78-.15-1.68-.07-1.18.1-3 .49-4.03.9zm-.57 8.07c.15.33.38.65.64.65.37 0 1.96-.38 2.26-.51.23-.11.3-.22.43-.22.48 0 1.27.7 1.27 1.11 0 .29-.38.34-.6.47-.48.29-2.26 1.89-2.59 2.23-.06.08-.02.12.06.08.56-.28 1.32-.46 1.94-.46 1.5 0 2.63.83 2.63 2.22 0 1.55-1.43 2.79-5.35 2.55l-.02-.2c2.81-.34 4.2-1.43 4.2-2.85 0-.89-.68-1.35-1.64-1.35-1.31 0-2.57 1.1-3.48 2.25-.18.23-.32.41-.59.41-.23 0-.53-.25-.53-.71 0-.41.48-.71 1.27-1.4.7-.63 2.67-2.7 3.01-3.18.17-.24.13-.34-.12-.28-.37.09-1.1.42-1.52.67-.16.08-.31.25-.55.25-.41 0-.97-.63-.99-1.01-.02-.23.06-.51.14-.71l.13-.01zm1.22 25.86l.12-.1c.5.33.94.46 1.36.46.87 0 1.56-.19 2.02-.35.72-.22.99-.4 1.05-.4.36.01.77.18.77.49 0 .32-.17.4-.63.58-.45.18-1.86.52-3.04.52-.64 0-1.15-.09-1.65-1.2zm1.63-1.43l-.03-.16c.26-.17.64-.39.91-.39.67 0 1.3.35 1.3.63 0 .24-.11.33-.17.69-.08.38-.16 1.23-.16 2.05 0 1.54.22 2.57.22 3.25 0 .96-.61 1.45-1.94 1.45-.9 0-1.7-.47-1.7-1.33 0-.99 1-1.42 2.16-1.42 1.66 0 2.58.64 3.07 1.11.22.22.33.43.33.66 0 .34-.17.53-.44.53-.23 0-.38-.16-.72-.46-.88-.82-1.76-1.15-2.8-1.15-.56 0-1.12.24-1.12.66 0 .37.44.52.91.52 1.02 0 1.26-.34 1.26-1.04 0-.5-.11-1.76-.11-2.79 0-.77.01-1.76.01-2.13 0-.42-.09-.45-.26-.52-.21-.08-.47-.13-.72-.16zm-4.42-.43l.11-.11c.33.08.54.16.78.32.31.2.86.77.86 1.32 0 .28-.16.47-.39.94-.36.66-.77 1.67-.77 2.67 0 .31.04.57.1.71.07.15.17.16.27.01.23-.36.77-1.46 1.03-1.96l.22.1c-.19.54-.52 1.48-.62 1.85-.09.39-.13.6-.13.76 0 .36.19.7.19 1 0 .36-.18.57-.5.57-.25 0-.48-.18-.68-.45-.37-.5-.62-1.35-.62-2.5 0-.92.28-2.11.44-2.71.13-.48.23-.89.24-1.33 0-.46-.27-.89-.53-1.19zm-.06 13.1c.48.46.96.64 1.59.64 1.06 0 2.29-.33 2.94-.67.4-.21.56-.32.65-.32.28 0 .9.07.9.48 0 .27-.2.45-.65.63-.63.24-2.28.72-3.9.72-.86 0-1.27-.22-1.67-1.39l.14-.09zm1.63-1.1v-.15c.27-.11.5-.19.74-.19.67 0 1.34.32 1.34.6 0 .27-.24.34-.36.76-.09.3-.18.7-.3 1.18-.21.82-.54 1.98-.65 2.39-.03.13-.01.16.11.08 1-.63 1.81-1.03 2.8-1.03 1.59 0 2.32.97 2.32 2.04 0 1.97-2.64 2.68-5.19 2.45l-.02-.21c.75-.07 1.5-.23 2.18-.5 1.47-.53 1.9-1.32 1.9-2.07 0-.68-.45-1.29-1.29-1.29-1.08 0-2.23 1.13-2.87 1.91-.2.23-.3.63-.6.63-.32 0-.65-.59-.65-1.01 0-.14.08-.18.22-.48.25-.47.65-2.11.83-2.91.13-.62.24-1.23.27-1.56.02-.24-.02-.3-.19-.4-.15-.09-.33-.15-.59-.24zm-1.23 26.21c0-.57-.25-.99-.78-1.41l.05-.12c.27-.01.65.01.95.13.5.22 1.1.78 1.1 1.24 0 .49-.52 1.05-.52 2.31 0 .87.45 1.39.77 1.53.15.07.29.06.4-.09.34-.47.7-1.11 1.04-1.78l.21.09c-.22.77-.44 1.63-.46 1.98-.02.6.15.58.15.9 0 .45-.48.69-1.11.43-.8-.34-1.72-1.24-1.84-2.85-.07-.79.04-1.67.04-2.36zm4.67-.43l.05-.17c1.06.06 1.65.41 2.24.96.61.56.88 1.41.88 2.18 0 .63-.21.97-.69.97-.21 0-.43-.12-.51-.39-.12-.42-.09-.97-.38-1.81-.25-.74-.79-1.38-1.59-1.74zm-5.07 11.32c.48.46.96.64 1.59.64 1.06 0 2.29-.33 2.94-.67.4-.21.56-.32.65-.32.28 0 .9.07.9.48 0 .27-.2.45-.65.63-.63.24-2.28.72-3.9.72-.86 0-1.27-.22-1.67-1.39l.14-.09zm1.63-1.1v-.15c.27-.11.5-.19.74-.19.67 0 1.34.32 1.34.6 0 .27-.24.34-.36.76-.09.3-.18.7-.3 1.18-.21.82-.54 1.98-.65 2.39-.03.13-.01.16.11.08 1-.63 1.81-1.03 2.8-1.03 1.59 0 2.32.97 2.32 2.04 0 1.97-2.64 2.68-5.19 2.45l-.02-.21c.75-.07 1.5-.23 2.18-.5 1.47-.53 1.9-1.32 1.9-2.07 0-.68-.45-1.29-1.29-1.29-1.08 0-2.23 1.13-2.87 1.91-.2.23-.3.63-.6.63-.32 0-.65-.59-.65-1.01 0-.14.08-.18.22-.48.25-.47.65-2.11.83-2.91.13-.62.24-1.23.27-1.56.02-.24-.02-.3-.19-.4-.15-.09-.33-.15-.59-.24zm-1.23 20.21c0-.57-.25-.99-.78-1.41l.05-.12c.27-.01.65.01.95.13.5.22 1.1.78 1.1 1.24 0 .49-.52 1.05-.52 2.31 0 .87.45 1.39.77 1.53.15.07.29.06.4-.09.34-.47.7-1.11 1.04-1.78l.21.09c-.22.77-.44 1.63-.46 1.98-.02.6.15.58.15.9 0 .45-.48.69-1.11.43-.8-.34-1.72-1.24-1.84-2.85-.07-.79.04-1.67.04-2.36zm4.67-.43l.05-.17c1.06.06 1.65.41 2.24.96.61.56.88 1.41.88 2.18 0 .63-.21.97-.69.97-.21 0-.43-.12-.51-.39-.12-.42-.09-.97-.38-1.81-.25-.74-.79-1.38-1.59-1.74zm-5.07 11.32c.48.46.96.64 1.59.64 1.06 0 2.29-.33 2.94-.67.4-.21.56-.32.65-.32.28 0 .9.07.9.48 0 .27-.2.45-.65.63-.63.24-2.28.72-3.9.72-.86 0-1.27-.22-1.67-1.39l.14-.09zm1.63-1.1v-.15c.27-.11.5-.19.74-.19.67 0 1.34.32 1.34.6 0 .27-.24.34-.36.76-.09.3-.18.7-.3 1.18-.21.82-.54 1.98-.65 2.39-.03.13-.01.16.11.08 1-.63 1.81-1.03 2.8-1.03 1.59 0 2.32.97 2.32 2.04 0 1.97-2.64 2.68-5.19 2.45l-.02-.21c.75-.07 1.5-.23 2.18-.5 1.47-.53 1.9-1.32 1.9-2.07 0-.68-.45-1.29-1.29-1.29-1.08 0-2.23 1.13-2.87 1.91-.2.23-.3.63-.6.63-.32 0-.65-.59-.65-1.01 0-.14.08-.18.22-.48.25-.47.65-2.11.83-2.91.13-.62.24-1.23.27-1.56.02-.24-.02-.3-.19-.4-.15-.09-.33-.15-.59-.24z" fill="#FFE0A3"/></svg>