<svg width="160" height="25" fill="none" xmlns="http://www.w3.org/2000/svg"><path d="M21.252 24.345c-.02.172-.2.262-.538.262l-.041-.028a.456.456 0 00-.152-.055.922.922 0 01-.055-.18c-.186-.02-.276-.185-.276-.496 0-.545-.317-.938-.952-1.186a1.54 1.54 0 00-.151-.055 3.056 3.056 0 00-.166-.055.83.83 0 00-.207-.097 6.29 6.29 0 01-.262-.097c-.435-.175-.71-.372-.828-.593v-.483l.262-.276c.31-.145.656-.1 1.035.138.072.038.131.066.18.083.044.02.075.038.096.055.414-.017.745-.279.993-.786v-2.607c-.23-3.3-.23-6.74 0-10.32 0-.09-.027-.227-.083-.413-.103-.376-.151-.662-.151-.856a29.91 29.91 0 00-2.456-.4 16.956 16.956 0 00-1.918-.124 3.38 3.38 0 00-1.076.276c-.186 0-.33.173-.441.51a.938.938 0 00-.041.138.418.418 0 00-.014.11c.055.415.22.67.496.76.525.175 1.218.262 2.084.262h2.331s.017.01.055.027c.035.021.09.049.166.083.1.11.196.259.29.442-.021.324-.273.482-.76.482h-3.38c-.71 0-1.306.094-1.793.276-.6.287-.965.345-1.103.18-.131-.173-.193-.58-.193-1.214V4.176c0-.117.007-.252.027-.4.055-.883-.048-1.594-.303-2.138l.082-.11c.056-.073.128-.173.221-.304a.247.247 0 01.124-.07c.045-.006.073-.02.083-.04.91.524 2.21.737 3.904.634l1.145-.083c.304-.017.51-.027.621-.027.67 0 1.093-.138 1.27-.414.017-.018.027-.035.027-.055 0-.018.007-.035.027-.056.597-.586 1.16-.558 1.683.083.035.038.063.07.083.097.018.027.035.062.055.096.145.076.235.117.263.124.034.01.11.062.22.152.035.02.117.09.249.207.127.11.2.176.22.193l.07.11c.072 0 .13.049.179.139a.577.577 0 01.069.234v.138c-.507.617-.704 1.583-.594 2.897.056.655.083 1.062.083 1.228-.02.176-.041.531-.069 1.062a69.062 69.062 0 00-.069 2.138c0 .342-.01.656-.027.939-.021.275-.049.53-.083.758-.186.618-.104 1.476.248 2.58 0 2.097-.165 5.197-.496 9.298-.021.338-.107.593-.263.759zm-19.19-.69c-.11.366-.461.552-1.048.552-.275 0-.558-.131-.841-.386-.166-.194-.214-.366-.138-.51.017-.221.072-1.642.166-4.264.09-2.628.213-6.473.372-11.533.055-1.552.103-2.835.152-3.849C.77 2.655.81 1.896.849 1.39c.017-.303.1-.472.248-.51h.538c.883.828 2 1.262 3.353 1.297.127-.035.269-.063.427-.083.166-.017.366-.035.607-.055.918-.09 1.594-.307 2.028-.649l.276-.276c.431-.414.855-.414 1.27 0 .634.618.996 1.132 1.09 1.545.054.276.044.549-.028.814-.076.563-.16 1.421-.249 2.58a64.14 64.14 0 01-.234 2.566c-.314.855-.752 1.166-1.31.924a.538.538 0 01-.263-.165c-.441-.173-.973-.293-1.587-.359a11.119 11.119 0 00-2.11.014c-.452.038-.842.065-1.173.083-.33.02-.6.027-.8.027-.397 0-.648.324-.759.966a.464.464 0 00-.027.165v.139a69.09 69.09 0 01-.07 3.241c-.048.949-.11 1.763-.192 2.442 0 .149.02.524.069 1.131a82.4 82.4 0 00.275 2.511c.145 1.297.173 2.263.083 2.897-.038.524-.12.863-.248 1.021zM14.77 4.48c.993.187 1.876.318 2.648.4.78.076 1.452.11 2.014.11.349-.172.525-.427.525-.758 0-.828-.176-1.304-.525-1.435-.158-.072-.41-.11-.758-.11-1.676.314-2.856.414-3.546.304a.892.892 0 00-.193-.028.464.464 0 01-.165-.028c-.36 0-.604.2-.732.594a.464.464 0 00-.027.165c.017.49.269.752.758.786zm-11.354.51h4.428c.47-.016.721-.358.759-1.02 0-.58-.138-.904-.414-.98a1.451 1.451 0 00-.165-.04 1.456 1.456 0 00-.18-.015c-1.048 0-1.966.024-2.745.07a18.88 18.88 0 00-1.945.206c-.204 0-.352.218-.442.649a1.37 1.37 0 00-.041.207.894.894 0 00-.014.165c0 .297.145.52.442.676a.7.7 0 00.317.083zm-.262 2.843h4.414c.414 0 .656-.076.731-.235a.316.316 0 00.028-.138v-.138c0-.652-.145-1.065-.428-1.241-.02-.018-.038-.028-.055-.028h-1.31l-.483.028c-.324.02-.8.048-1.435.082-.524 0-.924-.034-1.2-.11-.662-.183-1.004.159-1.021 1.021-.186.497.069.752.759.759zM7.567 20.73c-.203.242-.476.287-.814.138a1.163 1.163 0 01-.22-.137c-.304-.1-.483-.352-.538-.76.338-.972.441-1.713.303-2.22-.02-.018-.027-.056-.027-.11.055-.321.082-.78.082-1.38 0-.597-.02-1.338-.055-2.221a5.261 5.261 0 01-.027-.566v-1.49c0-.072-.066-.29-.194-.648a.648.648 0 01.194-.649c.338-.182.772-.013 1.296.51.79.656 1.911.946 3.366.87.497-.035.87-.059 1.118-.069.255-.007.386-.014.386-.014.276-.034.538-.214.787-.538.275-.503.637-.697 1.09-.58a3.2 3.2 0 01.192.084c.58.186 1.19.613 1.835 1.283-.02.324-.107.493-.262.51-.331.324-.48.8-.441 1.435.017.358 0 .648-.056.869v4.138c0 .149-.079.428-.234.842a1.06 1.06 0 00-.055.193c0 .076-.07.135-.207.18-.138.048-.27.079-.386.096h-.194c-.296-.431-.462-.693-.496-.786-.214-.614-.673-.952-1.38-1.007a.988.988 0 00-.22-.028h-2.235c-.949 0-1.573.152-1.877.455a1.36 1.36 0 00-.303.47 3.029 3.029 0 00-.152.62l-.027.083a4.331 4.331 0 00-.083.248 2.192 2.192 0 01-.166.18zm4.194-3.035c1.083.076 1.71.049 1.876-.082.166-.117.266-.58.304-1.38.007-.541.03-1.01.069-1.407v-.814c0-.376-.245-.62-.731-.731a.328.328 0 00-.138-.028h-2.966c-.932-.117-1.483-.117-1.656 0-.165.149-.324.673-.469 1.573 0 1.307.083 2.083.248 2.331.183.297.745.456 1.684.483h.924c.1.021.224.028.372.028.145 0 .307.01.483.027zm28.159 5.84c-.425.414-.76.6-1.008.566a.385.385 0 00-.138-.042.553.553 0 01-.138-.041c-.7-.259-1.141-.549-1.324-.87a2.348 2.348 0 00-.07-.22c-.027-.066-.061-.134-.096-.207 0-.076.056-.176.166-.303.055-.056.083-.11.083-.166l.317-.235a.463.463 0 01.165-.027c.394.055.918.069 1.573.041.652-.027 1.428-.09 2.332-.179a24.78 24.78 0 011.076-.083c.33-.02.62-.027.869-.027.503.182.886.055 1.145-.387a.7.7 0 00.11-.372v-1.035c-.165-1.01-.531-1.593-1.09-1.752-.324-.09-.727-.09-1.214 0-.507.02-.92.097-1.241.235-.37.165-.876.09-1.518-.235-.165-.2-.248-.455-.248-.759 0-.238.124-.403.372-.496.018-.017.056-.028.11-.028h3.794c.542 0 .849-.076.925-.234.072-.145.11-.4.11-.76.155-.2.235-.461.235-.785-.01-.449-.262-.694-.76-.732-1.334 0-2.34.163-3.02.483-.48.47-.87.59-1.173.359l-.345-.359c-.038-.09-.193-.262-.469-.51a1.182 1.182 0 01-.29-.759c0-.2.339-.348 1.021-.441.09-.018.18-.028.263-.028h.234c.955.131 1.566.12 1.835-.028.276-.137.648-.641 1.117-1.517.035-.1.07-.18.097-.235.165-.413.03-.71-.4-.896a3.228 3.228 0 00-.193-.083c-.056-.017-.121-.034-.194-.055-.496-.249-1.172-.249-2.027 0-.076 0-.166.014-.276.041a7.088 7.088 0 01-.4.097c-.508.165-.866.203-1.077.11-.13 1.014-.382 2.249-.758 3.711a122.74 122.74 0 01-1.421 5.09c-.12.452-.235.856-.345 1.215-.11.351-.204.641-.276.869-.038.093-.08.207-.124.345l-.166.469c-.093.255-.18.486-.262.69-.083.21-.145.4-.18.565-.434.283-.703.445-.813.483a.83.83 0 00-.235.055c-.148.035-.23.017-.248-.055l-.248-.483a44.876 44.876 0 001.793-5.104c1.083-4.69 1.507-9.067 1.27-13.134 0-.09-.008-.2-.014-.33-.01-.139-.025-.28-.042-.428-.076-.525-.055-.956.055-1.297-.038-.707-.3-1.297-.786-1.766a.33.33 0 01-.11-.248c0-.073.017-.128.055-.166l.055-.069c.2-.2.462-.303.786-.303h.497c.828.524 2.09.786 3.794.786 1.352-.32 3.245-.338 5.684-.055.055.02.117.027.193.027a.81.81 0 01.206.028c1.884 0 3.484-.334 4.801-1.007 1.104-.504 2.042-.169 2.815 1.007 0 .055.027.152.082.29.018.13-.01.193-.082.193-.525.524-.797 1.348-.814 2.47v.33a1.248 1.248 0 00-.11.29c-.028.131-.063.27-.097.414-.076.38-.159.648-.248.814-.287.469-.642.724-1.063.759-.993-.497-2.428-.69-4.304-.58a57.55 57.55 0 01-2.028.083c-.22 0-1.352.083-3.394.248-1.048.076-1.941.076-2.676 0-.562 0-.88.2-.952.594a.778.778 0 00-.027.206v.221c-.232.407-.214.704.055.897.034.02.072.038.11.055.035.02.062.038.083.055.055 0 .324.076.814.221.09.02.165.034.22.041.063.01.132.014.208.014h8.097c1.214-.034 2.146-.38 2.8-1.034.267-.449.68-.532 1.242-.249.09.076.252.186.483.331.31.187.504.318.58.4.448.507.638.963.565 1.366a.667.667 0 01-.082.18c-.27.24-.576.268-.925.082l-.083-.083h-2.786c-.286 0-.449.104-.483.304a.557.557 0 00-.028.193s.007.028.028.083c.017.055.045.134.083.234.034.056.076.11.124.166.034.055.128.193.276.414.145.214.362.496.648.855.073.093.142.186.207.276.062.093.114.176.152.248.172.194.324.38.455.552.128.176.228.331.304.47.265.275.238.63-.083 1.061a1.386 1.386 0 01-.166.194c-.13.269-.4.275-.814.027a4.513 4.513 0 01-.303-.18 3.63 3.63 0 00-.152-.096c-.148-.072-.4-.345-.759-.814-.203-.227-.369-.379-.496-.455h-.51c-.056.02-.232.062-.525.124-.286.055-.69.138-1.214.249l-.29.055c-.093.02-.186.048-.276.082.018.094.09.245.221.456.266.562.331 1.017.193 1.365l-.055.11a.759.759 0 00-.055.098c-.186.296-.041.586.428.869.2.11.379.165.538.165.348 0 .73-.169 1.145-.51.145-.11.28-.2.4-.276.993-.486 1.742-.586 2.248-.304.166.093.325.235.483.428.166.193.338.414.525.662-.021.47-.104.724-.249.759-.993.165-2.51.248-4.552.248-.214.076-.425.2-.635.373a3.773 3.773 0 00-.469.441l-.166.207c-.379 1.418-.34 2.27.11 2.552.25.145.808.22 1.684.22 0 0 .072-.01.22-.027.156-.02.38-.048.677-.082.172.017.296.055.372.11 1.083 0 1.88-.272 2.387-.814.145-.145.269-.303.372-.469.31-.414.938-.22 1.876.58.504.396.814.717.925.965.32.293.407.538.262.731-.193.366-.438.552-.731.552-2.273-.469-4.646-.573-7.119-.303h-6.829c-.71.034-1.13.137-1.269.303zm-.497-18.776c.017.645.344.987.98 1.021 1.875 0 3.227-.083 4.055-.248.31 0 .697-.007 1.159-.028l1.641-.096a165.35 165.35 0 011.656-.083c.469-.017.845-.028 1.131-.028h1.007c.735 0 1.104-.186 1.104-.565a1.51 1.51 0 00-.083-.47v-.51c0-.8-.062-1.248-.18-1.352-.13-.11-.492-.165-1.09-.165-1.351.165-4.558.248-9.615.248-1.014.193-1.6.552-1.765 1.076-.093.314-.093.714 0 1.2zm6.07 8.388h.248a2.76 2.76 0 01.51-.138c.276-.062.649-.159 1.118-.29.062-.017.127-.034.193-.055l.207-.055c.9-.145 1.397-.29 1.49-.428.11-.238-.135-.772-.731-1.6-.635-.58-1.187-.697-1.656-.359a.634.634 0 00-.138.11c-.628.221-1.138.663-1.531 1.325-.038.076-.076.148-.11.22-.038.077-.076.15-.11.222-.187.396-.139.713.137.951a.75.75 0 00.373.097zm41.173 11.029c-.148.266-.51.445-1.09.538-.34-.02-.427-.407-.262-1.159a.88.88 0 00.028-.179v-.096c0-.976-.083-1.552-.248-1.739-.149-.21-.683-.445-1.6-.703h-.028l-.028-.028h-.027a4.189 4.189 0 00-.345-.11 4.446 4.446 0 00-.47-.097c-.717-.2-1.186-.414-1.407-.634v-.704a.47.47 0 01.166-.18c.238-.254.555-.292.952-.11.138.076.224.135.262.18.404 0 1.066.158 1.987.469.11.038.179.065.207.083h.579v-.842c-.093-1.066-.124-2.335-.097-3.807.028-1.47.128-3.163.304-5.077l.041-.345c.007-.083.014-.131.014-.152a6.54 6.54 0 000-3.035c0-.376-.19-.593-.566-.648a.574.574 0 00-.275.014 6.304 6.304 0 00-.263.096c-1.517 0-2.676.273-3.476.814-.286.38-.42 1.297-.4 2.76 0 .35-.014.768-.041 1.255-.028.49-.063 1.062-.097 1.724a60.85 60.85 0 00-.083 1.517c-.02.435-.027.78-.027 1.035a1.397 1.397 0 00-.083.276 4.011 4.011 0 00-.097.566c-.093.269-.22.448-.386.538-.562.186-.966.093-1.214-.276a.887.887 0 01-.069-.124.614.614 0 00-.097-.138c-.165-.349-.427-.538-.786-.566h-.303c-.397.048-.976.069-1.739.069-.755 0-1.693-.014-2.814-.041a13.691 13.691 0 00-.814-.028h-.703c-.452 0-.745.069-.883.207-.11.131-.276.428-.497.897v.11c0 .076-.01.186-.028.331-.158.38-.517.51-1.076.4-.258 0-.434-.13-.524-.4a.464.464 0 01-.027-.165c.09-.47.158-1.052.206-1.753.045-.696.07-1.496.07-2.4.375-1.838.565-4.68.565-8.525 0-.183-.08-.473-.234-.87a.718.718 0 01-.042-.151.451.451 0 01-.014-.097c0-.11-.048-.297-.138-.566-.11-.375-.065-.638.138-.786.228-.338.483-.386.76-.138.303.27.51.4.62.4.376.186 1.024.276 1.945.276h3.283c1.663.324 2.818.014 3.463-.924a.633.633 0 01.055-.097.313.313 0 01.057-.081c.31-.256.627-.294.951-.11.055.02.11.054.166.11.662.662 1.028 1.048 1.103 1.158.36.47.539 1.004.539 1.6.017.525.296.808.841.842h4.415c.31 0 .758-.207 1.338-.62.172-.128.334-.239.483-.332.144-.09.276-.155.386-.193.469-.414 1.007-.31 1.614.304.255.23.517.851.786 1.862.018.076.031.138.042.193.007.055.014.104.014.138-.076.093-.232.162-.47.207a2.998 2.998 0 01-.607.069l-.303.028c-1.186-.31-1.928-.332-2.221-.056-.204.194-.373.673-.51 1.435-.204.397-.304.755-.304 1.076.034.435.055 1.073.055 1.918 0 .838-.027 1.873-.083 3.104-.02.662-.027 1.265-.027 1.807 0 .545.017 1.02.055 1.435 0 .893-.048 1.89-.138 2.993a59.536 59.536 0 01-.4 3.628c0 .376-.01.583-.028.621zM71.822 7.291h.842c.504-.018.772-.297.8-.842.128-.21.145-.524.055-.938a2 2 0 01-.055-.414c.276-1.552-.193-2.142-1.407-1.766l-.235.083c-.241.131-.413.228-.524.29l-.152.096a.686.686 0 00-.165.456c-.166.379-.248.93-.248 1.655-.187.728-.076 1.159.33 1.297.194.055.446.083.76.083zm5.229.303h1.103c.366 0 .628-.172.787-.524a.042.042 0 00.028-.041c0-.128.003-.283.013-.47.007-.193.021-.406.042-.648.034-.503.055-.938.055-1.297 0-.365-.038-.665-.11-.896-.214-.321-.7-.431-1.463-.331a8.717 8.717 0 01-.786.068c-.214.01-.373-.003-.483-.04-.11-.1-.328-.111-.648-.028a.556.556 0 01-.194.027c-.241.242-.286.697-.138 1.366.035.193.07.365.097.51.028.149.041.262.041.345 0 .8.18 1.325.538 1.573.128.076.28.145.456.207.183.065.403.124.662.18zM70.98 13.9c1.628.783 2.456.234 2.483-1.642V9.222l-.207-.58a.837.837 0 01-.055-.234c-.093 0-.207-.003-.345-.014a6.216 6.216 0 01-.441-.041c-.58-.073-1.06-.055-1.435.055-.166.159-.248.31-.248.455v.083c-.056.304-.19 1.4-.4 3.283a80.6 80.6 0 01-.166 1.132c.017.324.29.503.814.538zm4.98.303h1.38c.614 0 .969-.234 1.062-.703a.902.902 0 00.027-.207v-.207c.09-.376.16-.859.207-1.449.056-.596.083-1.314.083-2.152-.01-.32-.107-.5-.29-.538-.827-.524-1.662-.569-2.497-.138a1.09 1.09 0 00-.234.138c-.386.186-.58.745-.58 1.683v2.732c.018.258.297.538.842.841zm27.204-4.627c-.656.166-1.146.104-1.477-.193-.248-.21-.131-.4.359-.566.017-.017.045-.027.083-.027 1.59-.376 4.952-2.718 10.084-7.022.1-.1.207-.186.318-.262a.598.598 0 00.441-.166l.069-.083.069-.138a1.17 1.17 0 00.069-.179c.166-.403.362-.638.593-.703a.558.558 0 01.166-.028h.165c.393.02.918.369 1.573 1.048v.51c-.414.425-.29.87.372 1.339.09.055.228.135.414.235.09.055.159.103.207.138.055.037.1.065.138.082 1.194 1.032 3.422 1.997 6.677 2.897.524.131.98.242 1.366.331.386.094.71.16.979.194.166.02.249.19.249.51 0 .469-.262.91-.787 1.324-.379.259-.717.342-1.02.249-.497-.145-1.339-.528-2.525-1.145a2.172 2.172 0 00-.207-.083c-.065-.028-.117-.048-.152-.07-.286-.127-.865-.454-1.738-.979a177.445 177.445 0 01-3.463-2.165c-1.069-.69-1.724-1.08-1.972-1.173-.076 0-.231-.114-.469-.345-.104-.128-.2-.193-.29-.193-.259 0-.614.2-1.062.593a.5.5 0 00-.111.083c-1.71 1.373-3.017 2.328-3.918 2.87a40.582 40.582 0 01-2.883 1.89 22.44 22.44 0 01-2.317 1.227zm19.796 14.61c-.269.448-.7.527-1.297.234a13.01 13.01 0 00-.745-.566c-.407-.286-.979-.682-1.724-1.186-1.556-1.12-2.628-2.235-3.214-3.338-.021-.018-.028-.035-.028-.056 0-.017-.01-.034-.028-.055a14.947 14.947 0 00-.827-1.407 30.377 30.377 0 00-.994-1.435c-.248-.486-.683-.748-1.296-.786h-.263a2.35 2.35 0 01-.358-.028c-.911-.072-1.583.021-2.014.276 0 .11-.08.697-.235 1.752-.076.618-.076 1.16 0 1.628.266.766.786 1.028 1.559.787.11-.073.338-.28.69-.621.283-.266.569-.407.855-.428.524.038.876.124 1.062.262-.02.331-.189.593-.51.787-.407.33-1.359.855-2.856 1.572-.396.183-.752.362-1.062.538-.304.183-.573.349-.8.497-.745.265-1.297.634-1.656 1.104a.445.445 0 01-.069.096.355.355 0 00-.069.097c0 .338-.172.544-.51.62a.574.574 0 01-.276-.013c-.083-.028-.172-.063-.262-.097a1.286 1.286 0 00-.179-.069 2.218 2.218 0 01-.262-.083c-.607-.203-.977-.465-1.104-.786-.021-.02-.028-.048-.028-.083 0-.469.593-.869 1.78-1.2.238-.076.431-.11.579-.11.863-.231 1.314-.738 1.352-1.532 0-.09-.007-.182-.014-.276a4.038 4.038 0 00-.041-.275c0-.36.014-.787.041-1.284.028-.496.059-1.069.097-1.724.035-.641.062-1.214.083-1.71.017-.497.027-.918.027-1.27.338-1.71.087-3.021-.758-3.932-.187-.172-.276-.434-.276-.786-.149-.338-.076-.624.22-.855a.84.84 0 01.814-.166c.735.166 1.78.249 3.132.249.669 0 1.079-.183 1.228-.552.055-.193.083-.445.083-.759V5.672c-.297-.304-.38-.573-.249-.814.111-.1.193-.169.249-.207.155-.183.407-.114.758.207l.028.028c.772.407 1.186.841 1.241 1.31.018.286-.055.628-.22 1.021-.159.386-.049.697.331.924.183.094.334.138.455.138a1.754 1.754 0 001.573 0c.724-.448 1.248-.62 1.572-.51.256.065.601.317 1.035.759.376.451.376.8 0 1.048-.314.359-.49.714-.524 1.062 0 1.207-.024 2.246-.069 3.118-.038.866-.104 1.559-.193 2.083.414 0 1.041-.39 1.89-1.172.524-.414.848-.628.979-.649.017.02.042.042.069.07a.528.528 0 00.152.096c.807.562 1.052 1.02.731 1.38a1.497 1.497 0 01-.441.275 69.562 69.562 0 00-2.552 1.766c-.59.435-.949.71-1.077.828-.634.634-.7 1.159-.193 1.573.073.037.145.079.221.124.072.048.145.09.221.124.138.076.324.159.565.248.238.083.5.2.787.345 1.159.524 2.007.852 2.552.98.338.172.69.262 1.048.262.331.365.414.71.249 1.034a.505.505 0 00-.083.097 3.106 3.106 0 00-.138.18c-.269.375-.538.637-.814.786zm-12.375-12.789h5.877c.394 0 .6-.224.621-.676 0-.22-.038-.431-.11-.635 0-.21-.117-.372-.345-.482a.553.553 0 00-.166-.028h-3.145c-.131 0-.304.014-.524.041-.214.028-.469.063-.773.097-.314.038-.579.069-.8.097a4.157 4.157 0 01-.497.041c-.331.303-.517.645-.551 1.02 0 .315.138.49.413.525zm5.739 3.146h.387c.358 0 .5-.252.427-.76a2.612 2.612 0 00-.165-.551c-.342-.32-.604-.49-.787-.51-.7-.128-1.445-.214-2.234-.263a25.199 25.199 0 00-2.456-.013c-.921.02-1.38.244-1.38.675v.097c0 .048.007.097.028.152a.52.52 0 01.028.138c0 .076.02.152.069.234.044.076.086.138.124.193l.083.083c.634.131 1.438.235 2.414.318.972.082 2.128.151 3.462.207zm.138 2.869c.211.248.49.297.842.138a.473.473 0 01.11-.083.31.31 0 00.083-.055c.083-.09.172-.183.276-.276.1-.09.186-.172.262-.248 0-.321-.29-.663-.869-1.021-.286-.183-.521-.276-.704-.276l-.096.055-.29.166a.43.43 0 01-.152.027v.538c.035.038.152.273.345.704.035.076.073.138.111.193.034.055.062.104.082.138zm21.955-6.472c-.286.49-.617.741-.993.759a.751.751 0 01-.442-.152l-.055-.083c-.176-.017-.262-.193-.262-.524.028-.035.141-.224.345-.566a.51.51 0 00.083-.11.3.3 0 01.055-.083 9.149 9.149 0 001.517-5.09c-.131-.718-.024-1.077.318-1.077.2.021.51.125.924.318.072.076.296.176.676.303.072.038.138.07.193.097.055.027.1.055.138.083.338 0 .593-.131.759-.4.089-.145.089-.266 0-.36-.342-.992-.687-1.668-1.035-2.027.017-.32.11-.49.276-.51a.52.52 0 00.4-.166l.083-.083c.2.093.49.383.869.87a.96.96 0 00.138.165c.072.148.196.355.372.62.183.27.311.477.387.621.017.021.048.09.096.207.045.121.114.297.207.525.138.296.279.476.428.538 1.176 0 2.017-.076 2.524-.235.304-.331.462-.583.483-.759-.076-.293-.121-.98-.138-2.055 0-.255-.01-.486-.027-.69a7.37 7.37 0 00-.083-.593c-.159-.138-.076-.27.248-.4.2-.055.373-.083.511-.083.613.303.958.614 1.034.924.055.249.035.618-.055 1.104v.786c.017.828.269 1.335.759 1.518.752.469 1.504.469 2.248 0 .47-.504.856-.959 1.159-1.366.311-.403.531-.762.662-1.076a6.01 6.01 0 00.152-.62c.035-.156.211-.235.524-.235.359.01.68.172.966.483.255.248.304.538.138.869a.721.721 0 01-.138.151 3.425 3.425 0 00-.634.47c-.242.213-.525.482-.856.813-.214 0-.317.118-.317.345a.79.79 0 00.11.414c.156.159.4.235.731.235 1.332 0 2.335-.159 3.008-.483.579-.47 1-.656 1.269-.566.166.076.4.262.704.566.376.186.71.438 1.007.759.172.186.155.4-.055.648-.076.076-.138.11-.194.11-.865 0-1.586.345-2.166 1.035a2.407 2.407 0 00-.248.303c-.093.121-.2.273-.317.456-.407.7-.676 1.141-.814 1.324l-.193.193h-.511c-.165-.2-.248-.455-.248-.759.035-.43.207-.938.51-1.517-.02-.486-.189-.738-.51-.759-.038 0-.124-.017-.262-.055-.131-.034-.324-.09-.579-.166a2.787 2.787 0 00-.221-.04 1.521 1.521 0 00-.18-.015c-3 0-5.414.024-7.242.07-1.821.048-3.077.117-3.766.206-.618 0-1.114.07-1.49.207-.683.02-1.18.455-1.49 1.31-.131.563-.535 1.484-1.214 2.76l-.152.303c-.048.083-.09.162-.124.235zm1.49 12.954c-.617.183-1.2.014-1.752-.51-.369-.204-.562-.494-.58-.87-.02-.186.007-.314.083-.386.09-.12.29-.135.593-.041.09.006.169.017.235.027.062.007.124.014.179.014.504.034 1.256.059 2.249.069.993.007 2.228-.007 3.711-.041.338-.021.655-.028.952-.028h.841c.393 0 .628-.255.704-.759a.736.736 0 00.027-.234c.266-.835.266-1.521 0-2.056-.02-.652-.262-.997-.731-1.035-1.517 0-2.604.094-3.255.276-.187.159-.521.235-1.007.235-.628-.414-.966-.745-1.021-.993 0-.366.141-.552.427-.552h.304c.062.02.124.027.179.027h.111c.255 0 .579-.013.965-.041l1.338-.096c.449-.035.835-.06 1.159-.07.331-.017.597-.027.8-.027.607-.128.938-.635.994-1.518-.021-.469-.273-.72-.759-.758-1.014-.238-1.725-.276-2.138-.11-.342.175-.632.465-.87.868-.193.138-.517.207-.965.207 0-.055-.049-.169-.138-.345-.093-.22-.138-.348-.138-.386.359-1.517.359-3.549 0-6.097 0-.414.158-.683.483-.814a.855.855 0 01.524.027c.359.131.828.218 1.407.262a15.6 15.6 0 002.028.014c.183-.017.335-.027.455-.027h.331c1.48.275 2.653.144 3.518-.4.221-.128.386-.249.497-.36.679-.448 1.393-.33 2.138.36.073.065.131.13.179.193.056.065.111.134.166.207.238.275.266.586.083.924a.176.176 0 00-.042.055.207.207 0 01-.041.055c-.324.342-.483.849-.483 1.518 0 .176-.014.4-.041.676-.028.269-.062.6-.097.993l-.096.993c-.028.27-.042.48-.042.635 0 .507-.227.769-.676.786a1.62 1.62 0 01-.814-.234c-.469-.366-1.055-.552-1.752-.552-.424 0-.658.083-.703.248a1.02 1.02 0 00-.028.304v.234c0 1.307.269 1.98.814 2.014.338.021.817-.145 1.435-.496.21-.018.462-.187.759-.51.662-.339 1.227-.294 1.696.137.09.076.183.166.276.276.09.104.183.217.276.345l.207.276c0 .027.045.117.138.262.183.276.228.531.138.759-.131.241-.421.324-.869.248a.987.987 0 00-.221-.027h-.152a42.9 42.9 0 01-2.372-.056 13.022 13.022 0 01-1.614-.165c-.469.02-.725.262-.759.73v.525c0 .176-.007.373-.014.593-.01.214-.024.456-.041.732-.038.827.027 1.307.193 1.434.248.21 1.034.221 2.359.028h1.517c1.204.227 2.197-.014 2.98-.731.624-.635 1.131-.86 1.518-.676.265.12.586.42.965.896 0 .049.062.162.193.345a.449.449 0 01.056.166c.2.414.144.72-.166.924a.564.564 0 01-.317.097c-.838.165-3.504.248-8.002.248-1.676.166-4.245.248-7.711.248-1.087 0-1.945.131-2.58.4a.52.52 0 00-.097.056c-.027.017-.062.034-.096.055zm5.477-10.912h1.765c.083 0 .294-.021.635-.07.348-.044.831-.113 1.449-.206.596-.073 1.065-.073 1.407 0 .414.22.71.165.896-.166a.534.534 0 00.111-.345v-1.517c0-.652-.283-1.063-.842-1.228a3.693 3.693 0 00-.207-.041 1.937 1.937 0 00-.207-.014c-.138 0-.396.014-.772.041a84.09 84.09 0 01-1.449.097 55.62 55.62 0 01-1.034.082 6.726 6.726 0 01-.483.028c-1.207 0-1.918.12-2.138.359-.132.176-.187.662-.166 1.462.017.138.028.272.028.4v.331c0 .397.241.649.731.759a.28.28 0 00.138.027h.138z" fill="#000"/></svg>