<svg width="25" height="25" fill="none" xmlns="http://www.w3.org/2000/svg"><path d="M8.126 2.086h8.75a6.046 6.046 0 016.041 6.042v8.75a6.042 6.042 0 01-6.041 6.041h-8.75a6.046 6.046 0 01-6.042-6.041v-8.75a6.042 6.042 0 016.042-6.042zm-.209 2.083a3.75 3.75 0 00-3.75 3.75v9.167a3.748 3.748 0 003.75 3.75h9.167a3.75 3.75 0 003.75-3.75V7.919a3.748 3.748 0 00-3.75-3.75H7.917zM17.97 5.732a1.302 1.302 0 110 2.604 1.302 1.302 0 010-2.604zm-5.468 1.562a5.208 5.208 0 110 10.417 5.208 5.208 0 010-10.417zm0 2.084a3.125 3.125 0 100 6.25 3.125 3.125 0 000-6.25z" fill="#C8B7AB" opacity=".88"/></svg>