<svg width="114" height="74" fill="none" xmlns="http://www.w3.org/2000/svg"><path d="M23.16 73a2.167 2.167 0 01-1.553-.646 2.08 2.08 0 01.042-2.998l28.512-27.317c-11.34-2.333-42.534-9.766-48.917-22.383-1.723-3.394-1.66-6.913.213-10.411C4.074 4.31 8.159 1.458 13.33 1.041 25.203.063 41.288 12.16 58.757 35.043c.724.937.51 2.27-.447 2.956-.957.708-2.319.52-3.021-.437C38.969 16.199 23.84 4.394 13.69 5.247c-3.638.292-6.468 2.29-8.383 5.914-1.213 2.29-1.255 4.434-.17 6.6 5.553 10.994 37.874 18.78 49.874 20.863a2.138 2.138 0 011.681 1.457c.234.75.022 1.583-.553 2.145L24.692 72.354a2.205 2.205 0 01-1.51.604L23.16 73z" fill="#8E1616"/><path d="M90.162 73a2.205 2.205 0 01-1.51-.603l-31.45-30.129a2.115 2.115 0 01-.553-2.144c.234-.75.894-1.312 1.68-1.458 11.98-2.082 44.301-9.87 49.875-20.863 1.085-2.165 1.043-4.31-.17-6.6-1.915-3.644-4.745-5.622-8.383-5.913-10.107-.812-25.3 10.952-41.598 32.314a2.201 2.201 0 01-3.021.438 2.093 2.093 0 01-.447-2.957c17.469-22.924 33.618-35 45.427-34.022 5.15.416 9.256 3.248 11.873 8.204 1.851 3.518 1.915 7.016.213 10.41-6.383 12.618-37.576 20.051-48.917 22.383l28.512 27.318c.851.812.872 2.165.042 2.998a2.217 2.217 0 01-1.553.645l-.021-.02z" fill="#8E1616"/></svg>