<svg width="1438" height="74" fill="none" xmlns="http://www.w3.org/2000/svg"><path d="M703.324 39h732.356c1.29 0 2.32.906 2.32 2 0 1.094-1.05 2-2.32 2H703.324c-1.294 0-2.324-.906-2.324-2 0-1.094 1.052-2 2.324-2zM.03 39h691.78c1.219 0 2.19.906 2.19 2 0 1.094-.992 2-2.19 2L0 42.927c0-.906.03-.833.03-1.927s-.03-1.244 0-2z" fill="#8E1616"/><path d="M663.16 73a2.166 2.166 0 01-1.553-.646 2.08 2.08 0 01.042-2.998l28.512-27.317c-11.341-2.333-42.534-9.766-48.917-22.383-1.723-3.394-1.66-6.913.213-10.411 2.617-4.935 6.702-7.787 11.873-8.204 11.873-.978 27.958 11.119 45.427 34.002a2.07 2.07 0 01-.447 2.956c-.957.708-2.319.52-3.021-.437-16.32-21.363-31.448-33.168-41.598-32.315-3.638.292-6.468 2.29-8.383 5.914-1.213 2.29-1.255 4.434-.17 6.6 5.553 10.994 37.874 18.78 49.874 20.863a2.137 2.137 0 011.681 1.457c.234.75.022 1.583-.553 2.145l-31.448 30.128a2.207 2.207 0 01-1.511.604l-.021.042z" fill="#8E1616"/><path d="M730.162 73a2.207 2.207 0 01-1.511-.603l-31.448-30.129a2.116 2.116 0 01-.553-2.144c.234-.75.893-1.312 1.681-1.458 11.979-2.082 44.3-9.87 49.874-20.863 1.085-2.165 1.043-4.31-.17-6.6-1.915-3.644-4.745-5.622-8.383-5.913-10.107-.812-25.299 10.952-41.598 32.314a2.2 2.2 0 01-3.021.438 2.093 2.093 0 01-.447-2.957c17.469-22.924 33.618-35 45.427-34.022 5.15.416 9.256 3.248 11.873 8.204 1.851 3.518 1.915 7.016.213 10.41-6.383 12.618-37.576 20.051-48.917 22.383l28.512 27.318c.851.812.872 2.165.042 2.998a2.215 2.215 0 01-1.553.645l-.021-.02z" fill="#8E1616"/></svg>