<svg width="71" height="36" fill="none" xmlns="http://www.w3.org/2000/svg"><path d="M68.672 17.84a8.751 8.751 0 001.203-7.352c-1.34-4.708-6.288-7.452-11.053-6.127a.013.013 0 00-.009.003C56.8.98 52.667-.78 48.665.333 44.662 1.446 42.063 5.075 42.128 9l-.01.001c-4.765 1.325-7.541 6.215-6.2 10.923.741 2.608 2.59 4.612 4.903 5.657a8.756 8.756 0 00.269 3.475c1.34 4.709 6.288 7.453 11.053 6.128a8.913 8.913 0 005.29-4.027 9.022 9.022 0 006.64.713c4.765-1.325 7.542-6.215 6.201-10.923a8.797 8.797 0 00-1.602-3.104v-.002z" fill="#C02B2C"/><path d="M61.165 17.022a.989.989 0 00.702-1.216 1.003 1.003 0 00-1.23-.695.99.99 0 00-.734 1.045l-3.08.846a3.228 3.228 0 00-.639-1.123l1.963-2.477c.42.22.949.12 1.254-.26a.985.985 0 00-.164-1.393 1.013 1.013 0 00-1.41.163.982.982 0 00.038 1.272l-1.931 2.437a3.347 3.347 0 00-1.234-.72l.613-2.948a1 1 0 001.006-.786.991.991 0 00-.774-1.174 1.003 1.003 0 00-1.188.765.99.99 0 00.607 1.123l-.609 2.929a3.332 3.332 0 00-1.5.034l-.93-3.41a.986.986 0 00.537-1.156 1.003 1.003 0 00-1.233-.693.989.989 0 00-.7 1.218 1 1 0 001.051.723l.935 3.423a3.29 3.29 0 00-1.248.82l-2.125-2.309a.983.983 0 00-.059-1.272 1.011 1.011 0 00-1.417-.06.983.983 0 00-.06 1.401c.332.358.869.419 1.272.17l2.157 2.342c-.219.288-.39.61-.503.954l-3.1-.842a.99.99 0 00-.73-1.043 1.005 1.005 0 00-1.235.687.99.99 0 00.696 1.221c.476.133.967-.1 1.172-.525l3.104.844a3.21 3.21 0 00-.007 1.316l-3.147.864a1.007 1.007 0 00-1.167-.527.989.989 0 00-.702 1.216c.145.528.697.838 1.23.694a.99.99 0 00.734-1.045l3.14-.862c.121.386.311.735.55 1.039l-2.143 2.198a1.011 1.011 0 00-1.28.14.982.982 0 00.033 1.401 1.01 1.01 0 001.417-.032.984.984 0 00.087-1.265l2.122-2.177c.285.288.62.52.988.688l-.597 2.867a1 1 0 00-1.006.786.991.991 0 00.775 1.174 1.003 1.003 0 001.187-.765.99.99 0 00-.606-1.123l.584-2.807c.513.17 1.07.215 1.63.115l.881 3.123a.987.987 0 00-.531 1.154c.145.528.697.838 1.232.694a.99.99 0 00.703-1.217 1.003 1.003 0 00-1.06-.725l-.877-3.112a3.295 3.295 0 001.405-.821l1.857 2.015a.983.983 0 00.058 1.272 1.01 1.01 0 001.417.06.983.983 0 00.06-1.401 1.013 1.013 0 00-1.271-.17l-1.88-2.04c.323-.398.551-.87.66-1.372l2.778 1.069a.988.988 0 00.623 1.112 1.006 1.006 0 001.296-.57.987.987 0 00-.578-1.28 1.007 1.007 0 00-1.213.407l-2.852-1.096a3.203 3.203 0 00-.055-.994l3.084-.847c.205.424.692.654 1.167.527v.002z" fill="#fff"/><path d="M7.943 5.683c-.95.26-1.477 1.333-1.179 2.394.298 1.062 2.423 5.668 3.373 5.407.95-.261.363-5.29.065-6.352-.298-1.06-1.311-1.71-2.26-1.45h.001zm3.844 13.656c-.95.26-.365 5.29-.065 6.351.298 1.062 1.311 1.71 2.26 1.45.95-.26 1.478-1.333 1.178-2.395-.298-1.062-2.423-5.667-3.373-5.406zM2.921 8.61c-.689.695-.605 1.885.192 2.656.795.772 4.965 3.71 5.656 3.015.689-.695-2.36-4.761-3.157-5.532-.795-.772-2-.833-2.69-.139zm10.238 9.93c-.691.694 2.36 4.76 3.157 5.531.795.772 2 .833 2.69.139.691-.695.605-1.884-.19-2.656-.795-.772-4.967-3.71-5.656-3.015h-.001zM2.451 12.42c-1.08-.275-2.154.265-2.4 1.208-.246.942.43 1.93 1.51 2.206 1.079.274 6.178.758 6.425-.185.245-.943-4.453-2.957-5.533-3.232l-.002.002zm17.914 4.566c-1.08-.274-6.178-.759-6.425.185-.245.942 4.453 2.957 5.532 3.231 1.08.276 2.155-.265 2.402-1.209.245-.942-.43-1.93-1.509-2.205v-.002zm-18.791.174C.5 17.455-.156 18.456.107 19.394c.264.937 1.349 1.46 2.424 1.164 1.074-.295 5.734-2.395 5.472-3.334-.265-.938-5.352-.36-6.427-.064h-.002zm17.822-4.898c-1.073.295-5.735 2.395-5.47 3.333.263.938 5.352.361 6.426.065 1.073-.295 1.732-1.294 1.468-2.233-.264-.938-1.35-1.46-2.424-1.165zM3.209 21.698c-.78.787-.844 1.976-.14 2.66.704.681 1.907.597 2.688-.19.782-.785 3.754-4.908 3.051-5.59-.704-.681-4.818 2.334-5.6 3.12zM16.168 8.652c-.782.787-3.756 4.908-3.051 5.589.702.682 4.818-2.332 5.597-3.12.782-.786.844-1.976.141-2.66-.703-.68-1.908-.595-2.687.19zM10.195 19.35c-.955-.24-2.99 4.403-3.27 5.47-.278 1.067.269 2.129 1.224 2.373.952.242 1.953-.426 2.231-1.492.28-1.066.768-6.105-.185-6.35zm3.58-13.724c-.953-.242-1.952.425-2.232 1.492-.277 1.067-.768 6.106.187 6.348.955.244 2.99-4.4 3.27-5.467.28-1.067-.27-2.13-1.223-2.373h-.002zm-3.355 8.863a1.99 1.99 0 00-1.403 2.456c.298 1.062 1.413 1.682 2.485 1.387a1.993 1.993 0 001.406-2.458c-.298-1.06-1.412-1.681-2.487-1.387v.002z" fill="#946593"/></svg>