<svg width="68" height="36" fill="none" xmlns="http://www.w3.org/2000/svg"><path d="M62.066 6.908c-1.164 0-2.316.397-3.17 1.169-2.135 1.926-1.27 5.15-.347 6.632.098.158.192.287.264.382a5.396 5.396 0 011.602-1.19 5.875 5.875 0 012.441-.55c.576 0 1.21.095 1.853.364.533.224.927.505 1.177.712 1.339-1.882 1.193-4.396-.28-6.006-.932-1.018-2.244-1.511-3.542-1.511l.002-.002z" fill="#1E4268"/><path d="M64.84 14.676a3.947 3.947 0 00-1.967-.512c-1.89 0-3.675 1.252-4.523 2.236-.122.142-.216.27-.285.366a5.423 5.423 0 011.64 1.14c.212.215 1.697 1.781 1.507 3.978a4.584 4.584 0 01-.32 1.326c.495.15.997.222 1.49.222 1.727 0 3.352-.879 4.203-2.342 1.313-2.258.384-5.219-1.743-6.414h-.001z" fill="#1E4268"/><path d="M56.664 16.736a4.504 4.504 0 00-.44-.154 5.328 5.328 0 01-.59 1.894c-.143.264-1.192 2.146-3.363 2.643a4.736 4.736 0 01-1.377.11c.037 2.3 1.65 4.25 3.8 4.695.312.065.622.095.93.095 2.236 0 4.27-1.634 4.702-3.716.581-2.796-2.036-4.905-3.664-5.567h.002z" fill="#1E4268"/><path d="M54.737 14.9a5.25 5.25 0 01-.91-.079c-.298-.05-2.433-.455-3.583-2.344a4.654 4.654 0 01-.53-1.258c-2.202.743-3.579 2.862-3.346 5.022.263 2.42 2.479 4.202 4.753 4.202.158 0 .316-.009.473-.026 2.87-.318 4.091-3.43 4.225-5.164a5.19 5.19 0 00.014-.46 5.63 5.63 0 01-1.094.108l-.002-.002z" fill="#1E4268"/><path d="M55 5.029c-.643 0-1.288.129-1.89.395-2.404 1.063-3.413 3.998-2.404 6.2.897 1.953 3.02 2.542 4.746 2.542.573 0 1.102-.064 1.529-.167a4.88 4.88 0 00.447-.13 5.292 5.292 0 01-.648-1.874c-.042-.296-.313-2.429 1.149-4.093a4.723 4.723 0 011.047-.888 5.017 5.017 0 00-3.978-1.987L55 5.03z" fill="#1E4268"/><path d="M30.712 10.03a8.763 8.763 0 00-2.233-7.113c-3.32-3.628-8.986-3.91-12.657-.63l-.007.007C12.488.148 7.995.388 4.91 3.144a8.784 8.784 0 00-1.952 10.635 8.782 8.782 0 00-.644 12.515 8.992 8.992 0 006.937 2.91 8.82 8.82 0 001.807 2.994c3.32 3.628 8.986 3.91 12.657.63a8.781 8.781 0 002.926-5.933 8.983 8.983 0 006.267-2.282 8.782 8.782 0 00.638-12.508 8.922 8.922 0 00-2.833-2.076l-.002.002z" fill="#C02B2C"/><path d="M24.405 14.447a.995.995 0 00-.903.9l-3.047.27a3.235 3.235 0 00-.497-.865l2.38-2.114c.374.288.915.282 1.282-.042a.983.983 0 00.082-1.399 1.011 1.011 0 00-1.415-.081.982.982 0 00-.187 1.258l-2.377 2.112a3.306 3.306 0 00-1.078-.725l.643-3.08a1 1 0 001.006-.786.99.99 0 00-.775-1.174 1.002 1.002 0 00-1.188.765.989.989 0 00.607 1.123l-.633 3.032a3.37 3.37 0 00-1.429-.102l-.778-2.91a.987.987 0 00.547-1.146 1.004 1.004 0 00-1.222-.711.99.99 0 00-.72 1.207 1 1 0 001.049.739l.773 2.89a3.306 3.306 0 00-1.329.69l-2.368-2.644a.982.982 0 00-.04-1.272 1.01 1.01 0 00-1.415-.077.981.981 0 00-.08 1.399c.328.362.865.43 1.27.186l2.376 2.654a3.25 3.25 0 00-.749 1.282l-2.942-1.133a.988.988 0 00-.624-1.113 1.007 1.007 0 00-1.296.57.988.988 0 00.576 1.28c.46.174.966-.007 1.213-.409l2.988 1.15a3.236 3.236 0 00-.023 1.076l-3.157.608a1.004 1.004 0 00-1.12-.615.99.99 0 00-.798 1.159c.103.537.63.89 1.173.787a.992.992 0 00.814-.985l3.159-.61c.11.418.303.821.586 1.182l-2.429 2.158a1.012 1.012 0 00-1.282.042.983.983 0 00-.082 1.4 1.012 1.012 0 001.415.08.982.982 0 00.187-1.258l2.424-2.153c.284.292.61.522.96.688L15 22.64a1.004 1.004 0 00-1.083.687.988.988 0 00.66 1.24c.53.163 1.09-.13 1.254-.652a.984.984 0 00-.492-1.17l.92-2.881c.385.132.79.193 1.194.18l.757 2.831a.987.987 0 00-.547 1.147c.14.53.686.848 1.222.711a.99.99 0 00.72-1.207 1.001 1.001 0 00-1.049-.739l-.74-2.77a3.301 3.301 0 001.512-.614l2.195 2.41a.982.982 0 00.043 1.267 1.011 1.011 0 001.416.08.983.983 0 00.08-1.4 1.011 1.011 0 00-1.275-.182l-2.187-2.4c.42-.385.718-.852.89-1.354l2.569.99a.989.989 0 00.624 1.112 1.007 1.007 0 001.295-.569.988.988 0 00-.575-1.28 1.005 1.005 0 00-1.214.408l-2.602-1.003a3.25 3.25 0 00-.025-1.519l2.97-.264a1 1 0 001.06.721.994.994 0 00.904-1.08.999.999 0 00-1.093-.893h.001z" fill="#fff"/></svg>