<svg width="12" height="20" viewBox="0 0 12 20" fill="none" xmlns="http://www.w3.org/2000/svg">
<path d="M0.439185 0.43918C0.157978 0.720471 4.76837e-06 1.10193 4.76837e-06 1.49968C4.76837e-06 1.89743 0.157978 2.27889 0.439185 2.56018L7.86418 9.98518L0.439185 17.4102C0.165948 17.6931 0.0147562 18.072 0.0181742 18.4653C0.0215912 18.8586 0.179344 19.2348 0.457457 19.5129C0.735569 19.791 1.11179 19.9488 1.50508 19.9522C1.89838 19.9556 2.27728 19.8044 2.56018 19.5312L11.0457 11.0457C11.3269 10.7644 11.4849 10.3829 11.4849 9.98518C11.4849 9.58743 11.3269 9.20597 11.0457 8.92468L2.56018 0.43918C2.27889 0.157973 1.89743 0 1.49968 0C1.10194 0 0.720476 0.157973 0.439185 0.43918Z" fill="#333333"/>
</svg>
