<svg width="11" height="19" viewBox="0 0 11 19" fill="none" xmlns="http://www.w3.org/2000/svg">
<path d="M0.383859 1.14795C0.137803 1.39408 -0.000423431 1.72786 -0.000423431 2.07589C-0.000423431 2.42392 0.137803 2.7577 0.383859 3.00383L6.88073 9.5007L0.383859 15.9976C0.144776 16.2451 0.0124836 16.5767 0.0154743 16.9208C0.0184641 17.2649 0.156499 17.5941 0.399847 17.8375C0.643195 18.0808 0.972386 18.2188 1.31652 18.2218C1.66065 18.2248 1.99219 18.0925 2.23973 17.8535L9.66455 10.4286C9.9106 10.1825 10.0488 9.84873 10.0488 9.5007C10.0488 9.15268 9.9106 8.8189 9.66455 8.57277L2.23973 1.14795C1.9936 0.901898 1.65982 0.763672 1.3118 0.763672C0.963768 0.763672 0.629989 0.901898 0.383859 1.14795Z" fill="#FFE0A3"/>
</svg>
