<svg width="48" height="476" viewBox="0 0 48 476" fill="none" xmlns="http://www.w3.org/2000/svg">
<path d="M1.394 20.08C1.394 11.478 8.364 4.508 17 4.508C25.602 4.508 32.572 11.478 32.572 20.08C32.572 28.716 25.602 35.686 17 35.686C8.364 35.686 1.394 28.716 1.394 20.08ZM17 34.054C24.684 34.054 30.94 27.798 30.94 20.08C30.94 12.396 24.684 6.14 17 6.14C9.282 6.14 3.026 12.396 3.026 20.08C3.026 27.798 9.282 34.054 17 34.054ZM1.394 65.872H25.534L28.118 62.438C28.118 62.438 31.042 64.716 32.776 66.28C32.674 66.654 32.3 66.824 31.79 66.824H1.666L1.394 65.872ZM4.726 46.696H22.304L24.786 43.364C24.786 43.364 27.642 45.642 29.342 47.138C29.24 47.512 28.832 47.682 28.356 47.682H4.998L4.726 46.696ZM11.05 76.712L16.388 77.256C16.354 77.698 16.048 78.106 15.164 78.208V101.056C15.164 102.11 15.742 102.416 17.442 102.416H21.896C23.494 102.416 24.786 102.416 25.5 102.348C26.112 102.314 26.452 102.178 26.758 101.736C27.268 100.954 27.948 98.948 28.798 96.126H29.172L29.308 101.94C30.668 102.45 31.042 102.96 31.042 103.742C31.042 105.748 29.138 106.462 21.522 106.462H17C12.716 106.462 11.05 105.748 11.05 102.212V76.712ZM1.02 91.23L25.874 86.572L27.914 82.764C27.914 82.764 30.974 84.43 32.98 85.654C32.946 86.028 32.606 86.3 32.13 86.368L1.462 92.148L1.02 91.23ZM26.962 149.188C26.962 149.188 29.716 151.262 31.382 152.69C31.314 153.064 30.906 153.234 30.43 153.234H3.196L2.924 152.282H24.514L26.962 149.188ZM24.344 160.51C24.344 160.51 26.996 162.516 28.628 163.876C28.56 164.25 28.152 164.42 27.676 164.42H5.508L5.236 163.468H21.964L24.344 160.51ZM28.696 172.614C28.696 172.614 31.518 174.722 33.218 176.184C33.116 176.558 32.742 176.728 32.232 176.728H1.394L1.122 175.776H26.18L28.696 172.614ZM9.316 187.5H21.964V188.486H9.622L9.316 187.5ZM19.618 187.5H18.598L20.06 185.29L23.902 188.112C23.392 188.69 22.202 189.03 20.604 189.166C22.134 198.38 25.806 206.608 33.422 210.688L33.218 211.096C31.348 211.674 29.818 213.34 29.206 215.006C22.848 209.328 20.604 200.42 19.618 188.044V187.5ZM9.996 192.872L15.81 193.96C15.708 194.368 15.3 194.742 14.518 194.776C12.818 204.058 8.942 211.436 1.292 215.312L0.918 214.972C6.494 210.382 9.282 202.222 9.996 192.872ZM9.316 223.5H21.964V224.486H9.622L9.316 223.5ZM19.618 223.5H18.598L20.06 221.29L23.902 224.112C23.392 224.69 22.202 225.03 20.604 225.166C22.134 234.38 25.806 242.608 33.422 246.688L33.218 247.096C31.348 247.674 29.818 249.34 29.206 251.006C22.848 245.328 20.604 236.42 19.618 224.044V223.5ZM9.996 228.872L15.81 229.96C15.708 230.368 15.3 230.742 14.518 230.776C12.818 240.058 8.942 247.436 1.292 251.312L0.918 250.972C6.494 246.382 9.282 238.222 9.996 228.872ZM1.394 308.08C1.394 299.478 8.364 292.508 17 292.508C25.602 292.508 32.572 299.478 32.572 308.08C32.572 316.716 25.602 323.686 17 323.686C8.364 323.686 1.394 316.716 1.394 308.08ZM17 322.054C24.684 322.054 30.94 315.798 30.94 308.08C30.94 300.396 24.684 294.14 17 294.14C9.282 294.14 3.026 300.396 3.026 308.08C3.026 315.798 9.282 322.054 17 322.054ZM9.316 331.5H21.964V332.486H9.622L9.316 331.5ZM19.618 331.5H18.598L20.06 329.29L23.902 332.112C23.392 332.69 22.202 333.03 20.604 333.166C22.134 342.38 25.806 350.608 33.422 354.688L33.218 355.096C31.348 355.674 29.818 357.34 29.206 359.006C22.848 353.328 20.604 344.42 19.618 332.044V331.5ZM9.996 336.872L15.81 337.96C15.708 338.368 15.3 338.742 14.518 338.776C12.818 348.058 8.942 355.436 1.292 359.312L0.918 358.972C6.494 354.382 9.282 346.222 9.996 336.872ZM28.016 374.742C28.016 374.742 31.178 377.462 33.048 379.23C32.946 379.604 32.538 379.74 31.994 379.74H1.496L1.19 378.652H25.194L28.016 374.742ZM28.016 410.742C28.016 410.742 31.178 413.462 33.048 415.23C32.946 415.604 32.538 415.74 31.994 415.74H1.496L1.19 414.652H25.194L28.016 410.742Z" fill="#FFE0A3"/>
<path d="M46.28 13.61C46.12 13.31 45.93 12.98 45.54 12.57L45.64 12.44C46.14 12.63 46.53 12.84 46.79 13.11C46.98 13.32 47.04 13.49 47.04 13.67C47.04 13.91 46.88 14.03 46.7 14.02C46.51 14.01 46.41 13.86 46.28 13.61ZM47.09 12.86C46.92 12.61 46.67 12.27 46.25 11.92L46.35 11.78C46.89 11.95 47.27 12.08 47.55 12.33C47.78 12.52 47.86 12.74 47.84 12.9C47.84 13.11 47.73 13.27 47.51 13.26C47.34 13.26 47.24 13.08 47.09 12.86ZM39.86 13.47L39.84 13.33C40.09 13.18 40.43 13.02 40.71 13.02C41.33 13.02 42.06 13.58 42.06 13.91C42.06 14.12 41.87 14.2 41.79 14.6C41.75 14.83 41.73 15.28 41.7 15.79C41.65 16.71 41.6 17.85 41.62 18.33C41.64 19.18 41.81 19.36 42.9 19.36C44.15 19.36 45.1 19.04 45.31 19.04C45.75 19.04 46.21 19.23 46.21 19.64C46.21 19.9 46.02 20.08 45.61 20.18C45.17 20.29 44.41 20.35 43.47 20.35C41.78 20.35 40.83 20.07 40.77 18.73C40.74 18.09 40.75 17.07 40.74 16.03C40.73 15.29 40.72 14.55 40.67 14.08C40.65 13.79 40.59 13.71 40.45 13.63C40.28 13.53 40.06 13.51 39.86 13.47ZM43.36 12.61L43.34 12.47C43.61 12.28 43.91 12.12 44.16 12.12C44.78 12.12 45.5 12.65 45.5 13C45.5 13.2 45.29 13.34 45.25 13.7C45.21 14.06 45.16 14.55 45.13 15.09C45.1 15.74 45.04 16.86 44.91 17.37C44.78 17.87 44.43 18.25 43.92 18.25C43.66 18.25 43.53 18.16 43.42 17.88C43.28 17.52 42.84 17.27 42.43 17.03L42.48 16.88C42.97 17 43.51 17.11 43.7 17.11C43.92 17.11 44.03 17.09 44.11 16.8C44.18 16.48 44.23 15.57 44.24 15.14C44.25 14.63 44.28 13.61 44.24 13.06C44.23 12.88 44.13 12.78 43.93 12.72C43.75 12.66 43.58 12.64 43.36 12.61ZM41.22 16.29C39.98 16.75 39.43 17.13 39.1 17.13C38.77 17.13 38.38 16.74 38.19 16.32C38.1 16.14 38.1 15.88 38.11 15.6L38.25 15.54C38.46 15.81 38.68 15.98 38.93 15.98C39.19 15.98 40.44 15.66 41.2 15.46C42.05 15.23 43.78 14.83 44.68 14.63C45.79 14.36 46.23 14.29 46.38 14.29C46.9 14.29 47.52 14.53 47.52 15.03C47.52 15.36 47.3 15.46 46.93 15.46C46.45 15.46 46.15 15.31 45.25 15.39C44.07 15.49 42.25 15.88 41.22 16.29ZM40.65 24.36C40.8 24.69 41.03 25.01 41.29 25.01C41.66 25.01 43.25 24.63 43.55 24.5C43.78 24.39 43.85 24.28 43.98 24.28C44.46 24.28 45.25 24.98 45.25 25.39C45.25 25.68 44.87 25.73 44.65 25.86C44.17 26.15 42.39 27.75 42.06 28.09C42 28.17 42.04 28.21 42.12 28.17C42.68 27.89 43.44 27.71 44.06 27.71C45.56 27.71 46.69 28.54 46.69 29.93C46.69 31.48 45.26 32.72 41.34 32.48L41.32 32.28C44.13 31.94 45.52 30.85 45.52 29.43C45.52 28.54 44.84 28.08 43.88 28.08C42.57 28.08 41.31 29.18 40.4 30.33C40.22 30.56 40.08 30.74 39.81 30.74C39.58 30.74 39.28 30.49 39.28 30.03C39.28 29.62 39.76 29.32 40.55 28.63C41.25 28 43.22 25.93 43.56 25.45C43.73 25.21 43.69 25.11 43.44 25.17C43.07 25.26 42.34 25.59 41.92 25.84C41.76 25.92 41.61 26.09 41.37 26.09C40.96 26.09 40.4 25.46 40.38 25.08C40.36 24.85 40.44 24.57 40.52 24.37L40.65 24.36ZM42.47 58.25C43.24 57.57 44.31 57.31 45.06 57.31C45.73 57.31 46.13 57.39 46.47 57.58C46.78 57.75 46.87 57.95 46.87 58.12C46.87 58.37 46.73 58.49 46.48 58.54C46.18 58.6 45.82 58.6 45.42 58.73C44.97 58.87 44.3 59.19 43.77 59.51L43.64 59.36C44.07 59 44.58 58.58 44.74 58.39C44.85 58.27 44.9 58.16 44.16 58.16C43.86 58.16 43.38 58.2 42.54 58.42L42.47 58.25ZM42.4 61.09C42.46 61.32 42.54 61.63 42.66 61.84C43.05 62.52 43.52 62.78 44.76 62.78C45.78 62.78 46.19 62.59 46.4 62.59C46.82 62.59 47.27 62.79 47.27 63.16C47.27 63.79 46.26 63.92 45.06 63.92C43.17 63.92 42.39 63.1 42.23 61.95C42.19 61.65 42.2 61.34 42.23 61.11L42.4 61.09ZM39.27 56.52C39.52 56.8 39.78 57.23 39.78 57.69C39.78 58.14 39.68 58.54 39.55 59.03C39.39 59.63 39.11 60.67 39.11 61.59C39.11 62.71 39.36 63.49 39.72 63.99C39.92 64.26 40.16 64.44 40.41 64.44C40.73 64.44 40.91 64.24 40.91 63.88C40.91 63.57 40.7 63.23 40.7 62.88C40.7 62.72 40.74 62.5 40.83 62.11C40.91 61.73 41.27 60.87 41.46 60.32L41.25 60.23C40.99 60.73 40.47 61.68 40.22 62.04C40.12 62.2 40.04 62.18 39.97 62.04C39.91 61.92 39.87 61.71 39.87 61.4C39.87 60.56 40.25 59.64 40.62 58.97C40.86 58.51 41.01 58.31 41.01 58.03C41.01 57.49 40.46 56.94 40.15 56.73C39.91 56.58 39.69 56.48 39.37 56.41L39.27 56.52ZM44.36 86.03V85.85C44.93 85.66 45.51 85.68 45.91 85.81C46.59 86.01 47.01 86.46 47.01 87.02C47.01 87.35 46.9 87.58 46.59 87.58C46.19 87.58 45.93 87.27 45.37 87.28C45.08 87.3 44.77 87.4 44.62 87.62C44.48 87.83 44.5 88.18 44.55 88.57C44.62 89.1 44.92 90.34 44.92 91.23C44.92 92.12 44.23 92.6 43.09 92.6C41.98 92.6 41.33 92.03 41.33 91.29C41.33 90.49 42.12 89.75 43.58 89.75C44.71 89.75 45.49 90.08 46.04 90.39C46.68 90.73 47.12 91.14 47.12 91.59C47.12 91.98 46.89 92.14 46.65 92.14C46.35 92.14 46.21 91.86 45.82 91.53C45.23 90.99 44.36 90.41 43 90.41C42.18 90.41 41.81 90.78 41.81 91.1C41.81 91.43 42.08 91.68 42.78 91.68C43.51 91.68 43.91 91.36 43.91 90.78C43.92 90.25 43.86 89.44 43.86 88.85C43.86 88.23 43.97 87.78 44.26 87.44C44.65 86.98 45.15 86.78 45.47 86.62C45.52 86.54 45.47 86.45 45.37 86.36C45.15 86.18 44.8 86.06 44.36 86.03ZM38.91 85.31C39.33 85.63 39.64 85.88 40.28 85.88C40.77 85.88 41.4 85.73 41.71 85.65C42.85 85.34 43.14 85.06 43.31 85.06C43.54 85.06 43.82 85.22 43.82 85.54C43.82 85.77 43.69 85.89 43.52 86.01C42.89 86.4 41.31 86.76 40.25 86.76C39.41 86.76 39.03 86.5 38.76 85.4L38.91 85.31ZM40.65 84.25V84.1C40.84 84.01 41.19 83.9 41.47 83.9C41.86 83.9 42.2 84.01 42.4 84.17C42.63 84.34 42.47 84.73 42.08 85.91C41.85 86.6 41.15 88.95 40.18 90.48C39.93 90.88 39.74 91.14 39.46 91.14C39.11 91.14 38.92 90.81 38.92 90.47C38.92 90.22 38.99 90.04 39.17 89.82C39.88 88.95 40.61 87.83 41.05 86.4C41.23 85.84 41.33 85.32 41.34 84.94C41.34 84.73 41.26 84.6 41.09 84.48C40.93 84.36 40.75 84.29 40.65 84.25ZM44.36 98.03V97.85C44.93 97.66 45.51 97.68 45.91 97.81C46.59 98.01 47.01 98.46 47.01 99.02C47.01 99.35 46.9 99.58 46.59 99.58C46.19 99.58 45.93 99.27 45.37 99.28C45.08 99.3 44.77 99.4 44.62 99.62C44.48 99.83 44.5 100.18 44.55 100.57C44.62 101.1 44.92 102.34 44.92 103.23C44.92 104.12 44.23 104.6 43.09 104.6C41.98 104.6 41.33 104.03 41.33 103.29C41.33 102.49 42.12 101.75 43.58 101.75C44.71 101.75 45.49 102.08 46.04 102.39C46.68 102.73 47.12 103.14 47.12 103.59C47.12 103.98 46.89 104.14 46.65 104.14C46.35 104.14 46.21 103.86 45.82 103.53C45.23 102.99 44.36 102.41 43 102.41C42.18 102.41 41.81 102.78 41.81 103.1C41.81 103.43 42.08 103.68 42.78 103.68C43.51 103.68 43.91 103.36 43.91 102.78C43.92 102.25 43.86 101.44 43.86 100.85C43.86 100.23 43.97 99.78 44.26 99.44C44.65 98.98 45.15 98.78 45.47 98.62C45.52 98.54 45.47 98.45 45.37 98.36C45.15 98.18 44.8 98.06 44.36 98.03ZM38.91 97.31C39.33 97.63 39.64 97.88 40.28 97.88C40.77 97.88 41.4 97.73 41.71 97.65C42.85 97.34 43.14 97.06 43.31 97.06C43.54 97.06 43.82 97.22 43.82 97.54C43.82 97.77 43.69 97.89 43.52 98.01C42.89 98.4 41.31 98.76 40.25 98.76C39.41 98.76 39.03 98.5 38.76 97.4L38.91 97.31ZM40.65 96.25V96.1C40.84 96.01 41.19 95.9 41.47 95.9C41.86 95.9 42.2 96.01 42.4 96.17C42.63 96.34 42.47 96.73 42.08 97.91C41.85 98.6 41.15 100.95 40.18 102.48C39.93 102.88 39.74 103.14 39.46 103.14C39.11 103.14 38.92 102.81 38.92 102.47C38.92 102.22 38.99 102.04 39.17 101.82C39.88 100.95 40.61 99.83 41.05 98.4C41.23 97.84 41.33 97.32 41.34 96.94C41.34 96.73 41.26 96.6 41.09 96.48C40.93 96.36 40.75 96.29 40.65 96.25Z" fill="#FFE0A3"/>
<path d="M42.74 155.49C43.6 155.49 44.32 155.65 44.7 155.73C44.82 155.76 44.85 155.73 44.75 155.63C44.33 155.16 43.69 154.34 43.22 153.61C42.92 153.13 42.56 152.45 42.32 152.08C42.15 151.82 41.77 151.75 41.19 151.7L41.16 151.55C41.47 151.34 41.85 151.13 42.26 151.13C42.83 151.13 43.26 151.32 43.33 151.56C43.55 152.37 43.71 152.77 44.03 153.35C44.55 154.3 45.34 155.03 45.92 155.59C46.15 155.82 46.24 155.96 46.24 156.19C46.24 156.55 46.07 157.11 45.69 157.11C45.39 157.11 45.19 156.91 44.87 156.7C44.36 156.36 43.6 155.95 42.49 155.95C41.44 155.95 40.74 156.5 40.74 157.25C40.74 157.89 41.42 158.36 42.82 158.36C43.53 158.36 43.94 158.24 44.34 158.24C44.78 158.24 45.18 158.4 45.18 158.83C45.18 159.22 44.65 159.49 43.17 159.49C41.29 159.49 39.92 158.78 39.92 157.5C39.92 156.38 41.12 155.49 42.74 155.49ZM43.43 152.9C44.65 152.44 45 151.94 45.25 151.89C45.49 151.85 45.82 151.88 45.98 152.07C46.14 152.24 46.11 152.52 45.92 152.7C45.59 153.01 44.75 153.45 43.91 153.75C43.23 154 42.16 154.27 41.36 154.28C40.09 154.3 39.75 153.86 39.3 152.84L39.45 152.72C40.1 153.26 40.49 153.39 41.19 153.39C41.77 153.38 42.74 153.16 43.43 152.9ZM41.77 163.39L41.79 163.25C42.03 163.16 42.41 163.12 42.63 163.16C43.42 163.27 43.94 163.89 43.94 164.29C43.94 164.52 43.63 164.64 43.35 164.93C42.84 165.44 41.97 166.57 41.56 167.25C41.52 167.31 41.55 167.34 41.61 167.31C42.1 167.06 42.55 166.96 42.87 166.96C43.72 166.96 44.18 167.39 44.24 168.15C44.28 168.63 44.25 169.07 44.25 169.63C44.25 170.13 44.53 170.29 44.93 170.29C46 170.29 46.88 169.11 47.3 168.03L47.46 168.07C47.24 170.42 46.03 171.4 44.64 171.4C43.69 171.4 43.17 170.87 43.16 170.04C43.15 169.36 43.26 168.81 43.26 168.17C43.26 167.75 43.11 167.41 42.57 167.41C41.76 167.41 41.06 168.29 40.7 169.12C40.45 169.69 40.28 170.3 40.12 170.77C40.01 171.08 39.83 171.35 39.45 171.35C39.08 171.35 38.86 170.97 38.86 170.6C38.86 170.08 39.4 169.35 39.95 168.41C40.61 167.26 42.13 164.74 42.42 164.16C42.52 163.97 42.49 163.83 42.38 163.73C42.23 163.59 41.96 163.47 41.77 163.39ZM41.87 192.22L41.99 192.12C42.49 192.45 42.93 192.58 43.35 192.58C44.22 192.58 44.91 192.39 45.37 192.23C46.09 192.01 46.36 191.83 46.42 191.83C46.78 191.84 47.19 192.01 47.19 192.32C47.19 192.64 47.02 192.72 46.56 192.9C46.11 193.08 44.7 193.42 43.52 193.42C42.88 193.42 42.37 193.33 41.87 192.22ZM43.5 190.79L43.47 190.63C43.73 190.46 44.11 190.24 44.38 190.24C45.05 190.24 45.68 190.59 45.68 190.87C45.68 191.11 45.57 191.2 45.51 191.56C45.43 191.94 45.35 192.79 45.35 193.61C45.35 195.15 45.57 196.18 45.57 196.86C45.57 197.82 44.96 198.31 43.63 198.31C42.73 198.31 41.93 197.84 41.93 196.98C41.93 195.99 42.93 195.56 44.09 195.56C45.75 195.56 46.67 196.2 47.16 196.67C47.38 196.89 47.49 197.1 47.49 197.33C47.49 197.67 47.32 197.86 47.05 197.86C46.82 197.86 46.67 197.7 46.33 197.4C45.45 196.58 44.57 196.25 43.53 196.25C42.97 196.25 42.41 196.49 42.41 196.91C42.41 197.28 42.85 197.43 43.32 197.43C44.34 197.43 44.58 197.09 44.58 196.39C44.58 195.89 44.47 194.63 44.47 193.6C44.47 192.83 44.48 191.84 44.48 191.47C44.48 191.05 44.39 191.02 44.22 190.95C44.01 190.87 43.75 190.82 43.5 190.79ZM39.08 190.36L39.19 190.25C39.52 190.33 39.73 190.41 39.97 190.57C40.28 190.77 40.83 191.34 40.83 191.89C40.83 192.17 40.67 192.36 40.44 192.83C40.08 193.49 39.67 194.5 39.67 195.5C39.67 195.81 39.71 196.07 39.77 196.21C39.84 196.36 39.94 196.37 40.04 196.22C40.27 195.86 40.81 194.76 41.07 194.26L41.29 194.36C41.1 194.9 40.77 195.84 40.67 196.21C40.58 196.6 40.54 196.81 40.54 196.97C40.54 197.33 40.73 197.67 40.73 197.97C40.73 198.33 40.55 198.54 40.23 198.54C39.98 198.54 39.75 198.36 39.55 198.09C39.18 197.59 38.93 196.74 38.93 195.59C38.93 194.67 39.21 193.48 39.37 192.88C39.5 192.4 39.6 191.99 39.61 191.55C39.61 191.09 39.34 190.66 39.08 190.36ZM39.02 203.46C39.5 203.92 39.98 204.1 40.61 204.1C41.67 204.1 42.9 203.77 43.55 203.43C43.95 203.22 44.11 203.11 44.2 203.11C44.48 203.11 45.1 203.18 45.1 203.59C45.1 203.86 44.9 204.04 44.45 204.22C43.82 204.46 42.17 204.94 40.55 204.94C39.69 204.94 39.28 204.72 38.88 203.55L39.02 203.46ZM40.65 202.36V202.21C40.92 202.1 41.15 202.02 41.39 202.02C42.06 202.02 42.73 202.34 42.73 202.62C42.73 202.89 42.49 202.96 42.37 203.38C42.28 203.68 42.19 204.08 42.07 204.56C41.86 205.38 41.53 206.54 41.42 206.95C41.39 207.08 41.41 207.11 41.53 207.03C42.53 206.4 43.34 206 44.33 206C45.92 206 46.65 206.97 46.65 208.04C46.65 210.01 44.01 210.72 41.46 210.49L41.44 210.28C42.19 210.21 42.94 210.05 43.62 209.78C45.09 209.25 45.52 208.46 45.52 207.71C45.52 207.03 45.07 206.42 44.23 206.42C43.15 206.42 42 207.55 41.36 208.33C41.16 208.56 41.06 208.96 40.76 208.96C40.44 208.96 40.11 208.37 40.11 207.95C40.11 207.81 40.19 207.77 40.33 207.47C40.58 207 40.98 205.36 41.16 204.56C41.29 203.94 41.4 203.33 41.43 203C41.45 202.76 41.41 202.7 41.24 202.6C41.09 202.51 40.91 202.45 40.65 202.36ZM41.87 229.22L41.99 229.12C42.49 229.45 42.93 229.58 43.35 229.58C44.22 229.58 44.91 229.39 45.37 229.23C46.09 229.01 46.36 228.83 46.42 228.83C46.78 228.84 47.19 229.01 47.19 229.32C47.19 229.64 47.02 229.72 46.56 229.9C46.11 230.08 44.7 230.42 43.52 230.42C42.88 230.42 42.37 230.33 41.87 229.22ZM43.5 227.79L43.47 227.63C43.73 227.46 44.11 227.24 44.38 227.24C45.05 227.24 45.68 227.59 45.68 227.87C45.68 228.11 45.57 228.2 45.51 228.56C45.43 228.94 45.35 229.79 45.35 230.61C45.35 232.15 45.57 233.18 45.57 233.86C45.57 234.82 44.96 235.31 43.63 235.31C42.73 235.31 41.93 234.84 41.93 233.98C41.93 232.99 42.93 232.56 44.09 232.56C45.75 232.56 46.67 233.2 47.16 233.67C47.38 233.89 47.49 234.1 47.49 234.33C47.49 234.67 47.32 234.86 47.05 234.86C46.82 234.86 46.67 234.7 46.33 234.4C45.45 233.58 44.57 233.25 43.53 233.25C42.97 233.25 42.41 233.49 42.41 233.91C42.41 234.28 42.85 234.43 43.32 234.43C44.34 234.43 44.58 234.09 44.58 233.39C44.58 232.89 44.47 231.63 44.47 230.6C44.47 229.83 44.48 228.84 44.48 228.47C44.48 228.05 44.39 228.02 44.22 227.95C44.01 227.87 43.75 227.82 43.5 227.79ZM39.08 227.36L39.19 227.25C39.52 227.33 39.73 227.41 39.97 227.57C40.28 227.77 40.83 228.34 40.83 228.89C40.83 229.17 40.67 229.36 40.44 229.83C40.08 230.49 39.67 231.5 39.67 232.5C39.67 232.81 39.71 233.07 39.77 233.21C39.84 233.36 39.94 233.37 40.04 233.22C40.27 232.86 40.81 231.76 41.07 231.26L41.29 231.36C41.1 231.9 40.77 232.84 40.67 233.21C40.58 233.6 40.54 233.81 40.54 233.97C40.54 234.33 40.73 234.67 40.73 234.97C40.73 235.33 40.55 235.54 40.23 235.54C39.98 235.54 39.75 235.36 39.55 235.09C39.18 234.59 38.93 233.74 38.93 232.59C38.93 231.67 39.21 230.48 39.37 229.88C39.5 229.4 39.6 228.99 39.61 228.55C39.61 228.09 39.34 227.66 39.08 227.36ZM39.02 240.46C39.5 240.92 39.98 241.1 40.61 241.1C41.67 241.1 42.9 240.77 43.55 240.43C43.95 240.22 44.11 240.11 44.2 240.11C44.48 240.11 45.1 240.18 45.1 240.59C45.1 240.86 44.9 241.04 44.45 241.22C43.82 241.46 42.17 241.94 40.55 241.94C39.69 241.94 39.28 241.72 38.88 240.55L39.02 240.46ZM40.65 239.36V239.21C40.92 239.1 41.15 239.02 41.39 239.02C42.06 239.02 42.73 239.34 42.73 239.62C42.73 239.89 42.49 239.96 42.37 240.38C42.28 240.68 42.19 241.08 42.07 241.56C41.86 242.38 41.53 243.54 41.42 243.95C41.39 244.08 41.41 244.11 41.53 244.03C42.53 243.4 43.34 243 44.33 243C45.92 243 46.65 243.97 46.65 245.04C46.65 247.01 44.01 247.72 41.46 247.49L41.44 247.28C42.19 247.21 42.94 247.05 43.62 246.78C45.09 246.25 45.52 245.46 45.52 244.71C45.52 244.03 45.07 243.42 44.23 243.42C43.15 243.42 42 244.55 41.36 245.33C41.16 245.56 41.06 245.96 40.76 245.96C40.44 245.96 40.11 245.37 40.11 244.95C40.11 244.81 40.19 244.77 40.33 244.47C40.58 244 40.98 242.36 41.16 241.56C41.29 240.94 41.4 240.33 41.43 240C41.45 239.76 41.41 239.7 41.24 239.6C41.09 239.51 40.91 239.45 40.65 239.36Z" fill="#FFE0A3"/>
<path d="M46.28 300.61C46.12 300.31 45.93 299.98 45.54 299.57L45.64 299.44C46.14 299.63 46.53 299.84 46.79 300.11C46.98 300.32 47.04 300.49 47.04 300.67C47.04 300.91 46.88 301.03 46.7 301.02C46.51 301.01 46.41 300.86 46.28 300.61ZM47.09 299.86C46.92 299.61 46.67 299.27 46.25 298.92L46.35 298.78C46.89 298.95 47.27 299.08 47.55 299.33C47.78 299.52 47.86 299.74 47.84 299.9C47.84 300.11 47.73 300.27 47.51 300.26C47.34 300.26 47.24 300.08 47.09 299.86ZM39.86 300.47L39.84 300.33C40.09 300.18 40.43 300.02 40.71 300.02C41.33 300.02 42.06 300.58 42.06 300.91C42.06 301.12 41.87 301.2 41.79 301.6C41.75 301.83 41.73 302.28 41.7 302.79C41.65 303.71 41.6 304.85 41.62 305.33C41.64 306.18 41.81 306.36 42.9 306.36C44.15 306.36 45.1 306.04 45.31 306.04C45.75 306.04 46.21 306.23 46.21 306.64C46.21 306.9 46.02 307.08 45.61 307.18C45.17 307.29 44.41 307.35 43.47 307.35C41.78 307.35 40.83 307.07 40.77 305.73C40.74 305.09 40.75 304.07 40.74 303.03C40.73 302.29 40.72 301.55 40.67 301.08C40.65 300.79 40.59 300.71 40.45 300.63C40.28 300.53 40.06 300.51 39.86 300.47ZM43.36 299.61L43.34 299.47C43.61 299.28 43.91 299.12 44.16 299.12C44.78 299.12 45.5 299.65 45.5 300C45.5 300.2 45.29 300.34 45.25 300.7C45.21 301.06 45.16 301.55 45.13 302.09C45.1 302.74 45.04 303.86 44.91 304.37C44.78 304.87 44.43 305.25 43.92 305.25C43.66 305.25 43.53 305.16 43.42 304.88C43.28 304.52 42.84 304.27 42.43 304.03L42.48 303.88C42.97 304 43.51 304.11 43.7 304.11C43.92 304.11 44.03 304.09 44.11 303.8C44.18 303.48 44.23 302.57 44.24 302.14C44.25 301.63 44.28 300.61 44.24 300.06C44.23 299.88 44.13 299.78 43.93 299.72C43.75 299.66 43.58 299.64 43.36 299.61ZM41.22 303.29C39.98 303.75 39.43 304.13 39.1 304.13C38.77 304.13 38.38 303.74 38.19 303.32C38.1 303.14 38.1 302.88 38.11 302.6L38.25 302.54C38.46 302.81 38.68 302.98 38.93 302.98C39.19 302.98 40.44 302.66 41.2 302.46C42.05 302.23 43.78 301.83 44.68 301.63C45.79 301.36 46.23 301.29 46.38 301.29C46.9 301.29 47.52 301.53 47.52 302.03C47.52 302.36 47.3 302.46 46.93 302.46C46.45 302.46 46.15 302.31 45.25 302.39C44.07 302.49 42.25 302.88 41.22 303.29ZM40.65 311.36C40.8 311.69 41.03 312.01 41.29 312.01C41.66 312.01 43.25 311.63 43.55 311.5C43.78 311.39 43.85 311.28 43.98 311.28C44.46 311.28 45.25 311.98 45.25 312.39C45.25 312.68 44.87 312.73 44.65 312.86C44.17 313.15 42.39 314.75 42.06 315.09C42 315.17 42.04 315.21 42.12 315.17C42.68 314.89 43.44 314.71 44.06 314.71C45.56 314.71 46.69 315.54 46.69 316.93C46.69 318.48 45.26 319.72 41.34 319.48L41.32 319.28C44.13 318.94 45.52 317.85 45.52 316.43C45.52 315.54 44.84 315.08 43.88 315.08C42.57 315.08 41.31 316.18 40.4 317.33C40.22 317.56 40.08 317.74 39.81 317.74C39.58 317.74 39.28 317.49 39.28 317.03C39.28 316.62 39.76 316.32 40.55 315.63C41.25 315 43.22 312.93 43.56 312.45C43.73 312.21 43.69 312.11 43.44 312.17C43.07 312.26 42.34 312.59 41.92 312.84C41.76 312.92 41.61 313.09 41.37 313.09C40.96 313.09 40.4 312.46 40.38 312.08C40.36 311.85 40.44 311.57 40.52 311.37L40.65 311.36ZM41.87 337.22L41.99 337.12C42.49 337.45 42.93 337.58 43.35 337.58C44.22 337.58 44.91 337.39 45.37 337.23C46.09 337.01 46.36 336.83 46.42 336.83C46.78 336.84 47.19 337.01 47.19 337.32C47.19 337.64 47.02 337.72 46.56 337.9C46.11 338.08 44.7 338.42 43.52 338.42C42.88 338.42 42.37 338.33 41.87 337.22ZM43.5 335.79L43.47 335.63C43.73 335.46 44.11 335.24 44.38 335.24C45.05 335.24 45.68 335.59 45.68 335.87C45.68 336.11 45.57 336.2 45.51 336.56C45.43 336.94 45.35 337.79 45.35 338.61C45.35 340.15 45.57 341.18 45.57 341.86C45.57 342.82 44.96 343.31 43.63 343.31C42.73 343.31 41.93 342.84 41.93 341.98C41.93 340.99 42.93 340.56 44.09 340.56C45.75 340.56 46.67 341.2 47.16 341.67C47.38 341.89 47.49 342.1 47.49 342.33C47.49 342.67 47.32 342.86 47.05 342.86C46.82 342.86 46.67 342.7 46.33 342.4C45.45 341.58 44.57 341.25 43.53 341.25C42.97 341.25 42.41 341.49 42.41 341.91C42.41 342.28 42.85 342.43 43.32 342.43C44.34 342.43 44.58 342.09 44.58 341.39C44.58 340.89 44.47 339.63 44.47 338.6C44.47 337.83 44.48 336.84 44.48 336.47C44.48 336.05 44.39 336.02 44.22 335.95C44.01 335.87 43.75 335.82 43.5 335.79ZM39.08 335.36L39.19 335.25C39.52 335.33 39.73 335.41 39.97 335.57C40.28 335.77 40.83 336.34 40.83 336.89C40.83 337.17 40.67 337.36 40.44 337.83C40.08 338.49 39.67 339.5 39.67 340.5C39.67 340.81 39.71 341.07 39.77 341.21C39.84 341.36 39.94 341.37 40.04 341.22C40.27 340.86 40.81 339.76 41.07 339.26L41.29 339.36C41.1 339.9 40.77 340.84 40.67 341.21C40.58 341.6 40.54 341.81 40.54 341.97C40.54 342.33 40.73 342.67 40.73 342.97C40.73 343.33 40.55 343.54 40.23 343.54C39.98 343.54 39.75 343.36 39.55 343.09C39.18 342.59 38.93 341.74 38.93 340.59C38.93 339.67 39.21 338.48 39.37 337.88C39.5 337.4 39.6 336.99 39.61 336.55C39.61 336.09 39.34 335.66 39.08 335.36ZM39.02 348.46C39.5 348.92 39.98 349.1 40.61 349.1C41.67 349.1 42.9 348.77 43.55 348.43C43.95 348.22 44.11 348.11 44.2 348.11C44.48 348.11 45.1 348.18 45.1 348.59C45.1 348.86 44.9 349.04 44.45 349.22C43.82 349.46 42.17 349.94 40.55 349.94C39.69 349.94 39.28 349.72 38.88 348.55L39.02 348.46ZM40.65 347.36V347.21C40.92 347.1 41.15 347.02 41.39 347.02C42.06 347.02 42.73 347.34 42.73 347.62C42.73 347.89 42.49 347.96 42.37 348.38C42.28 348.68 42.19 349.08 42.07 349.56C41.86 350.38 41.53 351.54 41.42 351.95C41.39 352.08 41.41 352.11 41.53 352.03C42.53 351.4 43.34 351 44.33 351C45.92 351 46.65 351.97 46.65 353.04C46.65 355.01 44.01 355.72 41.46 355.49L41.44 355.28C42.19 355.21 42.94 355.05 43.62 354.78C45.09 354.25 45.52 353.46 45.52 352.71C45.52 352.03 45.07 351.42 44.23 351.42C43.15 351.42 42 352.55 41.36 353.33C41.16 353.56 41.06 353.96 40.76 353.96C40.44 353.96 40.11 353.37 40.11 352.95C40.11 352.81 40.19 352.77 40.33 352.47C40.58 352 40.98 350.36 41.16 349.56C41.29 348.94 41.4 348.33 41.43 348C41.45 347.76 41.41 347.7 41.24 347.6C41.09 347.51 40.91 347.45 40.65 347.36ZM39.42 373.57C39.42 373 39.17 372.58 38.64 372.16L38.69 372.04C38.96 372.03 39.34 372.05 39.64 372.17C40.14 372.39 40.74 372.95 40.74 373.41C40.74 373.9 40.22 374.46 40.22 375.72C40.22 376.59 40.67 377.11 40.99 377.25C41.14 377.32 41.28 377.31 41.39 377.16C41.73 376.69 42.09 376.05 42.43 375.38L42.64 375.47C42.42 376.24 42.2 377.1 42.18 377.45C42.16 378.05 42.33 378.03 42.33 378.35C42.33 378.8 41.85 379.04 41.22 378.78C40.42 378.44 39.5 377.54 39.38 375.93C39.31 375.14 39.42 374.26 39.42 373.57ZM44.09 373.14L44.14 372.97C45.2 373.03 45.79 373.38 46.38 373.93C46.99 374.49 47.26 375.34 47.26 376.11C47.26 376.74 47.05 377.08 46.57 377.08C46.36 377.08 46.14 376.96 46.06 376.69C45.94 376.27 45.97 375.72 45.68 374.88C45.43 374.14 44.89 373.5 44.09 373.14ZM39.02 384.46C39.5 384.92 39.98 385.1 40.61 385.1C41.67 385.1 42.9 384.77 43.55 384.43C43.95 384.22 44.11 384.11 44.2 384.11C44.48 384.11 45.1 384.18 45.1 384.59C45.1 384.86 44.9 385.04 44.45 385.22C43.82 385.46 42.17 385.94 40.55 385.94C39.69 385.94 39.28 385.72 38.88 384.55L39.02 384.46ZM40.65 383.36V383.21C40.92 383.1 41.15 383.02 41.39 383.02C42.06 383.02 42.73 383.34 42.73 383.62C42.73 383.89 42.49 383.96 42.37 384.38C42.28 384.68 42.19 385.08 42.07 385.56C41.86 386.38 41.53 387.54 41.42 387.95C41.39 388.08 41.41 388.11 41.53 388.03C42.53 387.4 43.34 387 44.33 387C45.92 387 46.65 387.97 46.65 389.04C46.65 391.01 44.01 391.72 41.46 391.49L41.44 391.28C42.19 391.21 42.94 391.05 43.62 390.78C45.09 390.25 45.52 389.46 45.52 388.71C45.52 388.03 45.07 387.42 44.23 387.42C43.15 387.42 42 388.55 41.36 389.33C41.16 389.56 41.06 389.96 40.76 389.96C40.44 389.96 40.11 389.37 40.11 388.95C40.11 388.81 40.19 388.77 40.33 388.47C40.58 388 40.98 386.36 41.16 385.56C41.29 384.94 41.4 384.33 41.43 384C41.45 383.76 41.41 383.7 41.24 383.6C41.09 383.51 40.91 383.45 40.65 383.36ZM39.42 403.57C39.42 403 39.17 402.58 38.64 402.16L38.69 402.04C38.96 402.03 39.34 402.05 39.64 402.17C40.14 402.39 40.74 402.95 40.74 403.41C40.74 403.9 40.22 404.46 40.22 405.72C40.22 406.59 40.67 407.11 40.99 407.25C41.14 407.32 41.28 407.31 41.39 407.16C41.73 406.69 42.09 406.05 42.43 405.38L42.64 405.47C42.42 406.24 42.2 407.1 42.18 407.45C42.16 408.05 42.33 408.03 42.33 408.35C42.33 408.8 41.85 409.04 41.22 408.78C40.42 408.44 39.5 407.54 39.38 405.93C39.31 405.14 39.42 404.26 39.42 403.57ZM44.09 403.14L44.14 402.97C45.2 403.03 45.79 403.38 46.38 403.93C46.99 404.49 47.26 405.34 47.26 406.11C47.26 406.74 47.05 407.08 46.57 407.08C46.36 407.08 46.14 406.96 46.06 406.69C45.94 406.27 45.97 405.72 45.68 404.88C45.43 404.14 44.89 403.5 44.09 403.14ZM39.02 414.46C39.5 414.92 39.98 415.1 40.61 415.1C41.67 415.1 42.9 414.77 43.55 414.43C43.95 414.22 44.11 414.11 44.2 414.11C44.48 414.11 45.1 414.18 45.1 414.59C45.1 414.86 44.9 415.04 44.45 415.22C43.82 415.46 42.17 415.94 40.55 415.94C39.69 415.94 39.28 415.72 38.88 414.55L39.02 414.46ZM40.65 413.36V413.21C40.92 413.1 41.15 413.02 41.39 413.02C42.06 413.02 42.73 413.34 42.73 413.62C42.73 413.89 42.49 413.96 42.37 414.38C42.28 414.68 42.19 415.08 42.07 415.56C41.86 416.38 41.53 417.54 41.42 417.95C41.39 418.08 41.41 418.11 41.53 418.03C42.53 417.4 43.34 417 44.33 417C45.92 417 46.65 417.97 46.65 419.04C46.65 421.01 44.01 421.72 41.46 421.49L41.44 421.28C42.19 421.21 42.94 421.05 43.62 420.78C45.09 420.25 45.52 419.46 45.52 418.71C45.52 418.03 45.07 417.42 44.23 417.42C43.15 417.42 42 418.55 41.36 419.33C41.16 419.56 41.06 419.96 40.76 419.96C40.44 419.96 40.11 419.37 40.11 418.95C40.11 418.81 40.19 418.77 40.33 418.47C40.58 418 40.98 416.36 41.16 415.56C41.29 414.94 41.4 414.33 41.43 414C41.45 413.76 41.41 413.7 41.24 413.6C41.09 413.51 40.91 413.45 40.65 413.36Z" fill="#FFE0A3"/>
</svg>
