<svg width="48" height="645" viewBox="0 0 48 645" fill="none" xmlns="http://www.w3.org/2000/svg">
<path d="M1.394 189.08C1.394 180.478 8.364 173.508 17 173.508C25.602 173.508 32.572 180.478 32.572 189.08C32.572 197.716 25.602 204.686 17 204.686C8.364 204.686 1.394 197.716 1.394 189.08ZM17 203.054C24.684 203.054 30.94 196.798 30.94 189.08C30.94 181.396 24.684 175.14 17 175.14C9.282 175.14 3.026 181.396 3.026 189.08C3.026 196.798 9.282 203.054 17 203.054ZM1.394 234.872H25.534L28.118 231.438C28.118 231.438 31.042 233.716 32.776 235.28C32.674 235.654 32.3 235.824 31.79 235.824H1.666L1.394 234.872ZM4.726 215.696H22.304L24.786 212.364C24.786 212.364 27.642 214.642 29.342 216.138C29.24 216.512 28.832 216.682 28.356 216.682H4.998L4.726 215.696ZM11.05 245.712L16.388 246.256C16.354 246.698 16.048 247.106 15.164 247.208V270.056C15.164 271.11 15.742 271.416 17.442 271.416H21.896C23.494 271.416 24.786 271.416 25.5 271.348C26.112 271.314 26.452 271.178 26.758 270.736C27.268 269.954 27.948 267.948 28.798 265.126H29.172L29.308 270.94C30.668 271.45 31.042 271.96 31.042 272.742C31.042 274.748 29.138 275.462 21.522 275.462H17C12.716 275.462 11.05 274.748 11.05 271.212V245.712ZM1.02 260.23L25.874 255.572L27.914 251.764C27.914 251.764 30.974 253.43 32.98 254.654C32.946 255.028 32.606 255.3 32.13 255.368L1.462 261.148L1.02 260.23ZM26.962 318.188C26.962 318.188 29.716 320.262 31.382 321.69C31.314 322.064 30.906 322.234 30.43 322.234H3.196L2.924 321.282H24.514L26.962 318.188ZM24.344 329.51C24.344 329.51 26.996 331.516 28.628 332.876C28.56 333.25 28.152 333.42 27.676 333.42H5.508L5.236 332.468H21.964L24.344 329.51ZM28.696 341.614C28.696 341.614 31.518 343.722 33.218 345.184C33.116 345.558 32.742 345.728 32.232 345.728H1.394L1.122 344.776H26.18L28.696 341.614ZM9.316 356.5H21.964V357.486H9.622L9.316 356.5ZM19.618 356.5H18.598L20.06 354.29L23.902 357.112C23.392 357.69 22.202 358.03 20.604 358.166C22.134 367.38 25.806 375.608 33.422 379.688L33.218 380.096C31.348 380.674 29.818 382.34 29.206 384.006C22.848 378.328 20.604 369.42 19.618 357.044V356.5ZM9.996 361.872L15.81 362.96C15.708 363.368 15.3 363.742 14.518 363.776C12.818 373.058 8.942 380.436 1.292 384.312L0.918 383.972C6.494 379.382 9.282 371.222 9.996 361.872ZM9.316 392.5H21.964V393.486H9.622L9.316 392.5ZM19.618 392.5H18.598L20.06 390.29L23.902 393.112C23.392 393.69 22.202 394.03 20.604 394.166C22.134 403.38 25.806 411.608 33.422 415.688L33.218 416.096C31.348 416.674 29.818 418.34 29.206 420.006C22.848 414.328 20.604 405.42 19.618 393.044V392.5ZM9.996 397.872L15.81 398.96C15.708 399.368 15.3 399.742 14.518 399.776C12.818 409.058 8.942 416.436 1.292 420.312L0.918 419.972C6.494 415.382 9.282 407.222 9.996 397.872ZM1.394 477.08C1.394 468.478 8.364 461.508 17 461.508C25.602 461.508 32.572 468.478 32.572 477.08C32.572 485.716 25.602 492.686 17 492.686C8.364 492.686 1.394 485.716 1.394 477.08ZM17 491.054C24.684 491.054 30.94 484.798 30.94 477.08C30.94 469.396 24.684 463.14 17 463.14C9.282 463.14 3.026 469.396 3.026 477.08C3.026 484.798 9.282 491.054 17 491.054ZM9.316 500.5H21.964V501.486H9.622L9.316 500.5ZM19.618 500.5H18.598L20.06 498.29L23.902 501.112C23.392 501.69 22.202 502.03 20.604 502.166C22.134 511.38 25.806 519.608 33.422 523.688L33.218 524.096C31.348 524.674 29.818 526.34 29.206 528.006C22.848 522.328 20.604 513.42 19.618 501.044V500.5ZM9.996 505.872L15.81 506.96C15.708 507.368 15.3 507.742 14.518 507.776C12.818 517.058 8.942 524.436 1.292 528.312L0.918 527.972C6.494 523.382 9.282 515.222 9.996 505.872ZM28.016 543.742C28.016 543.742 31.178 546.462 33.048 548.23C32.946 548.604 32.538 548.74 31.994 548.74H1.496L1.19 547.652H25.194L28.016 543.742ZM28.016 579.742C28.016 579.742 31.178 582.462 33.048 584.23C32.946 584.604 32.538 584.74 31.994 584.74H1.496L1.19 583.652H25.194L28.016 579.742Z" fill="#FFE0A3"/>
<path d="M26.506 6.308C26.842 6.812 27.115 7.106 27.472 7.106C27.913 7.106 28.228 6.812 28.228 6.371C28.249 5.972 28.102 5.573 27.64 5.174C27.01 4.586 26.002 4.166 24.847 3.851L24.637 4.124C25.603 4.964 26.128 5.741 26.506 6.308ZM28.459 4.712C28.858 5.237 29.11 5.573 29.509 5.573C29.95 5.573 30.202 5.279 30.202 4.838C30.202 4.355 29.992 3.935 29.467 3.536C28.879 3.095 27.913 2.738 26.737 2.507L26.548 2.78C27.64 3.62 28.081 4.229 28.459 4.712ZM14.494 5.3C15.313 7.505 17.119 7.778 19.282 7.862C19.534 7.883 19.555 7.946 19.387 8.093C18.778 8.597 17.707 9.458 16.888 10.046L17.077 10.382C18.946 9.542 20.815 8.828 22.075 8.513C22.852 8.282 23.65 8.177 24.322 8.051C25.078 7.904 25.414 7.589 25.414 7.001C25.414 6.203 23.797 5.531 22.789 5.531C21.781 5.531 21.256 6.098 18.484 6.098C16.783 6.098 15.943 5.909 14.725 5.09L14.494 5.3ZM14.389 13.679C14.599 16.64 15.46 18.299 19.618 18.299C22.831 18.299 24.511 17.375 25.078 17.375C25.855 17.375 27.136 17.837 27.136 18.719C27.136 19.391 26.884 19.664 25.981 20C24.826 20.399 22.726 20.672 20.311 20.672C14.158 20.672 12.814 17.732 13.969 13.7L14.389 13.679ZM17.245 28.938H26.59L27.913 27.174C27.913 27.174 29.383 28.371 30.244 29.19C30.202 29.421 29.971 29.526 29.656 29.526H17.413L17.245 28.938ZM17.287 35.028H26.254L27.493 33.369C27.493 33.369 28.9 34.503 29.719 35.301C29.677 35.532 29.446 35.616 29.152 35.616H17.455L17.287 35.028ZM16.195 42.399H26.8L28.165 40.572C28.165 40.572 29.677 41.811 30.559 42.651C30.517 42.882 30.286 42.987 29.971 42.987H16.363L16.195 42.399ZM19.933 24.255C26.38 24.948 24.784 29.736 22.369 28.287C21.97 26.901 20.794 25.347 19.765 24.402L19.933 24.255ZM21.865 29.043H24.385V42.756H21.865V29.043ZM12.31 24.591C18.211 24.843 16.699 29.211 14.389 27.93C14.011 26.796 13.003 25.515 12.163 24.738L12.31 24.591ZM10.777 29.337C16.468 29.589 14.851 33.873 12.625 32.529C12.331 31.416 11.428 30.219 10.609 29.505L10.777 29.337ZM12.121 37.695C12.436 37.695 12.52 37.695 12.751 37.254C13.255 36.435 13.255 36.435 17.392 27.384L17.707 27.468C16.825 30.198 15.208 35.238 14.914 36.435C14.725 37.17 14.557 37.968 14.578 38.493C14.599 39.627 15.481 40.341 15.418 42.168C15.376 43.176 14.683 43.89 13.633 43.89C13.129 43.89 12.625 43.596 12.457 42.819C12.856 40.677 12.751 38.766 12.247 38.451C11.974 38.241 11.596 38.136 11.155 38.115V37.695C11.155 37.695 11.89 37.695 12.121 37.695ZM15.733 50.854C17.581 58.414 23.398 61.921 30.286 63.496L30.223 63.769C28.984 63.916 28.06 64.693 27.598 65.911C21.193 63.622 16.888 59.464 15.439 51.043L15.733 50.854ZM19.198 46.276L22.516 46.528C22.474 46.822 22.306 47.032 21.739 47.116V51.106H19.198V46.276ZM10.84 50.854H26.044L27.535 48.88C27.535 48.88 29.194 50.203 30.181 51.127C30.118 51.358 29.887 51.463 29.593 51.463H11.008L10.84 50.854ZM23.797 50.854H26.884C25.225 58.141 20.563 63.601 10.756 65.869L10.63 65.638C18.715 62.593 22.747 57.217 23.797 50.854ZM27.241 71.783C26.8 71.216 26.38 70.586 25.414 69.704L25.603 69.431C26.695 69.704 27.661 70.04 28.27 70.586C28.732 70.985 28.921 71.321 28.942 71.783C28.963 72.182 28.669 72.497 28.228 72.518C27.892 72.539 27.598 72.266 27.241 71.783ZM29.089 70.271C28.69 69.788 28.333 69.305 27.241 68.423L27.43 68.15C28.669 68.423 29.446 68.612 30.055 69.053C30.58 69.431 30.853 69.83 30.874 70.313C30.874 70.775 30.601 71.069 30.181 71.09C29.761 71.111 29.509 70.775 29.089 70.271ZM17.035 76.781C18.526 77.201 20.752 77.894 22.39 78.818C24.133 79.805 25.75 81.065 25.813 82.535C25.855 83.312 25.351 83.837 24.637 83.858C23.524 83.879 23.377 82.808 21.256 80.372C19.891 78.839 18.442 78.041 16.741 77.222L17.035 76.781ZM11.722 80.288C14.935 77.558 18.211 72.77 18.211 71.405C18.211 71.006 17.728 70.523 17.035 70.145L17.098 69.872C17.497 69.767 17.896 69.683 18.568 69.725C19.975 69.788 21.55 70.67 21.55 71.216C21.55 71.657 21.298 71.741 20.941 72.308C19.03 75.29 15.775 78.86 11.974 80.666L11.722 80.288ZM11.953 87.302C17.854 84.32 22.747 78.755 24.469 74.303C24.595 74.009 24.469 73.883 24.217 73.904C23.671 73.904 22.054 74.261 21.466 74.45C21.025 74.597 20.668 74.744 20.269 74.744C19.933 74.744 19.345 74.261 18.778 73.778L19.177 73.022C19.639 73.106 19.87 73.106 20.185 73.106C20.899 73.106 23.545 72.728 24.112 72.539C24.658 72.35 25.015 71.825 25.477 71.825C26.086 71.825 28.081 73.106 28.081 73.946C28.081 74.492 27.22 74.744 26.926 75.248C23.608 81.086 19.45 85.328 12.184 87.722L11.953 87.302ZM21.529 91.746L21.634 91.389C22.222 91.368 22.873 91.326 23.524 91.515C24.658 91.872 25.918 93.048 25.918 93.783C25.918 94.413 25.414 94.413 24.847 95.001C23.923 95.925 22.537 97.395 20.878 98.844C19.66 99.894 16.153 102.645 12.058 103.989L11.827 103.569C16.279 101.007 20.647 96.555 22.201 94.14C22.579 93.573 22.768 93.153 22.768 92.88C22.768 92.481 22.18 92.061 21.529 91.746ZM20.017 98.361L21.046 97.5C22.075 98.235 23.041 98.781 23.041 99.327C23.041 99.684 22.852 100.062 22.831 100.671C22.726 103.506 22.894 106.53 22.894 107.601C22.894 108.483 22.495 109.071 21.718 109.071C20.626 109.071 20.143 108 20.143 106.95C20.143 106.53 20.269 106.047 20.353 105.375C20.605 103.296 20.626 100.944 20.605 99.999C20.584 99.327 20.395 98.928 20.017 98.361ZM15.04 114.586L15.019 114.292C15.649 113.998 16.216 113.746 17.035 113.746C18.001 113.746 19.87 114.229 19.87 114.901C19.87 115.384 19.702 115.909 19.744 116.497C19.807 117.064 20.038 118.534 20.311 119.605C21.025 122.524 22.012 126.073 22.474 127.627C22.642 128.236 23.02 129.286 23.02 129.853C23.02 130.651 22.663 131.05 21.886 131.05C20.815 131.05 20.143 130.147 20.038 129.013C19.828 127.039 19.009 122.923 18.253 120.193C17.896 118.702 17.266 116.455 16.867 115.657C16.594 115.111 15.943 114.817 15.04 114.586ZM11.932 119.206C12.394 119.605 12.709 120.004 13.444 120.025C14.263 120.025 16.993 119.332 19.114 118.807C20.962 118.324 24.658 117.316 25.519 117.043C26.023 116.875 26.464 116.413 26.821 116.413C27.745 116.434 29.572 117.967 29.572 118.912C29.572 119.458 28.627 119.5 28.249 119.836C27.22 120.802 25.477 122.545 23.377 123.805L23.041 123.532C24.28 121.957 25.351 119.941 25.813 118.87C25.939 118.576 25.813 118.513 25.54 118.576C24.49 118.807 21.424 119.752 19.324 120.361C18.085 120.718 16.531 121.264 15.922 121.516C14.977 121.936 14.599 122.482 14.032 122.482C13.213 122.482 12.1 121.495 11.806 120.802C11.659 120.466 11.638 119.878 11.68 119.311L11.932 119.206ZM18.757 137.447C19.45 137.09 19.891 136.964 20.458 136.964C21.592 136.964 23.314 138.035 23.314 138.728C23.314 139.274 22.768 139.379 22.663 140.156C22.495 141.395 22.348 145.805 22.39 147.317C22.39 147.632 22.558 147.737 22.852 147.611C25.204 146.666 28.06 144.65 30.454 142.508L30.769 142.76C29.005 145.679 26.065 148.346 23.44 150.11C22.978 150.425 22.579 151.139 21.991 151.139C21.214 151.139 19.954 149.606 19.954 148.976C19.954 148.514 20.248 148.22 20.311 147.401C20.416 146.372 20.5 141.017 20.374 138.98C20.353 138.392 19.786 138.014 18.799 137.783L18.757 137.447ZM14.284 140.177V139.82C14.746 139.631 15.271 139.442 15.901 139.463C16.846 139.484 18.757 140.492 18.757 141.353C18.757 141.899 18.295 142.277 18.19 142.823C17.497 146.393 15.187 150.005 10.798 152.252L10.525 151.937C13.738 149.06 15.775 144.587 15.775 141.542C15.775 140.87 14.977 140.471 14.284 140.177Z" fill="#FFE0A3"/>
<path d="M46.28 182.61C46.12 182.31 45.93 181.98 45.54 181.57L45.64 181.44C46.14 181.63 46.53 181.84 46.79 182.11C46.98 182.32 47.04 182.49 47.04 182.67C47.04 182.91 46.88 183.03 46.7 183.02C46.51 183.01 46.41 182.86 46.28 182.61ZM47.09 181.86C46.92 181.61 46.67 181.27 46.25 180.92L46.35 180.78C46.89 180.95 47.27 181.08 47.55 181.33C47.78 181.52 47.86 181.74 47.84 181.9C47.84 182.11 47.73 182.27 47.51 182.26C47.34 182.26 47.24 182.08 47.09 181.86ZM39.86 182.47L39.84 182.33C40.09 182.18 40.43 182.02 40.71 182.02C41.33 182.02 42.06 182.58 42.06 182.91C42.06 183.12 41.87 183.2 41.79 183.6C41.75 183.83 41.73 184.28 41.7 184.79C41.65 185.71 41.6 186.85 41.62 187.33C41.64 188.18 41.81 188.36 42.9 188.36C44.15 188.36 45.1 188.04 45.31 188.04C45.75 188.04 46.21 188.23 46.21 188.64C46.21 188.9 46.02 189.08 45.61 189.18C45.17 189.29 44.41 189.35 43.47 189.35C41.78 189.35 40.83 189.07 40.77 187.73C40.74 187.09 40.75 186.07 40.74 185.03C40.73 184.29 40.72 183.55 40.67 183.08C40.65 182.79 40.59 182.71 40.45 182.63C40.28 182.53 40.06 182.51 39.86 182.47ZM43.36 181.61L43.34 181.47C43.61 181.28 43.91 181.12 44.16 181.12C44.78 181.12 45.5 181.65 45.5 182C45.5 182.2 45.29 182.34 45.25 182.7C45.21 183.06 45.16 183.55 45.13 184.09C45.1 184.74 45.04 185.86 44.91 186.37C44.78 186.87 44.43 187.25 43.92 187.25C43.66 187.25 43.53 187.16 43.42 186.88C43.28 186.52 42.84 186.27 42.43 186.03L42.48 185.88C42.97 186 43.51 186.11 43.7 186.11C43.92 186.11 44.03 186.09 44.11 185.8C44.18 185.48 44.23 184.57 44.24 184.14C44.25 183.63 44.28 182.61 44.24 182.06C44.23 181.88 44.13 181.78 43.93 181.72C43.75 181.66 43.58 181.64 43.36 181.61ZM41.22 185.29C39.98 185.75 39.43 186.13 39.1 186.13C38.77 186.13 38.38 185.74 38.19 185.32C38.1 185.14 38.1 184.88 38.11 184.6L38.25 184.54C38.46 184.81 38.68 184.98 38.93 184.98C39.19 184.98 40.44 184.66 41.2 184.46C42.05 184.23 43.78 183.83 44.68 183.63C45.79 183.36 46.23 183.29 46.38 183.29C46.9 183.29 47.52 183.53 47.52 184.03C47.52 184.36 47.3 184.46 46.93 184.46C46.45 184.46 46.15 184.31 45.25 184.39C44.07 184.49 42.25 184.88 41.22 185.29ZM40.65 193.36C40.8 193.69 41.03 194.01 41.29 194.01C41.66 194.01 43.25 193.63 43.55 193.5C43.78 193.39 43.85 193.28 43.98 193.28C44.46 193.28 45.25 193.98 45.25 194.39C45.25 194.68 44.87 194.73 44.65 194.86C44.17 195.15 42.39 196.75 42.06 197.09C42 197.17 42.04 197.21 42.12 197.17C42.68 196.89 43.44 196.71 44.06 196.71C45.56 196.71 46.69 197.54 46.69 198.93C46.69 200.48 45.26 201.72 41.34 201.48L41.32 201.28C44.13 200.94 45.52 199.85 45.52 198.43C45.52 197.54 44.84 197.08 43.88 197.08C42.57 197.08 41.31 198.18 40.4 199.33C40.22 199.56 40.08 199.74 39.81 199.74C39.58 199.74 39.28 199.49 39.28 199.03C39.28 198.62 39.76 198.32 40.55 197.63C41.25 197 43.22 194.93 43.56 194.45C43.73 194.21 43.69 194.11 43.44 194.17C43.07 194.26 42.34 194.59 41.92 194.84C41.76 194.92 41.61 195.09 41.37 195.09C40.96 195.09 40.4 194.46 40.38 194.08C40.36 193.85 40.44 193.57 40.52 193.37L40.65 193.36ZM42.47 227.25C43.24 226.57 44.31 226.31 45.06 226.31C45.73 226.31 46.13 226.39 46.47 226.58C46.78 226.75 46.87 226.95 46.87 227.12C46.87 227.37 46.73 227.49 46.48 227.54C46.18 227.6 45.82 227.6 45.42 227.73C44.97 227.87 44.3 228.19 43.77 228.51L43.64 228.36C44.07 228 44.58 227.58 44.74 227.39C44.85 227.27 44.9 227.16 44.16 227.16C43.86 227.16 43.38 227.2 42.54 227.42L42.47 227.25ZM42.4 230.09C42.46 230.32 42.54 230.63 42.66 230.84C43.05 231.52 43.52 231.78 44.76 231.78C45.78 231.78 46.19 231.59 46.4 231.59C46.82 231.59 47.27 231.79 47.27 232.16C47.27 232.79 46.26 232.92 45.06 232.92C43.17 232.92 42.39 232.1 42.23 230.95C42.19 230.65 42.2 230.34 42.23 230.11L42.4 230.09ZM39.27 225.52C39.52 225.8 39.78 226.23 39.78 226.69C39.78 227.14 39.68 227.54 39.55 228.03C39.39 228.63 39.11 229.67 39.11 230.59C39.11 231.71 39.36 232.49 39.72 232.99C39.92 233.26 40.16 233.44 40.41 233.44C40.73 233.44 40.91 233.24 40.91 232.88C40.91 232.57 40.7 232.23 40.7 231.88C40.7 231.72 40.74 231.5 40.83 231.11C40.91 230.73 41.27 229.87 41.46 229.32L41.25 229.23C40.99 229.73 40.47 230.68 40.22 231.04C40.12 231.2 40.04 231.18 39.97 231.04C39.91 230.92 39.87 230.71 39.87 230.4C39.87 229.56 40.25 228.64 40.62 227.97C40.86 227.51 41.01 227.31 41.01 227.03C41.01 226.49 40.46 225.94 40.15 225.73C39.91 225.58 39.69 225.48 39.37 225.41L39.27 225.52ZM44.36 255.03V254.85C44.93 254.66 45.51 254.68 45.91 254.81C46.59 255.01 47.01 255.46 47.01 256.02C47.01 256.35 46.9 256.58 46.59 256.58C46.19 256.58 45.93 256.27 45.37 256.28C45.08 256.3 44.77 256.4 44.62 256.62C44.48 256.83 44.5 257.18 44.55 257.57C44.62 258.1 44.92 259.34 44.92 260.23C44.92 261.12 44.23 261.6 43.09 261.6C41.98 261.6 41.33 261.03 41.33 260.29C41.33 259.49 42.12 258.75 43.58 258.75C44.71 258.75 45.49 259.08 46.04 259.39C46.68 259.73 47.12 260.14 47.12 260.59C47.12 260.98 46.89 261.14 46.65 261.14C46.35 261.14 46.21 260.86 45.82 260.53C45.23 259.99 44.36 259.41 43 259.41C42.18 259.41 41.81 259.78 41.81 260.1C41.81 260.43 42.08 260.68 42.78 260.68C43.51 260.68 43.91 260.36 43.91 259.78C43.92 259.25 43.86 258.44 43.86 257.85C43.86 257.23 43.97 256.78 44.26 256.44C44.65 255.98 45.15 255.78 45.47 255.62C45.52 255.54 45.47 255.45 45.37 255.36C45.15 255.18 44.8 255.06 44.36 255.03ZM38.91 254.31C39.33 254.63 39.64 254.88 40.28 254.88C40.77 254.88 41.4 254.73 41.71 254.65C42.85 254.34 43.14 254.06 43.31 254.06C43.54 254.06 43.82 254.22 43.82 254.54C43.82 254.77 43.69 254.89 43.52 255.01C42.89 255.4 41.31 255.76 40.25 255.76C39.41 255.76 39.03 255.5 38.76 254.4L38.91 254.31ZM40.65 253.25V253.1C40.84 253.01 41.19 252.9 41.47 252.9C41.86 252.9 42.2 253.01 42.4 253.17C42.63 253.34 42.47 253.73 42.08 254.91C41.85 255.6 41.15 257.95 40.18 259.48C39.93 259.88 39.74 260.14 39.46 260.14C39.11 260.14 38.92 259.81 38.92 259.47C38.92 259.22 38.99 259.04 39.17 258.82C39.88 257.95 40.61 256.83 41.05 255.4C41.23 254.84 41.33 254.32 41.34 253.94C41.34 253.73 41.26 253.6 41.09 253.48C40.93 253.36 40.75 253.29 40.65 253.25ZM44.36 267.03V266.85C44.93 266.66 45.51 266.68 45.91 266.81C46.59 267.01 47.01 267.46 47.01 268.02C47.01 268.35 46.9 268.58 46.59 268.58C46.19 268.58 45.93 268.27 45.37 268.28C45.08 268.3 44.77 268.4 44.62 268.62C44.48 268.83 44.5 269.18 44.55 269.57C44.62 270.1 44.92 271.34 44.92 272.23C44.92 273.12 44.23 273.6 43.09 273.6C41.98 273.6 41.33 273.03 41.33 272.29C41.33 271.49 42.12 270.75 43.58 270.75C44.71 270.75 45.49 271.08 46.04 271.39C46.68 271.73 47.12 272.14 47.12 272.59C47.12 272.98 46.89 273.14 46.65 273.14C46.35 273.14 46.21 272.86 45.82 272.53C45.23 271.99 44.36 271.41 43 271.41C42.18 271.41 41.81 271.78 41.81 272.1C41.81 272.43 42.08 272.68 42.78 272.68C43.51 272.68 43.91 272.36 43.91 271.78C43.92 271.25 43.86 270.44 43.86 269.85C43.86 269.23 43.97 268.78 44.26 268.44C44.65 267.98 45.15 267.78 45.47 267.62C45.52 267.54 45.47 267.45 45.37 267.36C45.15 267.18 44.8 267.06 44.36 267.03ZM38.91 266.31C39.33 266.63 39.64 266.88 40.28 266.88C40.77 266.88 41.4 266.73 41.71 266.65C42.85 266.34 43.14 266.06 43.31 266.06C43.54 266.06 43.82 266.22 43.82 266.54C43.82 266.77 43.69 266.89 43.52 267.01C42.89 267.4 41.31 267.76 40.25 267.76C39.41 267.76 39.03 267.5 38.76 266.4L38.91 266.31ZM40.65 265.25V265.1C40.84 265.01 41.19 264.9 41.47 264.9C41.86 264.9 42.2 265.01 42.4 265.17C42.63 265.34 42.47 265.73 42.08 266.91C41.85 267.6 41.15 269.95 40.18 271.48C39.93 271.88 39.74 272.14 39.46 272.14C39.11 272.14 38.92 271.81 38.92 271.47C38.92 271.22 38.99 271.04 39.17 270.82C39.88 269.95 40.61 268.83 41.05 267.4C41.23 266.84 41.33 266.32 41.34 265.94C41.34 265.73 41.26 265.6 41.09 265.48C40.93 265.36 40.75 265.29 40.65 265.25Z" fill="#FFE0A3"/>
<path d="M42.74 324.49C43.6 324.49 44.32 324.65 44.7 324.73C44.82 324.76 44.85 324.73 44.75 324.63C44.33 324.16 43.69 323.34 43.22 322.61C42.92 322.13 42.56 321.45 42.32 321.08C42.15 320.82 41.77 320.75 41.19 320.7L41.16 320.55C41.47 320.34 41.85 320.13 42.26 320.13C42.83 320.13 43.26 320.32 43.33 320.56C43.55 321.37 43.71 321.77 44.03 322.35C44.55 323.3 45.34 324.03 45.92 324.59C46.15 324.82 46.24 324.96 46.24 325.19C46.24 325.55 46.07 326.11 45.69 326.11C45.39 326.11 45.19 325.91 44.87 325.7C44.36 325.36 43.6 324.95 42.49 324.95C41.44 324.95 40.74 325.5 40.74 326.25C40.74 326.89 41.42 327.36 42.82 327.36C43.53 327.36 43.94 327.24 44.34 327.24C44.78 327.24 45.18 327.4 45.18 327.83C45.18 328.22 44.65 328.49 43.17 328.49C41.29 328.49 39.92 327.78 39.92 326.5C39.92 325.38 41.12 324.49 42.74 324.49ZM43.43 321.9C44.65 321.44 45 320.94 45.25 320.89C45.49 320.85 45.82 320.88 45.98 321.07C46.14 321.24 46.11 321.52 45.92 321.7C45.59 322.01 44.75 322.45 43.91 322.75C43.23 323 42.16 323.27 41.36 323.28C40.09 323.3 39.75 322.86 39.3 321.84L39.45 321.72C40.1 322.26 40.49 322.39 41.19 322.39C41.77 322.38 42.74 322.16 43.43 321.9ZM41.77 332.39L41.79 332.25C42.03 332.16 42.41 332.12 42.63 332.16C43.42 332.27 43.94 332.89 43.94 333.29C43.94 333.52 43.63 333.64 43.35 333.93C42.84 334.44 41.97 335.57 41.56 336.25C41.52 336.31 41.55 336.34 41.61 336.31C42.1 336.06 42.55 335.96 42.87 335.96C43.72 335.96 44.18 336.39 44.24 337.15C44.28 337.63 44.25 338.07 44.25 338.63C44.25 339.13 44.53 339.29 44.93 339.29C46 339.29 46.88 338.11 47.3 337.03L47.46 337.07C47.24 339.42 46.03 340.4 44.64 340.4C43.69 340.4 43.17 339.87 43.16 339.04C43.15 338.36 43.26 337.81 43.26 337.17C43.26 336.75 43.11 336.41 42.57 336.41C41.76 336.41 41.06 337.29 40.7 338.12C40.45 338.69 40.28 339.3 40.12 339.77C40.01 340.08 39.83 340.35 39.45 340.35C39.08 340.35 38.86 339.97 38.86 339.6C38.86 339.08 39.4 338.35 39.95 337.41C40.61 336.26 42.13 333.74 42.42 333.16C42.52 332.97 42.49 332.83 42.38 332.73C42.23 332.59 41.96 332.47 41.77 332.39ZM41.87 361.22L41.99 361.12C42.49 361.45 42.93 361.58 43.35 361.58C44.22 361.58 44.91 361.39 45.37 361.23C46.09 361.01 46.36 360.83 46.42 360.83C46.78 360.84 47.19 361.01 47.19 361.32C47.19 361.64 47.02 361.72 46.56 361.9C46.11 362.08 44.7 362.42 43.52 362.42C42.88 362.42 42.37 362.33 41.87 361.22ZM43.5 359.79L43.47 359.63C43.73 359.46 44.11 359.24 44.38 359.24C45.05 359.24 45.68 359.59 45.68 359.87C45.68 360.11 45.57 360.2 45.51 360.56C45.43 360.94 45.35 361.79 45.35 362.61C45.35 364.15 45.57 365.18 45.57 365.86C45.57 366.82 44.96 367.31 43.63 367.31C42.73 367.31 41.93 366.84 41.93 365.98C41.93 364.99 42.93 364.56 44.09 364.56C45.75 364.56 46.67 365.2 47.16 365.67C47.38 365.89 47.49 366.1 47.49 366.33C47.49 366.67 47.32 366.86 47.05 366.86C46.82 366.86 46.67 366.7 46.33 366.4C45.45 365.58 44.57 365.25 43.53 365.25C42.97 365.25 42.41 365.49 42.41 365.91C42.41 366.28 42.85 366.43 43.32 366.43C44.34 366.43 44.58 366.09 44.58 365.39C44.58 364.89 44.47 363.63 44.47 362.6C44.47 361.83 44.48 360.84 44.48 360.47C44.48 360.05 44.39 360.02 44.22 359.95C44.01 359.87 43.75 359.82 43.5 359.79ZM39.08 359.36L39.19 359.25C39.52 359.33 39.73 359.41 39.97 359.57C40.28 359.77 40.83 360.34 40.83 360.89C40.83 361.17 40.67 361.36 40.44 361.83C40.08 362.49 39.67 363.5 39.67 364.5C39.67 364.81 39.71 365.07 39.77 365.21C39.84 365.36 39.94 365.37 40.04 365.22C40.27 364.86 40.81 363.76 41.07 363.26L41.29 363.36C41.1 363.9 40.77 364.84 40.67 365.21C40.58 365.6 40.54 365.81 40.54 365.97C40.54 366.33 40.73 366.67 40.73 366.97C40.73 367.33 40.55 367.54 40.23 367.54C39.98 367.54 39.75 367.36 39.55 367.09C39.18 366.59 38.93 365.74 38.93 364.59C38.93 363.67 39.21 362.48 39.37 361.88C39.5 361.4 39.6 360.99 39.61 360.55C39.61 360.09 39.34 359.66 39.08 359.36ZM39.02 372.46C39.5 372.92 39.98 373.1 40.61 373.1C41.67 373.1 42.9 372.77 43.55 372.43C43.95 372.22 44.11 372.11 44.2 372.11C44.48 372.11 45.1 372.18 45.1 372.59C45.1 372.86 44.9 373.04 44.45 373.22C43.82 373.46 42.17 373.94 40.55 373.94C39.69 373.94 39.28 373.72 38.88 372.55L39.02 372.46ZM40.65 371.36V371.21C40.92 371.1 41.15 371.02 41.39 371.02C42.06 371.02 42.73 371.34 42.73 371.62C42.73 371.89 42.49 371.96 42.37 372.38C42.28 372.68 42.19 373.08 42.07 373.56C41.86 374.38 41.53 375.54 41.42 375.95C41.39 376.08 41.41 376.11 41.53 376.03C42.53 375.4 43.34 375 44.33 375C45.92 375 46.65 375.97 46.65 377.04C46.65 379.01 44.01 379.72 41.46 379.49L41.44 379.28C42.19 379.21 42.94 379.05 43.62 378.78C45.09 378.25 45.52 377.46 45.52 376.71C45.52 376.03 45.07 375.42 44.23 375.42C43.15 375.42 42 376.55 41.36 377.33C41.16 377.56 41.06 377.96 40.76 377.96C40.44 377.96 40.11 377.37 40.11 376.95C40.11 376.81 40.19 376.77 40.33 376.47C40.58 376 40.98 374.36 41.16 373.56C41.29 372.94 41.4 372.33 41.43 372C41.45 371.76 41.41 371.7 41.24 371.6C41.09 371.51 40.91 371.45 40.65 371.36ZM41.87 398.22L41.99 398.12C42.49 398.45 42.93 398.58 43.35 398.58C44.22 398.58 44.91 398.39 45.37 398.23C46.09 398.01 46.36 397.83 46.42 397.83C46.78 397.84 47.19 398.01 47.19 398.32C47.19 398.64 47.02 398.72 46.56 398.9C46.11 399.08 44.7 399.42 43.52 399.42C42.88 399.42 42.37 399.33 41.87 398.22ZM43.5 396.79L43.47 396.63C43.73 396.46 44.11 396.24 44.38 396.24C45.05 396.24 45.68 396.59 45.68 396.87C45.68 397.11 45.57 397.2 45.51 397.56C45.43 397.94 45.35 398.79 45.35 399.61C45.35 401.15 45.57 402.18 45.57 402.86C45.57 403.82 44.96 404.31 43.63 404.31C42.73 404.31 41.93 403.84 41.93 402.98C41.93 401.99 42.93 401.56 44.09 401.56C45.75 401.56 46.67 402.2 47.16 402.67C47.38 402.89 47.49 403.1 47.49 403.33C47.49 403.67 47.32 403.86 47.05 403.86C46.82 403.86 46.67 403.7 46.33 403.4C45.45 402.58 44.57 402.25 43.53 402.25C42.97 402.25 42.41 402.49 42.41 402.91C42.41 403.28 42.85 403.43 43.32 403.43C44.34 403.43 44.58 403.09 44.58 402.39C44.58 401.89 44.47 400.63 44.47 399.6C44.47 398.83 44.48 397.84 44.48 397.47C44.48 397.05 44.39 397.02 44.22 396.95C44.01 396.87 43.75 396.82 43.5 396.79ZM39.08 396.36L39.19 396.25C39.52 396.33 39.73 396.41 39.97 396.57C40.28 396.77 40.83 397.34 40.83 397.89C40.83 398.17 40.67 398.36 40.44 398.83C40.08 399.49 39.67 400.5 39.67 401.5C39.67 401.81 39.71 402.07 39.77 402.21C39.84 402.36 39.94 402.37 40.04 402.22C40.27 401.86 40.81 400.76 41.07 400.26L41.29 400.36C41.1 400.9 40.77 401.84 40.67 402.21C40.58 402.6 40.54 402.81 40.54 402.97C40.54 403.33 40.73 403.67 40.73 403.97C40.73 404.33 40.55 404.54 40.23 404.54C39.98 404.54 39.75 404.36 39.55 404.09C39.18 403.59 38.93 402.74 38.93 401.59C38.93 400.67 39.21 399.48 39.37 398.88C39.5 398.4 39.6 397.99 39.61 397.55C39.61 397.09 39.34 396.66 39.08 396.36ZM39.02 409.46C39.5 409.92 39.98 410.1 40.61 410.1C41.67 410.1 42.9 409.77 43.55 409.43C43.95 409.22 44.11 409.11 44.2 409.11C44.48 409.11 45.1 409.18 45.1 409.59C45.1 409.86 44.9 410.04 44.45 410.22C43.82 410.46 42.17 410.94 40.55 410.94C39.69 410.94 39.28 410.72 38.88 409.55L39.02 409.46ZM40.65 408.36V408.21C40.92 408.1 41.15 408.02 41.39 408.02C42.06 408.02 42.73 408.34 42.73 408.62C42.73 408.89 42.49 408.96 42.37 409.38C42.28 409.68 42.19 410.08 42.07 410.56C41.86 411.38 41.53 412.54 41.42 412.95C41.39 413.08 41.41 413.11 41.53 413.03C42.53 412.4 43.34 412 44.33 412C45.92 412 46.65 412.97 46.65 414.04C46.65 416.01 44.01 416.72 41.46 416.49L41.44 416.28C42.19 416.21 42.94 416.05 43.62 415.78C45.09 415.25 45.52 414.46 45.52 413.71C45.52 413.03 45.07 412.42 44.23 412.42C43.15 412.42 42 413.55 41.36 414.33C41.16 414.56 41.06 414.96 40.76 414.96C40.44 414.96 40.11 414.37 40.11 413.95C40.11 413.81 40.19 413.77 40.33 413.47C40.58 413 40.98 411.36 41.16 410.56C41.29 409.94 41.4 409.33 41.43 409C41.45 408.76 41.41 408.7 41.24 408.6C41.09 408.51 40.91 408.45 40.65 408.36Z" fill="#FFE0A3"/>
<path d="M46.28 469.61C46.12 469.31 45.93 468.98 45.54 468.57L45.64 468.44C46.14 468.63 46.53 468.84 46.79 469.11C46.98 469.32 47.04 469.49 47.04 469.67C47.04 469.91 46.88 470.03 46.7 470.02C46.51 470.01 46.41 469.86 46.28 469.61ZM47.09 468.86C46.92 468.61 46.67 468.27 46.25 467.92L46.35 467.78C46.89 467.95 47.27 468.08 47.55 468.33C47.78 468.52 47.86 468.74 47.84 468.9C47.84 469.11 47.73 469.27 47.51 469.26C47.34 469.26 47.24 469.08 47.09 468.86ZM39.86 469.47L39.84 469.33C40.09 469.18 40.43 469.02 40.71 469.02C41.33 469.02 42.06 469.58 42.06 469.91C42.06 470.12 41.87 470.2 41.79 470.6C41.75 470.83 41.73 471.28 41.7 471.79C41.65 472.71 41.6 473.85 41.62 474.33C41.64 475.18 41.81 475.36 42.9 475.36C44.15 475.36 45.1 475.04 45.31 475.04C45.75 475.04 46.21 475.23 46.21 475.64C46.21 475.9 46.02 476.08 45.61 476.18C45.17 476.29 44.41 476.35 43.47 476.35C41.78 476.35 40.83 476.07 40.77 474.73C40.74 474.09 40.75 473.07 40.74 472.03C40.73 471.29 40.72 470.55 40.67 470.08C40.65 469.79 40.59 469.71 40.45 469.63C40.28 469.53 40.06 469.51 39.86 469.47ZM43.36 468.61L43.34 468.47C43.61 468.28 43.91 468.12 44.16 468.12C44.78 468.12 45.5 468.65 45.5 469C45.5 469.2 45.29 469.34 45.25 469.7C45.21 470.06 45.16 470.55 45.13 471.09C45.1 471.74 45.04 472.86 44.91 473.37C44.78 473.87 44.43 474.25 43.92 474.25C43.66 474.25 43.53 474.16 43.42 473.88C43.28 473.52 42.84 473.27 42.43 473.03L42.48 472.88C42.97 473 43.51 473.11 43.7 473.11C43.92 473.11 44.03 473.09 44.11 472.8C44.18 472.48 44.23 471.57 44.24 471.14C44.25 470.63 44.28 469.61 44.24 469.06C44.23 468.88 44.13 468.78 43.93 468.72C43.75 468.66 43.58 468.64 43.36 468.61ZM41.22 472.29C39.98 472.75 39.43 473.13 39.1 473.13C38.77 473.13 38.38 472.74 38.19 472.32C38.1 472.14 38.1 471.88 38.11 471.6L38.25 471.54C38.46 471.81 38.68 471.98 38.93 471.98C39.19 471.98 40.44 471.66 41.2 471.46C42.05 471.23 43.78 470.83 44.68 470.63C45.79 470.36 46.23 470.29 46.38 470.29C46.9 470.29 47.52 470.53 47.52 471.03C47.52 471.36 47.3 471.46 46.93 471.46C46.45 471.46 46.15 471.31 45.25 471.39C44.07 471.49 42.25 471.88 41.22 472.29ZM40.65 480.36C40.8 480.69 41.03 481.01 41.29 481.01C41.66 481.01 43.25 480.63 43.55 480.5C43.78 480.39 43.85 480.28 43.98 480.28C44.46 480.28 45.25 480.98 45.25 481.39C45.25 481.68 44.87 481.73 44.65 481.86C44.17 482.15 42.39 483.75 42.06 484.09C42 484.17 42.04 484.21 42.12 484.17C42.68 483.89 43.44 483.71 44.06 483.71C45.56 483.71 46.69 484.54 46.69 485.93C46.69 487.48 45.26 488.72 41.34 488.48L41.32 488.28C44.13 487.94 45.52 486.85 45.52 485.43C45.52 484.54 44.84 484.08 43.88 484.08C42.57 484.08 41.31 485.18 40.4 486.33C40.22 486.56 40.08 486.74 39.81 486.74C39.58 486.74 39.28 486.49 39.28 486.03C39.28 485.62 39.76 485.32 40.55 484.63C41.25 484 43.22 481.93 43.56 481.45C43.73 481.21 43.69 481.11 43.44 481.17C43.07 481.26 42.34 481.59 41.92 481.84C41.76 481.92 41.61 482.09 41.37 482.09C40.96 482.09 40.4 481.46 40.38 481.08C40.36 480.85 40.44 480.57 40.52 480.37L40.65 480.36ZM41.87 506.22L41.99 506.12C42.49 506.45 42.93 506.58 43.35 506.58C44.22 506.58 44.91 506.39 45.37 506.23C46.09 506.01 46.36 505.83 46.42 505.83C46.78 505.84 47.19 506.01 47.19 506.32C47.19 506.64 47.02 506.72 46.56 506.9C46.11 507.08 44.7 507.42 43.52 507.42C42.88 507.42 42.37 507.33 41.87 506.22ZM43.5 504.79L43.47 504.63C43.73 504.46 44.11 504.24 44.38 504.24C45.05 504.24 45.68 504.59 45.68 504.87C45.68 505.11 45.57 505.2 45.51 505.56C45.43 505.94 45.35 506.79 45.35 507.61C45.35 509.15 45.57 510.18 45.57 510.86C45.57 511.82 44.96 512.31 43.63 512.31C42.73 512.31 41.93 511.84 41.93 510.98C41.93 509.99 42.93 509.56 44.09 509.56C45.75 509.56 46.67 510.2 47.16 510.67C47.38 510.89 47.49 511.1 47.49 511.33C47.49 511.67 47.32 511.86 47.05 511.86C46.82 511.86 46.67 511.7 46.33 511.4C45.45 510.58 44.57 510.25 43.53 510.25C42.97 510.25 42.41 510.49 42.41 510.91C42.41 511.28 42.85 511.43 43.32 511.43C44.34 511.43 44.58 511.09 44.58 510.39C44.58 509.89 44.47 508.63 44.47 507.6C44.47 506.83 44.48 505.84 44.48 505.47C44.48 505.05 44.39 505.02 44.22 504.95C44.01 504.87 43.75 504.82 43.5 504.79ZM39.08 504.36L39.19 504.25C39.52 504.33 39.73 504.41 39.97 504.57C40.28 504.77 40.83 505.34 40.83 505.89C40.83 506.17 40.67 506.36 40.44 506.83C40.08 507.49 39.67 508.5 39.67 509.5C39.67 509.81 39.71 510.07 39.77 510.21C39.84 510.36 39.94 510.37 40.04 510.22C40.27 509.86 40.81 508.76 41.07 508.26L41.29 508.36C41.1 508.9 40.77 509.84 40.67 510.21C40.58 510.6 40.54 510.81 40.54 510.97C40.54 511.33 40.73 511.67 40.73 511.97C40.73 512.33 40.55 512.54 40.23 512.54C39.98 512.54 39.75 512.36 39.55 512.09C39.18 511.59 38.93 510.74 38.93 509.59C38.93 508.67 39.21 507.48 39.37 506.88C39.5 506.4 39.6 505.99 39.61 505.55C39.61 505.09 39.34 504.66 39.08 504.36ZM39.02 517.46C39.5 517.92 39.98 518.1 40.61 518.1C41.67 518.1 42.9 517.77 43.55 517.43C43.95 517.22 44.11 517.11 44.2 517.11C44.48 517.11 45.1 517.18 45.1 517.59C45.1 517.86 44.9 518.04 44.45 518.22C43.82 518.46 42.17 518.94 40.55 518.94C39.69 518.94 39.28 518.72 38.88 517.55L39.02 517.46ZM40.65 516.36V516.21C40.92 516.1 41.15 516.02 41.39 516.02C42.06 516.02 42.73 516.34 42.73 516.62C42.73 516.89 42.49 516.96 42.37 517.38C42.28 517.68 42.19 518.08 42.07 518.56C41.86 519.38 41.53 520.54 41.42 520.95C41.39 521.08 41.41 521.11 41.53 521.03C42.53 520.4 43.34 520 44.33 520C45.92 520 46.65 520.97 46.65 522.04C46.65 524.01 44.01 524.72 41.46 524.49L41.44 524.28C42.19 524.21 42.94 524.05 43.62 523.78C45.09 523.25 45.52 522.46 45.52 521.71C45.52 521.03 45.07 520.42 44.23 520.42C43.15 520.42 42 521.55 41.36 522.33C41.16 522.56 41.06 522.96 40.76 522.96C40.44 522.96 40.11 522.37 40.11 521.95C40.11 521.81 40.19 521.77 40.33 521.47C40.58 521 40.98 519.36 41.16 518.56C41.29 517.94 41.4 517.33 41.43 517C41.45 516.76 41.41 516.7 41.24 516.6C41.09 516.51 40.91 516.45 40.65 516.36ZM39.42 542.57C39.42 542 39.17 541.58 38.64 541.16L38.69 541.04C38.96 541.03 39.34 541.05 39.64 541.17C40.14 541.39 40.74 541.95 40.74 542.41C40.74 542.9 40.22 543.46 40.22 544.72C40.22 545.59 40.67 546.11 40.99 546.25C41.14 546.32 41.28 546.31 41.39 546.16C41.73 545.69 42.09 545.05 42.43 544.38L42.64 544.47C42.42 545.24 42.2 546.1 42.18 546.45C42.16 547.05 42.33 547.03 42.33 547.35C42.33 547.8 41.85 548.04 41.22 547.78C40.42 547.44 39.5 546.54 39.38 544.93C39.31 544.14 39.42 543.26 39.42 542.57ZM44.09 542.14L44.14 541.97C45.2 542.03 45.79 542.38 46.38 542.93C46.99 543.49 47.26 544.34 47.26 545.11C47.26 545.74 47.05 546.08 46.57 546.08C46.36 546.08 46.14 545.96 46.06 545.69C45.94 545.27 45.97 544.72 45.68 543.88C45.43 543.14 44.89 542.5 44.09 542.14ZM39.02 553.46C39.5 553.92 39.98 554.1 40.61 554.1C41.67 554.1 42.9 553.77 43.55 553.43C43.95 553.22 44.11 553.11 44.2 553.11C44.48 553.11 45.1 553.18 45.1 553.59C45.1 553.86 44.9 554.04 44.45 554.22C43.82 554.46 42.17 554.94 40.55 554.94C39.69 554.94 39.28 554.72 38.88 553.55L39.02 553.46ZM40.65 552.36V552.21C40.92 552.1 41.15 552.02 41.39 552.02C42.06 552.02 42.73 552.34 42.73 552.62C42.73 552.89 42.49 552.96 42.37 553.38C42.28 553.68 42.19 554.08 42.07 554.56C41.86 555.38 41.53 556.54 41.42 556.95C41.39 557.08 41.41 557.11 41.53 557.03C42.53 556.4 43.34 556 44.33 556C45.92 556 46.65 556.97 46.65 558.04C46.65 560.01 44.01 560.72 41.46 560.49L41.44 560.28C42.19 560.21 42.94 560.05 43.62 559.78C45.09 559.25 45.52 558.46 45.52 557.71C45.52 557.03 45.07 556.42 44.23 556.42C43.15 556.42 42 557.55 41.36 558.33C41.16 558.56 41.06 558.96 40.76 558.96C40.44 558.96 40.11 558.37 40.11 557.95C40.11 557.81 40.19 557.77 40.33 557.47C40.58 557 40.98 555.36 41.16 554.56C41.29 553.94 41.4 553.33 41.43 553C41.45 552.76 41.41 552.7 41.24 552.6C41.09 552.51 40.91 552.45 40.65 552.36ZM39.42 572.57C39.42 572 39.17 571.58 38.64 571.16L38.69 571.04C38.96 571.03 39.34 571.05 39.64 571.17C40.14 571.39 40.74 571.95 40.74 572.41C40.74 572.9 40.22 573.46 40.22 574.72C40.22 575.59 40.67 576.11 40.99 576.25C41.14 576.32 41.28 576.31 41.39 576.16C41.73 575.69 42.09 575.05 42.43 574.38L42.64 574.47C42.42 575.24 42.2 576.1 42.18 576.45C42.16 577.05 42.33 577.03 42.33 577.35C42.33 577.8 41.85 578.04 41.22 577.78C40.42 577.44 39.5 576.54 39.38 574.93C39.31 574.14 39.42 573.26 39.42 572.57ZM44.09 572.14L44.14 571.97C45.2 572.03 45.79 572.38 46.38 572.93C46.99 573.49 47.26 574.34 47.26 575.11C47.26 575.74 47.05 576.08 46.57 576.08C46.36 576.08 46.14 575.96 46.06 575.69C45.94 575.27 45.97 574.72 45.68 573.88C45.43 573.14 44.89 572.5 44.09 572.14ZM39.02 583.46C39.5 583.92 39.98 584.1 40.61 584.1C41.67 584.1 42.9 583.77 43.55 583.43C43.95 583.22 44.11 583.11 44.2 583.11C44.48 583.11 45.1 583.18 45.1 583.59C45.1 583.86 44.9 584.04 44.45 584.22C43.82 584.46 42.17 584.94 40.55 584.94C39.69 584.94 39.28 584.72 38.88 583.55L39.02 583.46ZM40.65 582.36V582.21C40.92 582.1 41.15 582.02 41.39 582.02C42.06 582.02 42.73 582.34 42.73 582.62C42.73 582.89 42.49 582.96 42.37 583.38C42.28 583.68 42.19 584.08 42.07 584.56C41.86 585.38 41.53 586.54 41.42 586.95C41.39 587.08 41.41 587.11 41.53 587.03C42.53 586.4 43.34 586 44.33 586C45.92 586 46.65 586.97 46.65 588.04C46.65 590.01 44.01 590.72 41.46 590.49L41.44 590.28C42.19 590.21 42.94 590.05 43.62 589.78C45.09 589.25 45.52 588.46 45.52 587.71C45.52 587.03 45.07 586.42 44.23 586.42C43.15 586.42 42 587.55 41.36 588.33C41.16 588.56 41.06 588.96 40.76 588.96C40.44 588.96 40.11 588.37 40.11 587.95C40.11 587.81 40.19 587.77 40.33 587.47C40.58 587 40.98 585.36 41.16 584.56C41.29 583.94 41.4 583.33 41.43 583C41.45 582.76 41.41 582.7 41.24 582.6C41.09 582.51 40.91 582.45 40.65 582.36Z" fill="#FFE0A3"/>
</svg>
