<svg width="160" height="25" viewBox="0 0 160 25" fill="none" xmlns="http://www.w3.org/2000/svg">
<path d="M21.2524 24.3449C21.2317 24.5174 21.0524 24.607 20.7144 24.607C20.7144 24.607 20.7006 24.5967 20.673 24.5794C20.6454 24.5587 20.5937 24.5415 20.5213 24.5242C20.4833 24.4208 20.4661 24.3622 20.4661 24.3449C20.2798 24.3242 20.1902 24.1587 20.1902 23.8483C20.1902 23.3033 19.8729 22.9102 19.2383 22.6619C19.19 22.6412 19.1417 22.6239 19.0865 22.6067C19.0313 22.586 18.9762 22.5687 18.921 22.5515C18.8658 22.5136 18.7968 22.4825 18.7141 22.4549C18.6313 22.4273 18.5416 22.3928 18.4519 22.3584C18.0174 22.1825 17.7415 21.9859 17.6242 21.7652V21.2823L17.8863 21.0064C18.1967 20.8615 18.5416 20.9064 18.921 21.1444C18.9934 21.1823 19.052 21.2099 19.1003 21.2271C19.1452 21.2478 19.1762 21.2651 19.1969 21.2823C19.6108 21.2651 19.9419 21.003 20.1902 20.496V17.8886C19.9591 14.5881 19.9591 11.1495 20.1902 7.56961C20.1902 7.47994 20.1626 7.34198 20.1074 7.15575C20.0039 6.77982 19.9556 6.49356 19.9556 6.30043C19.0451 6.11764 18.2243 5.98313 17.5001 5.90036C16.7827 5.81758 16.1412 5.7762 15.5825 5.7762C15.1859 5.81414 14.8272 5.90725 14.5064 6.05211C14.3202 6.05211 14.1753 6.22455 14.065 6.56254C14.0443 6.61772 14.0305 6.66601 14.0236 6.70049C14.0132 6.73843 14.0098 6.77637 14.0098 6.81086C14.065 7.22472 14.2305 7.47994 14.5064 7.56961C15.0307 7.7455 15.7239 7.83172 16.5895 7.83172H18.921C18.921 7.83172 18.9382 7.84207 18.9762 7.85931C19.0107 7.88001 19.0658 7.9076 19.1417 7.94209C19.2417 8.05245 19.3383 8.20075 19.4314 8.38354C19.4107 8.70774 19.159 8.86638 18.6727 8.86638H15.2928C14.5823 8.86638 13.9857 8.9595 13.4994 9.14229C12.8993 9.42855 12.5337 9.48718 12.3957 9.32164C12.2647 9.14919 12.2026 8.74223 12.2026 8.10763V4.47942C12.2026 4.38975 12.2026 4.28629 12.2026 4.17592C12.2026 4.05866 12.2095 3.92416 12.2302 3.77585C12.2854 2.89294 12.1819 2.18248 11.9267 1.63756C11.9267 1.63756 11.9543 1.60307 12.0095 1.52719C12.0646 1.45477 12.1371 1.35475 12.2302 1.22369C12.2647 1.1892 12.3061 1.16506 12.3543 1.15471C12.3992 1.14782 12.4268 1.13402 12.4371 1.11333C13.3476 1.63756 14.6478 1.85138 16.3412 1.74792C16.8103 1.71343 17.1897 1.68584 17.4863 1.66515C17.7898 1.6479 17.9967 1.63756 18.1071 1.63756C18.7761 1.63756 19.2003 1.4996 19.3762 1.22369C19.3935 1.20645 19.4038 1.1892 19.4038 1.16851C19.4038 1.15127 19.4107 1.13402 19.4314 1.11333C20.0281 0.527019 20.5902 0.55461 21.1145 1.1961C21.149 1.23404 21.1765 1.26508 21.1972 1.29267C21.2145 1.32026 21.2317 1.35475 21.2524 1.38924C21.3973 1.46511 21.4869 1.5065 21.5145 1.5134C21.549 1.52374 21.6249 1.57548 21.7353 1.66515C21.7698 1.68584 21.8525 1.75482 21.9836 1.87208C22.1112 1.98244 22.1836 2.04797 22.2043 2.06522L22.2733 2.17558C22.3457 2.17558 22.4043 2.22386 22.4526 2.31353C22.4975 2.40665 22.5216 2.48598 22.5216 2.54806V2.68601C22.0146 3.30336 21.818 4.26904 21.9284 5.58306C21.9836 6.23835 22.0112 6.64531 22.0112 6.81086C21.9905 6.98675 21.9698 7.34198 21.9422 7.87311C21.9146 8.40769 21.8905 9.1216 21.8732 10.0114C21.8732 10.3528 21.8629 10.6667 21.8456 10.9495C21.8249 11.2254 21.7973 11.4806 21.7629 11.7083C21.5766 12.3256 21.6594 13.1844 22.0112 14.288C22.0112 16.3849 21.8456 19.4855 21.5145 23.5862C21.4938 23.9241 21.4076 24.1794 21.2524 24.3449ZM2.06291 23.6551C1.95255 24.0207 1.60076 24.207 1.01445 24.207C0.738545 24.207 0.455738 24.0759 0.17293 23.8207C0.00738428 23.6275 -0.0408995 23.4551 0.0349752 23.3102C0.0522194 23.0895 0.107401 21.6686 0.200521 19.0474C0.290192 16.4194 0.41435 12.5739 0.572999 7.51443C0.628181 5.96244 0.676465 4.67946 0.724749 3.66549C0.769584 2.65497 0.810971 1.89622 0.848908 1.38924C0.866153 1.08574 0.948925 0.916742 1.09723 0.878804H1.63525C2.51816 1.70653 3.6356 2.14109 4.98755 2.17558C5.11516 2.14109 5.25656 2.1135 5.41521 2.09281C5.58076 2.07556 5.78079 2.05832 6.02221 2.03762C6.93961 1.94795 7.61559 1.73068 8.05015 1.38924L8.32606 1.11333C8.75717 0.699463 9.18138 0.699463 9.59524 1.11333C10.2298 1.73068 10.592 2.24456 10.6851 2.65842C10.7403 2.93433 10.7299 3.20679 10.6575 3.47235C10.5816 4.03452 10.4988 4.89329 10.4092 6.05211C10.3161 7.25921 10.2367 8.11453 10.1747 8.61807C9.8608 9.47339 9.4228 9.78378 8.86408 9.54236C8.75372 9.50787 8.66405 9.45269 8.60197 9.37682C8.16051 9.20437 7.62939 9.08366 7.01549 9.01813C6.40849 8.95606 5.70492 8.9595 4.90478 9.03193C4.45298 9.06987 4.06326 9.09746 3.73216 9.1147C3.40107 9.1354 3.13206 9.14229 2.93203 9.14229C2.53541 9.14229 2.28364 9.46649 2.17327 10.108C2.15258 10.1632 2.14568 10.2183 2.14568 10.2735C2.14568 10.3287 2.14568 10.377 2.14568 10.4115C2.14568 11.6255 2.12154 12.7084 2.07671 13.6534C2.02842 14.6019 1.96634 15.4158 1.88357 16.0952C1.88357 16.2435 1.90426 16.6194 1.95255 17.2264C2.00773 17.8334 2.0974 18.6715 2.22846 19.7372C2.37331 21.034 2.4009 21.9997 2.31123 22.6343C2.27329 23.1585 2.19052 23.4965 2.06291 23.6551ZM14.7685 4.47942C15.7618 4.66566 16.6447 4.79672 17.4173 4.87949C18.1967 4.95537 18.8693 4.98986 19.4314 4.98986C19.7798 4.81741 19.9556 4.5622 19.9556 4.2311C19.9556 3.40338 19.7798 2.92743 19.4314 2.79638C19.2728 2.72395 19.021 2.68601 18.6727 2.68601C16.9965 2.99986 15.817 3.09988 15.1272 2.98951C15.0514 2.97227 14.9893 2.96192 14.9341 2.96192C14.8789 2.96192 14.8237 2.95502 14.7685 2.93433C14.4099 2.93433 14.165 3.13436 14.0374 3.52754C14.0167 3.58272 14.0098 3.6379 14.0098 3.69308C14.027 4.18282 14.2788 4.44493 14.7685 4.47942ZM3.41487 4.98986H7.84322C8.31226 4.97261 8.56403 4.63117 8.60197 3.96899C8.60197 3.38958 8.46401 3.06539 8.1881 2.98951C8.13292 2.97227 8.07774 2.95847 8.02256 2.94813C7.96738 2.94123 7.9053 2.93433 7.84322 2.93433C6.79476 2.93433 5.87736 2.95847 5.09792 3.00331C4.32537 3.05159 3.67698 3.12057 3.15275 3.21024C2.94927 3.21024 2.80097 3.42752 2.7113 3.85863C2.69061 3.9345 2.67681 4.00348 2.66991 4.06556C2.65956 4.12074 2.65612 4.17592 2.65612 4.2311C2.65612 4.52771 2.80097 4.75188 3.09757 4.90708C3.20794 4.96227 3.3114 4.98986 3.41487 4.98986ZM3.15275 7.83172H7.56731C7.98117 7.83172 8.22259 7.75585 8.29847 7.5972C8.31571 7.56271 8.32606 7.51443 8.32606 7.45925C8.32606 7.40406 8.32606 7.35923 8.32606 7.32129C8.32606 6.66946 8.18121 6.25559 7.8984 6.0797C7.87771 6.06245 7.86046 6.05211 7.84322 6.05211H6.53265C6.53265 6.05211 6.37055 6.06245 6.0498 6.0797C5.72561 6.10039 5.24967 6.12798 4.61507 6.16247C4.09085 6.16247 3.69078 6.12798 3.41487 6.05211C2.75268 5.86932 2.41125 6.21076 2.394 7.07297C2.20776 7.56961 2.46298 7.82483 3.15275 7.83172ZM7.56731 20.7305C7.36382 20.9719 7.09136 21.0167 6.75337 20.8684C6.6775 20.834 6.60507 20.7857 6.53265 20.7305C6.22915 20.6305 6.0498 20.3787 5.99462 19.9717C6.33261 18.9992 6.43608 18.2577 6.29812 17.7507C6.27743 17.7334 6.27053 17.6955 6.27053 17.6403C6.32571 17.3196 6.3533 16.8609 6.3533 16.2608C6.3533 15.6641 6.33261 14.9226 6.29812 14.0397C6.27743 13.8466 6.27053 13.6603 6.27053 13.4741C6.27053 13.2913 6.27053 13.1292 6.27053 12.9912V11.9842C6.27053 11.9117 6.205 11.6945 6.07739 11.3358C6.02221 11.0806 6.08429 10.8633 6.27053 10.6874C6.60852 10.5046 7.04308 10.6736 7.56731 11.1978C8.3571 11.8531 9.47798 12.1428 10.9334 12.0669C11.43 12.0324 11.8025 12.0083 12.0508 11.998C12.3061 11.9911 12.4371 11.9842 12.4371 11.9842C12.713 11.9497 12.9751 11.7703 13.2235 11.4461C13.4994 10.9426 13.8615 10.7495 14.3133 10.8667C14.3685 10.8874 14.4306 10.915 14.5064 10.9495C15.0858 11.1357 15.6963 11.5634 16.3412 12.2325C16.3205 12.5567 16.2343 12.7257 16.0791 12.7429C15.748 13.0671 15.5997 13.5431 15.6377 14.1776C15.6549 14.5363 15.6377 14.826 15.5825 15.0468V19.1854C15.5825 19.3337 15.5032 19.6131 15.348 20.0269C15.31 20.1373 15.2928 20.2028 15.2928 20.2201C15.2928 20.2959 15.2238 20.3546 15.0858 20.3994C14.9479 20.4477 14.8168 20.4787 14.6996 20.496H14.5064C14.2098 20.0649 14.0443 19.8027 14.0098 19.7096C13.796 19.0957 13.3373 18.7577 12.6302 18.7026C12.5544 18.6853 12.4819 18.675 12.4095 18.675C12.344 18.675 12.275 18.675 12.2026 18.675H10.1747C9.22621 18.675 8.60197 18.8267 8.29847 19.1302C8.16741 19.2613 8.06739 19.4165 7.99497 19.5993C7.92944 19.7752 7.87771 19.9821 7.84322 20.2201C7.84322 20.2201 7.83287 20.2477 7.81563 20.3028C7.79493 20.358 7.76734 20.4408 7.73285 20.5512C7.69491 20.5994 7.63973 20.6581 7.56731 20.7305ZM11.7611 17.6955C12.8441 17.7714 13.4718 17.7438 13.6373 17.6127C13.8029 17.4955 13.9029 17.0333 13.9408 16.2332C13.9477 15.6917 13.9719 15.2226 14.0098 14.826V14.0121C14.0098 13.6362 13.7649 13.3913 13.2786 13.2809C13.2407 13.2637 13.1959 13.2533 13.1407 13.2533C13.0924 13.2533 13.051 13.2533 13.0165 13.2533H10.1747C9.24346 13.1361 8.69164 13.1361 8.51919 13.2533C8.35365 13.4016 8.195 13.9259 8.05015 14.826C8.05015 16.1332 8.13292 16.9091 8.29847 17.1575C8.48126 17.4541 9.04342 17.6127 9.98152 17.6403H10.9058C11.0058 17.661 11.13 17.6679 11.2783 17.6679C11.4231 17.6679 11.5852 17.6782 11.7611 17.6955Z" fill="black"/>
<path d="M39.9192 23.535C39.495 23.9489 39.1605 24.1351 38.9122 24.1006C38.8742 24.08 38.8294 24.0662 38.7742 24.0593C38.719 24.0489 38.6707 24.0351 38.6362 24.0179C37.9361 23.7592 37.4947 23.4695 37.3119 23.1488C37.2912 23.0729 37.2705 23.0005 37.2429 22.928C37.2153 22.8625 37.1808 22.7935 37.1463 22.7211C37.1463 22.6452 37.2015 22.5452 37.3119 22.4176C37.3671 22.3624 37.3947 22.3072 37.3947 22.2521L37.712 22.0175C37.7671 21.9968 37.8223 21.9899 37.8775 21.9899C38.2707 22.0451 38.7949 22.0589 39.4502 22.0313C40.102 22.0037 40.878 21.9417 41.7816 21.852C42.1748 21.814 42.5335 21.7865 42.8577 21.7692C43.1888 21.7485 43.4785 21.7416 43.7268 21.7416C44.2303 21.9244 44.6131 21.7968 44.8718 21.3553C44.9442 21.2381 44.9822 21.1139 44.9822 20.9829V19.9482C44.8166 18.9377 44.451 18.3548 43.8923 18.1962C43.5681 18.1065 43.1646 18.1065 42.6783 18.1962C42.1713 18.2169 41.7575 18.2927 41.4367 18.4307C41.0677 18.5962 40.5607 18.5204 39.9192 18.1962C39.7537 17.9961 39.6709 17.7409 39.6709 17.4374C39.6709 17.1995 39.7951 17.0339 40.0434 16.9408C40.0606 16.9235 40.0986 16.9132 40.1538 16.9132H43.9475C44.489 16.9132 44.7959 16.8373 44.8718 16.6787C44.9442 16.5338 44.9822 16.2786 44.9822 15.9199C45.1374 15.7199 45.2167 15.4578 45.2167 15.1336C45.2063 14.6852 44.9546 14.4404 44.4579 14.4024C43.1232 14.4024 42.1162 14.5645 41.4367 14.8853C40.9573 15.3543 40.5676 15.475 40.2641 15.2439L39.9192 14.8853C39.8813 14.7956 39.7261 14.6232 39.4502 14.3748C39.257 14.1369 39.1605 13.8851 39.1605 13.6161C39.1605 13.416 39.4985 13.2677 40.1813 13.1746C40.271 13.1574 40.3607 13.147 40.4435 13.147C40.5262 13.147 40.6021 13.147 40.678 13.147C41.6333 13.2781 42.2438 13.2677 42.5128 13.1194C42.7887 12.9815 43.1612 12.478 43.6302 11.6019C43.6647 11.5019 43.6992 11.4226 43.7268 11.3674C43.8923 10.9536 43.7578 10.657 43.3267 10.4707C43.2508 10.4362 43.1888 10.4086 43.1336 10.3879C43.0784 10.3707 43.0129 10.3535 42.9404 10.3328C42.4438 10.0844 41.7678 10.0844 40.9125 10.3328C40.8366 10.3328 40.747 10.3466 40.6366 10.3741C40.5331 10.4017 40.4021 10.4362 40.2365 10.4707C39.7295 10.6363 39.3709 10.6742 39.1605 10.5811C39.0294 11.595 38.7777 12.8297 38.4017 14.2921C38.0327 15.7544 37.5602 17.4512 36.9808 19.3826C36.8601 19.8344 36.7463 20.2379 36.6359 20.5966C36.5255 20.9484 36.4324 21.2381 36.36 21.4657C36.3221 21.5588 36.2807 21.6726 36.2358 21.8106C36.1876 21.9485 36.1324 22.1037 36.0703 22.2796C35.9772 22.5349 35.8909 22.7659 35.8082 22.9694C35.7254 23.1798 35.6633 23.3695 35.6288 23.535C35.1943 23.8178 34.9253 23.9799 34.8149 24.0179C34.7942 24.0179 34.7632 24.0213 34.7183 24.0317C34.6804 24.0386 34.6356 24.0524 34.5804 24.0731C34.4321 24.1075 34.3493 24.0903 34.3321 24.0179L34.0837 23.535C34.7908 21.852 35.3874 20.1517 35.8772 18.4307C36.9601 13.7402 37.3843 9.36363 37.1463 5.29741C37.1463 5.20774 37.1394 5.09738 37.1325 4.96632C37.1222 4.82837 37.1084 4.68696 37.0912 4.53866C37.0153 4.01443 37.036 3.58332 37.1463 3.24189C37.1084 2.53487 36.8463 1.94511 36.36 1.47606C36.2841 1.40364 36.2496 1.32087 36.2496 1.22775C36.2496 1.15532 36.2669 1.10014 36.3048 1.0622L36.36 0.993223C36.56 0.793189 36.8221 0.689723 37.1463 0.689723H37.643C38.4707 1.21395 39.733 1.47606 41.4367 1.47606C42.7887 1.15532 44.6821 1.13808 47.1205 1.42088C47.1756 1.44158 47.2377 1.44847 47.3136 1.44847C47.386 1.44847 47.455 1.45882 47.5205 1.47606C49.4036 1.47606 51.0039 1.14152 52.3214 0.468995C53.425 -0.0345391 54.3631 0.300001 55.1356 1.47606C55.1356 1.53125 55.1632 1.62782 55.2184 1.76577C55.2357 1.89683 55.2081 1.95891 55.1356 1.95891C54.6114 2.48313 54.339 3.30741 54.3217 4.4283V4.75939C54.2838 4.82492 54.2458 4.92148 54.2113 5.04909C54.1838 5.18015 54.1493 5.3181 54.1148 5.46296C54.0389 5.84233 53.9561 6.11134 53.8665 6.27689C53.5802 6.74594 53.225 7.00115 52.8042 7.03564C51.8109 6.539 50.3762 6.34587 48.5 6.45623C47.4136 6.51141 46.7376 6.539 46.4721 6.539C46.2514 6.539 45.1201 6.62178 43.0784 6.78732C42.0299 6.8632 41.1367 6.8632 40.4021 6.78732C39.8399 6.78732 39.5226 6.98736 39.4502 7.38053C39.4295 7.4564 39.4226 7.52538 39.4226 7.58746C39.4226 7.65299 39.4226 7.72541 39.4226 7.80819C39.1915 8.21515 39.2088 8.51176 39.4778 8.70489C39.5123 8.72559 39.5502 8.74283 39.5881 8.76008C39.6226 8.78077 39.6502 8.79801 39.6709 8.81526C39.7261 8.81526 39.9951 8.89113 40.4848 9.03598C40.5745 9.05668 40.6504 9.07047 40.7056 9.07737C40.7676 9.08772 40.8366 9.09117 40.9125 9.09117H49.0104C50.2244 9.05668 51.1556 8.71179 51.8109 8.05651C52.0765 7.60815 52.4904 7.52538 53.0525 7.80819C53.1422 7.88406 53.3043 7.99443 53.5354 8.13928C53.8458 8.32552 54.0389 8.45658 54.1148 8.53935C54.5631 9.04633 54.7528 9.50158 54.6804 9.9051C54.6425 10.0086 54.6149 10.0672 54.5976 10.0844C54.3286 10.3259 54.0217 10.3535 53.6733 10.1672L53.5905 10.0844H50.8039C50.5176 10.0844 50.3555 10.1879 50.321 10.3879C50.3003 10.4431 50.2934 10.5087 50.2934 10.5811C50.2934 10.5811 50.3003 10.6087 50.321 10.6639C50.3383 10.719 50.3659 10.7984 50.4038 10.8984C50.4383 10.9536 50.4797 11.0087 50.528 11.0639C50.5624 11.1191 50.6556 11.2571 50.8039 11.4778C50.9487 11.6916 51.166 11.9744 51.4522 12.3331C51.5247 12.4262 51.5937 12.5193 51.6592 12.609C51.7213 12.7021 51.773 12.7849 51.8109 12.8573C51.9834 13.0505 52.1351 13.2367 52.2662 13.4092C52.3938 13.585 52.4938 13.7402 52.5697 13.8782C52.8352 14.1541 52.8077 14.5093 52.4869 14.9404C52.449 14.9956 52.3938 15.0612 52.3214 15.1336C52.1903 15.4026 51.9213 15.4095 51.5074 15.1612C51.3764 15.0888 51.2764 15.0301 51.2039 14.9818C51.1384 14.937 51.0867 14.906 51.0522 14.8853C50.9039 14.8128 50.6521 14.5404 50.2934 14.0713C50.0899 13.8437 49.9244 13.692 49.7968 13.6161H49.2864C49.2312 13.6368 49.0553 13.6782 48.7621 13.7402C48.4759 13.7954 48.0724 13.8782 47.5481 13.9886C47.4447 14.0093 47.3481 14.0265 47.2584 14.0437C47.1653 14.0644 47.0722 14.092 46.9825 14.1265C46.9998 14.2196 47.0722 14.3714 47.2032 14.5818C47.4688 15.1439 47.5343 15.5992 47.3964 15.9475C47.3757 15.9855 47.3584 16.0234 47.3412 16.0579C47.3205 16.0855 47.3033 16.12 47.286 16.1545C47.0998 16.4511 47.2446 16.7408 47.7137 17.0236C47.9137 17.1339 48.093 17.1891 48.2517 17.1891C48.6 17.1891 48.9829 17.0201 49.3967 16.6787C49.5416 16.5683 49.6761 16.4786 49.7968 16.4028C50.7901 15.9165 51.5385 15.8165 52.0455 16.0993C52.211 16.1924 52.3696 16.3338 52.5283 16.5269C52.6938 16.7201 52.8663 16.9408 53.0525 17.1891C53.0318 17.6582 52.9491 17.9134 52.8042 17.9479C51.8109 18.1134 50.2934 18.1962 48.2517 18.1962C48.0379 18.2721 47.8275 18.3962 47.6171 18.5687C47.4136 18.7342 47.2584 18.8825 47.1481 19.0101L46.9825 19.217C46.6031 20.6345 46.6411 21.4864 47.0929 21.7692C47.3412 21.9141 47.8999 21.9899 48.7759 21.9899C48.7759 21.9899 48.8484 21.9796 48.9967 21.9623C49.1519 21.9417 49.376 21.9141 49.6726 21.8796C49.8451 21.8968 49.9692 21.9348 50.0451 21.9899C51.1281 21.9899 51.9247 21.7175 52.4317 21.176C52.5766 21.0312 52.7007 20.8725 52.8042 20.707C53.1146 20.2931 53.7423 20.4862 54.6804 21.2864C55.1839 21.683 55.4943 22.0037 55.6047 22.2521C55.9254 22.5452 56.0117 22.7901 55.8668 22.9832C55.6737 23.3488 55.4288 23.535 55.1356 23.535C52.8628 23.066 50.49 22.9625 48.0172 23.2315H41.1884C40.4779 23.266 40.0572 23.3695 39.9192 23.535ZM39.4226 4.75939C39.4398 5.40433 39.7675 5.74576 40.4021 5.78025C42.2783 5.78025 43.6302 5.69748 44.4579 5.53193C44.7683 5.53193 45.1546 5.52504 45.6168 5.50434C46.0755 5.47675 46.6238 5.44571 47.2584 5.40778C47.893 5.37329 48.4448 5.3457 48.9139 5.325C49.3829 5.30776 49.7589 5.29741 50.0451 5.29741H51.0522C51.7868 5.29741 52.1558 5.11117 52.1558 4.7318C52.1558 4.58694 52.1282 4.4283 52.073 4.26275V3.75232C52.073 2.95218 52.011 2.50383 51.8937 2.40036C51.7626 2.29 51.4005 2.23482 50.8039 2.23482C49.4519 2.40036 46.2445 2.48313 41.1884 2.48313C40.1744 2.67627 39.5881 3.03495 39.4226 3.55918C39.3295 3.87303 39.3295 4.2731 39.4226 4.75939ZM45.4926 13.147H45.7409C45.8133 13.1125 45.9823 13.0643 46.2514 13.0091C46.5273 12.947 46.8997 12.8504 47.3688 12.7194C47.4309 12.7021 47.4964 12.6849 47.5619 12.6642C47.624 12.647 47.693 12.6297 47.7689 12.609C48.669 12.4642 49.1656 12.3193 49.2588 12.1814C49.3691 11.9434 49.1243 11.4088 48.5276 10.5811C47.893 10.0017 47.3412 9.88441 46.8721 10.2224C46.8342 10.2431 46.7894 10.2776 46.7342 10.3328C46.1065 10.5535 45.5961 10.9949 45.2029 11.6571C45.165 11.733 45.127 11.8054 45.0925 11.8779C45.0546 11.9537 45.0167 12.0262 44.9822 12.0986C44.7959 12.4952 44.8442 12.8125 45.1201 13.0505C45.2374 13.116 45.3615 13.147 45.4926 13.147Z" fill="black"/>
<path d="M86.6664 24.1763C86.5181 24.4419 86.1559 24.6212 85.5765 24.7143C85.2351 24.6936 85.1489 24.3074 85.3144 23.5555C85.3316 23.4796 85.342 23.421 85.342 23.3762C85.342 23.3279 85.342 23.2968 85.342 23.2796C85.342 22.3036 85.2592 21.7276 85.0937 21.5414C84.9454 21.331 84.4108 21.0965 83.4934 20.8378H83.4658L83.4382 20.8102H83.4106C83.3175 20.7757 83.2037 20.7378 83.0657 20.6998C82.9347 20.6654 82.7795 20.6309 82.5967 20.6033C81.8793 20.4032 81.4103 20.1894 81.1895 19.9687V19.2651C81.2447 19.1754 81.2999 19.1134 81.3551 19.0858C81.5931 18.8306 81.9104 18.7926 82.307 18.9754C82.4449 19.0513 82.5312 19.1099 82.5691 19.1547C82.9726 19.1547 83.6348 19.3134 84.5556 19.6238C84.666 19.6617 84.735 19.6893 84.7626 19.7066H85.342V18.865C85.2489 17.7993 85.2178 16.5302 85.2454 15.0575C85.273 13.5883 85.373 11.8949 85.5489 9.98076C85.5662 9.8359 85.58 9.71864 85.5903 9.63587C85.5972 9.5531 85.6041 9.50481 85.6041 9.48412C85.8421 8.49084 85.8421 7.48033 85.6041 6.44911C85.6041 6.07319 85.4144 5.85591 85.0385 5.80073C84.9454 5.78348 84.8522 5.78693 84.7626 5.81452C84.6798 5.84211 84.5901 5.8766 84.5005 5.91109C82.983 5.91109 81.8241 6.18355 81.024 6.72502C80.7377 7.1044 80.6032 8.0218 80.6239 9.48412C80.6239 9.8359 80.6101 10.2532 80.5825 10.7395C80.555 11.2292 80.5205 11.8018 80.486 12.4639C80.448 13.0434 80.4205 13.5503 80.4032 13.9814C80.3825 14.416 80.3756 14.7609 80.3756 15.0161C80.3549 15.054 80.3273 15.1472 80.2928 15.292C80.2549 15.43 80.2239 15.6197 80.1963 15.8576C80.1032 16.1266 79.9755 16.306 79.81 16.3957C79.2478 16.5819 78.8443 16.4888 78.596 16.1197C78.5753 16.0922 78.5546 16.0508 78.527 15.9956C78.4994 15.9404 78.4649 15.8956 78.4305 15.8576C78.2649 15.5093 78.0028 15.3196 77.6441 15.292H77.3406C76.944 15.3403 76.3646 15.361 75.6024 15.361C74.8471 15.361 73.909 15.3472 72.7881 15.3196C72.5018 15.3024 72.2294 15.292 71.9742 15.292C71.7259 15.292 71.4913 15.292 71.2706 15.292C70.8188 15.292 70.5256 15.361 70.3877 15.4989C70.2773 15.63 70.1118 15.9266 69.8911 16.3957C69.8911 16.3957 69.8911 16.4336 69.8911 16.506C69.8911 16.5819 69.8807 16.6923 69.8635 16.8371C69.7048 17.2165 69.3461 17.3475 68.7874 17.2372C68.5287 17.2372 68.3529 17.1061 68.2632 16.8371C68.2425 16.7819 68.2356 16.7267 68.2356 16.6716C68.3253 16.2025 68.3942 15.6197 68.4425 14.9195C68.4874 14.2229 68.5115 13.4227 68.5115 12.5191C68.8874 10.6809 69.0771 7.83901 69.0771 3.99352C69.0771 3.81073 68.9978 3.52102 68.8426 3.1244C68.8219 3.06922 68.8081 3.02094 68.8012 2.97265C68.7909 2.92782 68.7874 2.89678 68.7874 2.87609C68.7874 2.76572 68.7391 2.57948 68.6495 2.31047C68.5391 1.93454 68.5839 1.67243 68.7874 1.52413C69.015 1.18614 69.2703 1.13786 69.5462 1.38617C69.8497 1.65519 70.0566 1.78624 70.167 1.78624C70.5429 1.97248 71.1913 2.06215 72.1121 2.06215H75.3954C77.0578 2.38635 78.2132 2.07595 78.8581 1.13786C78.8754 1.10337 78.8926 1.06888 78.9133 1.04129C78.9305 1.0068 78.9478 0.979208 78.9685 0.958514C79.2789 0.703298 79.5962 0.665361 79.9204 0.848151C79.9755 0.868844 80.0307 0.903332 80.0859 0.958514C80.7481 1.6207 81.1137 2.00697 81.1895 2.11733C81.5482 2.58638 81.7276 3.12096 81.7276 3.71761C81.7448 4.24184 82.0242 4.52464 82.5691 4.55913H86.9836C87.294 4.55913 87.7424 4.3522 88.3218 3.93834C88.4943 3.81073 88.6564 3.70037 88.8047 3.60725C88.9495 3.51758 89.0806 3.45205 89.1909 3.41411C89.66 3.00024 90.198 3.10371 90.805 3.71761C91.0602 3.94868 91.3223 4.56948 91.5913 5.58C91.6086 5.65587 91.6224 5.71795 91.6327 5.77314C91.6396 5.82832 91.6465 5.8766 91.6465 5.91109C91.5706 6.00421 91.4154 6.07319 91.1775 6.11802C90.9464 6.16631 90.7429 6.187 90.5705 6.187L90.267 6.21459C89.0806 5.90419 88.3391 5.8835 88.0459 6.15941C87.8424 6.35255 87.6734 6.83194 87.5355 7.59414C87.332 7.99076 87.232 8.34944 87.232 8.67019C87.2665 9.10474 87.2871 9.74278 87.2871 10.5878C87.2871 11.4258 87.2596 12.4605 87.2044 13.6917C87.1837 14.3539 87.1768 14.9575 87.1768 15.4989C87.1768 16.0439 87.194 16.5198 87.232 16.9337C87.232 17.8269 87.1837 18.8237 87.094 19.9273C87.0112 21.024 86.8767 22.2311 86.6939 23.5555C86.6939 23.9314 86.6836 24.1384 86.6664 24.1763ZM71.8224 7.29064H72.6639C73.1675 7.27339 73.4365 6.99404 73.4641 6.44911C73.5917 6.23873 73.6089 5.92489 73.5193 5.51102C73.4986 5.42135 73.4848 5.34203 73.4779 5.2765C73.4675 5.21442 73.4641 5.15234 73.4641 5.09716C73.74 3.54517 73.2709 2.95541 72.0569 3.33134L71.8224 3.41411C71.581 3.54517 71.4086 3.64173 71.2982 3.70381C71.1947 3.76934 71.1464 3.80038 71.1464 3.80038C71.0361 3.93144 70.9809 4.08319 70.9809 4.25563C70.8153 4.63501 70.7326 5.18683 70.7326 5.91109C70.5463 6.6388 70.6567 7.06991 71.0637 7.20787C71.2568 7.26305 71.5086 7.29064 71.8224 7.29064ZM77.0509 7.59414H78.1545C78.5201 7.59414 78.7822 7.42169 78.9409 7.06991C78.9581 7.06301 78.9685 7.04922 78.9685 7.02852C78.9685 6.90092 78.9719 6.74572 78.9823 6.55948C78.9892 6.36634 79.003 6.15251 79.0237 5.91109C79.0581 5.40756 79.0788 4.973 79.0788 4.61432C79.0788 4.24874 79.0409 3.94868 78.9685 3.71761C78.7546 3.39687 78.2684 3.2865 77.5062 3.38652C77.2027 3.42446 76.9405 3.4486 76.7198 3.4555C76.506 3.46584 76.3473 3.45205 76.237 3.41411C76.1266 3.31409 75.9093 3.30375 75.5886 3.38652C75.5334 3.40721 75.4679 3.41411 75.3954 3.41411C75.154 3.65553 75.1092 4.11078 75.2575 4.77986C75.292 4.973 75.3265 5.14544 75.3541 5.29029C75.3817 5.4386 75.3954 5.55241 75.3954 5.63518C75.3954 6.43532 75.5748 6.95955 75.9335 7.20787C76.0611 7.28374 76.2128 7.35272 76.3887 7.4148C76.5715 7.48033 76.7922 7.53896 77.0509 7.59414ZM70.9809 13.8987C72.6088 14.6816 73.4365 14.1332 73.4641 12.257V9.222C73.4641 9.222 73.3951 9.02887 73.2571 8.64259C73.2365 8.58741 73.2227 8.54258 73.2158 8.50464C73.2054 8.4598 73.202 8.42877 73.202 8.40807C73.1088 8.40807 72.995 8.40462 72.8571 8.39428C72.726 8.38738 72.5812 8.37358 72.4156 8.35289C71.8362 8.28046 71.3568 8.29771 70.9809 8.40807C70.8153 8.56672 70.7326 8.71847 70.7326 8.86332V8.9461C70.6774 9.2496 70.5429 10.3463 70.3325 12.2294C70.2773 12.626 70.2221 13.002 70.167 13.3606C70.1842 13.6848 70.4567 13.8642 70.9809 13.8987ZM75.9611 14.2022H77.3406C77.9545 14.2022 78.3097 13.9676 78.4029 13.4986C78.4201 13.4262 78.4305 13.3572 78.4305 13.2917C78.4305 13.2296 78.4305 13.1606 78.4305 13.0847C78.5201 12.7088 78.5891 12.226 78.6374 11.6362C78.6926 11.0396 78.7202 10.3222 78.7202 9.48412C78.7098 9.16337 78.6132 8.98403 78.4305 8.9461C77.6027 8.42187 76.7681 8.37703 75.9335 8.80814C75.8783 8.82883 75.799 8.87367 75.6989 8.9461C75.3127 9.13233 75.1195 9.69105 75.1195 10.6291V13.3606C75.1368 13.6193 75.4161 13.8987 75.9611 14.2022Z" fill="black"/>
<path d="M103.164 9.57611C102.508 9.74166 102.018 9.67958 101.687 9.38298C101.439 9.17259 101.556 8.98291 102.046 8.81736C102.063 8.80012 102.091 8.78977 102.129 8.78977C103.719 8.41384 107.081 6.07206 112.213 1.76787C112.313 1.66786 112.42 1.58163 112.531 1.50576C112.713 1.50576 112.862 1.45058 112.972 1.34021L113.041 1.25744C113.058 1.22295 113.082 1.17467 113.11 1.11949C113.138 1.0643 113.158 1.00567 113.179 0.940145C113.345 0.536627 113.541 0.302104 113.772 0.236575C113.827 0.219331 113.883 0.208984 113.938 0.208984C113.993 0.208984 114.048 0.208984 114.103 0.208984C114.496 0.229677 115.021 0.578014 115.676 1.25744V1.76787C115.262 2.19208 115.386 2.63699 116.048 3.10603C116.138 3.16122 116.276 3.24054 116.462 3.34056C116.552 3.39574 116.621 3.44402 116.669 3.47851C116.724 3.51645 116.769 3.54404 116.807 3.56128C118.001 4.5925 120.229 5.55818 123.484 6.45833C124.008 6.58939 124.464 6.69976 124.85 6.78943C125.236 6.88255 125.56 6.94807 125.829 6.98256C125.995 7.00326 126.078 7.17225 126.078 7.493C126.078 7.96204 125.816 8.4035 125.291 8.81736C124.912 9.07603 124.574 9.1588 124.271 9.06568C123.774 8.92083 122.932 8.538 121.746 7.92066C121.67 7.88617 121.601 7.85858 121.539 7.83788C121.474 7.81029 121.422 7.7896 121.387 7.7689C121.101 7.6413 120.522 7.31365 119.649 6.78943C118.783 6.2652 117.628 5.54438 116.186 4.62354C115.117 3.93376 114.462 3.54404 114.214 3.45092C114.138 3.45092 113.983 3.33711 113.745 3.10603C113.641 2.97843 113.545 2.9129 113.455 2.9129C113.196 2.9129 112.841 3.11293 112.393 3.5061C112.355 3.5268 112.317 3.55439 112.282 3.58888C110.572 4.96153 109.265 5.91686 108.364 6.45833C107.316 7.20329 106.354 7.83443 105.481 8.34831C104.615 8.86564 103.843 9.27261 103.164 9.57611ZM122.96 24.1855C122.691 24.6339 122.26 24.7132 121.663 24.42C121.57 24.3373 121.322 24.1476 120.918 23.8544C120.511 23.5682 119.939 23.1716 119.194 22.668C117.638 21.5471 116.566 20.4332 115.98 19.3295C115.959 19.3123 115.952 19.295 115.952 19.2743C115.952 19.2571 115.942 19.2398 115.924 19.2191C115.683 18.7501 115.407 18.2811 115.097 17.812C114.793 17.343 114.462 16.867 114.103 16.3773C113.855 15.891 113.42 15.6289 112.807 15.5909C112.731 15.5909 112.644 15.5909 112.544 15.5909C112.441 15.5909 112.324 15.584 112.186 15.5633C111.275 15.4909 110.603 15.584 110.172 15.8393C110.172 15.9496 110.092 16.5359 109.937 17.5913C109.861 18.2086 109.861 18.7501 109.937 19.2191C110.203 19.9848 110.723 20.2469 111.496 20.0055C111.606 19.9331 111.834 19.7261 112.186 19.3847C112.469 19.1191 112.755 18.9777 113.041 18.957C113.565 18.995 113.917 19.0812 114.103 19.2191C114.083 19.5502 113.914 19.8124 113.593 20.0055C113.186 20.3366 112.234 20.8608 110.737 21.5782C110.341 21.761 109.985 21.9403 109.675 22.1162C109.371 22.299 109.102 22.4645 108.875 22.6128C108.13 22.8784 107.578 23.2474 107.219 23.7165C107.199 23.751 107.178 23.7855 107.15 23.813C107.123 23.8406 107.099 23.8717 107.081 23.9096C107.081 24.2476 106.909 24.4545 106.571 24.5304C106.478 24.5477 106.385 24.5442 106.295 24.5166C106.212 24.489 106.123 24.4545 106.033 24.42C105.995 24.3994 105.936 24.3787 105.854 24.3511C105.771 24.3304 105.681 24.3028 105.592 24.2683C104.985 24.0648 104.615 23.8027 104.488 23.482C104.467 23.4613 104.46 23.4337 104.46 23.3992C104.46 22.9301 105.053 22.5301 106.24 22.199C106.478 22.1231 106.671 22.0886 106.819 22.0886C107.682 21.8575 108.133 21.3506 108.171 20.5573C108.171 20.4676 108.164 20.3745 108.157 20.2814C108.147 20.1917 108.133 20.0986 108.116 20.0055C108.116 19.6468 108.13 19.2191 108.157 18.7225C108.185 18.2259 108.216 17.6534 108.254 16.9981C108.289 16.3566 108.316 15.7841 108.337 15.2874C108.354 14.7908 108.364 14.37 108.364 14.0183C108.702 12.3076 108.451 10.997 107.606 10.0865C107.419 9.9141 107.33 9.65199 107.33 9.3002C107.181 8.96221 107.254 8.67596 107.55 8.44488C107.799 8.24485 108.068 8.18967 108.364 8.27934C109.099 8.44488 110.144 8.52766 111.496 8.52766C112.165 8.52766 112.575 8.34487 112.724 7.97584C112.779 7.7827 112.807 7.53093 112.807 7.21709V5.67199C112.51 5.36849 112.427 5.09948 112.558 4.85806C112.669 4.75804 112.751 4.68907 112.807 4.65113C112.962 4.46834 113.214 4.53732 113.565 4.85806L113.593 4.88565C114.365 5.29262 114.779 5.72717 114.834 6.19622C114.852 6.48248 114.779 6.82391 114.614 7.21709C114.455 7.60336 114.565 7.91376 114.945 8.14138C115.128 8.2345 115.279 8.27934 115.4 8.27934C115.924 8.52766 116.449 8.52766 116.973 8.27934C117.697 7.83098 118.221 7.65854 118.545 7.7689C118.801 7.83443 119.146 8.0862 119.58 8.52766C119.956 8.97946 119.956 9.32779 119.58 9.57611C119.266 9.93479 119.09 10.29 119.056 10.6384C119.056 11.8455 119.032 12.8836 118.987 13.7561C118.949 14.6218 118.883 15.315 118.794 15.8393C119.208 15.8393 119.835 15.4495 120.684 14.6666C121.208 14.2528 121.532 14.0389 121.663 14.0183C121.68 14.0389 121.705 14.0596 121.732 14.0872C121.76 14.1148 121.808 14.1493 121.884 14.1838C122.691 14.746 122.936 15.2047 122.615 15.5633C122.522 15.6565 122.374 15.7496 122.174 15.8393C121.07 16.5773 120.218 17.1636 119.622 17.6051C119.032 18.0396 118.673 18.3155 118.545 18.4328C117.911 19.0674 117.845 19.5916 118.352 20.0055C118.425 20.0434 118.497 20.0848 118.573 20.1297C118.645 20.1779 118.718 20.2193 118.794 20.2538C118.932 20.3297 119.118 20.4125 119.359 20.5021C119.597 20.5849 119.859 20.7022 120.146 20.847C121.305 21.3712 122.153 21.6989 122.698 21.8265C123.036 21.9989 123.388 22.0886 123.746 22.0886C124.077 22.4542 124.16 22.7991 123.995 23.1233C123.974 23.1405 123.946 23.1716 123.912 23.2198C123.874 23.2647 123.829 23.3233 123.774 23.3992C123.505 23.7751 123.236 24.0372 122.96 24.1855ZM110.585 11.3971H116.462C116.856 11.3971 117.062 11.1729 117.083 10.7211C117.083 10.5004 117.045 10.29 116.973 10.0865C116.973 9.87616 116.856 9.71407 116.628 9.6037C116.573 9.58646 116.518 9.57611 116.462 9.57611H113.317C113.186 9.57611 113.013 9.58991 112.793 9.6175C112.579 9.64509 112.324 9.67958 112.02 9.71407C111.706 9.752 111.441 9.78304 111.22 9.81064C111.006 9.83823 110.841 9.85202 110.723 9.85202C110.392 10.1555 110.206 10.497 110.172 10.8729C110.172 11.1867 110.31 11.3626 110.585 11.3971ZM116.324 14.5425H116.711C117.069 14.5425 117.211 14.2907 117.138 13.7837C117.1 13.5837 117.045 13.3975 116.973 13.2319C116.631 12.9112 116.369 12.7422 116.186 12.7215C115.486 12.5939 114.741 12.5077 113.952 12.4594C113.169 12.4145 112.351 12.4111 111.496 12.4456C110.575 12.4663 110.116 12.6904 110.116 13.1215C110.116 13.1422 110.116 13.1733 110.116 13.2181C110.116 13.2664 110.123 13.3147 110.144 13.3699C110.161 13.425 110.172 13.4733 110.172 13.5078C110.172 13.5837 110.192 13.6596 110.241 13.7423C110.285 13.8182 110.327 13.8803 110.365 13.9355L110.448 14.0183C111.082 14.1493 111.886 14.2528 112.862 14.3356C113.834 14.4183 114.99 14.4873 116.324 14.5425ZM116.462 17.4119C116.673 17.6603 116.952 17.7085 117.304 17.5499C117.338 17.5154 117.376 17.4878 117.414 17.4671C117.449 17.4499 117.476 17.4326 117.497 17.4119C117.58 17.3223 117.669 17.2292 117.773 17.136C117.873 17.0464 117.959 16.9636 118.035 16.8877C118.035 16.567 117.745 16.2255 117.166 15.8668C116.88 15.6841 116.645 15.5909 116.462 15.5909C116.462 15.5909 116.428 15.6116 116.366 15.6461C116.3 15.6841 116.204 15.7392 116.076 15.8117C116.021 15.8324 115.969 15.8393 115.924 15.8393V16.3773C115.959 16.4152 116.076 16.6497 116.269 17.0809C116.304 17.1567 116.342 17.2188 116.38 17.274C116.414 17.3292 116.442 17.3775 116.462 17.4119Z" fill="black"/>
<path d="M138.417 10.9398C138.131 11.4296 137.8 11.6813 137.424 11.6986C137.275 11.6986 137.127 11.6503 136.982 11.5468L136.927 11.464C136.751 11.4468 136.665 11.2709 136.665 10.9398C136.693 10.9053 136.806 10.7156 137.01 10.3742C137.044 10.3397 137.072 10.3018 137.093 10.2638C137.11 10.2293 137.127 10.2018 137.148 10.1811C138.158 8.62907 138.665 6.93223 138.665 5.09053C138.534 4.37317 138.641 4.01448 138.983 4.01448C139.183 4.03518 139.493 4.13864 139.907 4.33178C139.979 4.40765 140.203 4.50767 140.583 4.63528C140.655 4.67322 140.721 4.70426 140.776 4.73185C140.831 4.75944 140.876 4.78703 140.914 4.81462C141.252 4.81462 141.507 4.68356 141.673 4.41455C141.762 4.2697 141.762 4.14899 141.673 4.05587C141.331 3.0626 140.986 2.38662 140.638 2.02793C140.655 1.70719 140.748 1.5382 140.914 1.5175C141.079 1.5175 141.211 1.46232 141.314 1.35196L141.397 1.26918C141.597 1.3623 141.887 1.65201 142.266 2.1383C142.3 2.19348 142.349 2.24866 142.404 2.30384C142.476 2.45215 142.6 2.65908 142.776 2.92464C142.959 3.19365 143.087 3.40059 143.163 3.54544C143.18 3.56613 143.211 3.63511 143.259 3.75237C143.304 3.87308 143.373 4.04897 143.466 4.2766C143.604 4.5732 143.745 4.75254 143.894 4.81462C145.07 4.81462 145.911 4.73875 146.418 4.5801C146.722 4.24901 146.88 3.99724 146.901 3.82135C146.825 3.52819 146.78 2.84187 146.763 1.76582C146.763 1.5106 146.753 1.27953 146.736 1.07605C146.715 0.865666 146.687 0.669081 146.653 0.482842C146.494 0.344887 146.577 0.213829 146.901 0.0827729C147.101 0.027591 147.274 0 147.412 0C148.025 0.3035 148.37 0.613899 148.446 0.924297C148.501 1.17262 148.481 1.54164 148.391 2.02793V2.81428C148.408 3.64201 148.66 4.14899 149.15 4.33178C149.902 4.80083 150.654 4.80083 151.398 4.33178C151.868 3.82824 152.254 3.37299 152.557 2.96603C152.868 2.56251 153.088 2.20383 153.219 1.88998C153.282 1.6796 153.333 1.47267 153.371 1.26918C153.406 1.11398 153.582 1.03466 153.895 1.03466C154.254 1.04501 154.575 1.2071 154.861 1.5175C155.116 1.76582 155.165 2.05553 154.999 2.38662C154.961 2.4418 154.916 2.49353 154.861 2.53837C154.685 2.63149 154.475 2.78669 154.227 3.00741C153.985 3.22124 153.702 3.49026 153.371 3.82135C153.157 3.82135 153.054 3.93861 153.054 4.16623C153.054 4.31454 153.088 4.45249 153.164 4.5801C153.32 4.73875 153.564 4.81462 153.895 4.81462C155.227 4.81462 156.23 4.65597 156.903 4.33178C157.482 3.86273 157.903 3.67649 158.172 3.76616C158.338 3.84204 158.572 4.02828 158.876 4.33178C159.252 4.51802 159.586 4.76979 159.883 5.09053C160.055 5.27677 160.038 5.4906 159.828 5.73892C159.752 5.81479 159.69 5.84928 159.634 5.84928C158.769 5.84928 158.048 6.19417 157.468 6.88394C157.393 6.95982 157.31 7.05983 157.22 7.18744C157.127 7.30815 157.02 7.4599 156.903 7.64269C156.496 8.34281 156.227 8.78427 156.089 8.96706L155.896 9.1602H155.385C155.22 8.96016 155.137 8.70495 155.137 8.40144C155.172 7.97034 155.344 7.46335 155.647 6.88394C155.627 6.39765 155.458 6.14588 155.137 6.12519C155.099 6.12519 155.013 6.10795 154.875 6.07001C154.744 6.03552 154.551 5.98034 154.296 5.90446C154.22 5.88722 154.147 5.87342 154.075 5.86308C154.009 5.85618 153.951 5.84928 153.895 5.84928C150.895 5.84928 148.481 5.87342 146.653 5.91826C144.832 5.96654 143.576 6.03552 142.887 6.12519C142.269 6.12519 141.773 6.19417 141.397 6.33212C140.714 6.35282 140.217 6.78737 139.907 7.64269C139.776 8.20486 139.372 9.12571 138.693 10.4018C138.638 10.5122 138.586 10.6156 138.541 10.7053C138.493 10.7881 138.451 10.8674 138.417 10.9398ZM139.907 23.8938C139.29 24.0766 138.707 23.9076 138.155 23.3833C137.786 23.1798 137.593 22.8901 137.575 22.5142C137.555 22.328 137.582 22.2004 137.658 22.1279C137.748 22.0072 137.948 21.9934 138.251 22.0866C138.341 22.0935 138.42 22.1038 138.486 22.1141C138.548 22.121 138.61 22.1279 138.665 22.1279C139.169 22.1624 139.921 22.1866 140.914 22.1969C141.907 22.2038 143.142 22.19 144.625 22.1555C144.963 22.1348 145.28 22.1279 145.577 22.1279C145.88 22.1279 146.16 22.1279 146.418 22.1279C146.811 22.1279 147.046 21.8727 147.122 21.3692C147.139 21.3244 147.149 21.245 147.149 21.1347C147.415 20.3 147.415 19.6137 147.149 19.0791C147.129 18.4273 146.887 18.0824 146.418 18.0445C144.901 18.0445 143.814 18.1376 143.163 18.3204C142.976 18.479 142.642 18.5549 142.156 18.5549C141.528 18.1411 141.19 17.81 141.135 17.5616C141.135 17.1961 141.276 17.0098 141.562 17.0098H141.866C141.928 17.0305 141.99 17.0374 142.045 17.0374C142.1 17.0374 142.135 17.0374 142.156 17.0374C142.411 17.0374 142.735 17.0236 143.121 16.996C143.507 16.9684 143.952 16.9374 144.459 16.8995C144.908 16.865 145.294 16.8408 145.618 16.8305C145.949 16.8132 146.215 16.8029 146.418 16.8029C147.025 16.6753 147.356 16.1683 147.412 15.2854C147.391 14.8163 147.139 14.5646 146.653 14.5266C145.639 14.2887 144.928 14.2507 144.515 14.4163C144.173 14.5922 143.883 14.8819 143.645 15.2854C143.452 15.4233 143.128 15.4923 142.68 15.4923C142.68 15.4371 142.631 15.3233 142.542 15.1474C142.449 14.9267 142.404 14.7991 142.404 14.7612C142.763 13.2437 142.763 11.2123 142.404 8.66356C142.404 8.24969 142.562 7.98068 142.887 7.84963C143.087 7.80479 143.263 7.81514 143.411 7.87722C143.77 8.00827 144.239 8.0945 144.818 8.13933C145.397 8.18761 146.073 8.19106 146.846 8.15313C147.029 8.13588 147.181 8.12554 147.301 8.12554C147.429 8.12554 147.539 8.12554 147.632 8.12554C149.112 8.40144 150.285 8.27039 151.15 7.72547C151.371 7.59786 151.536 7.47715 151.647 7.36678C152.326 6.91843 153.04 7.03569 153.785 7.72547C153.858 7.79099 153.916 7.85652 153.964 7.9186C154.02 7.98413 154.075 8.05311 154.13 8.12554C154.368 8.40144 154.396 8.71184 154.213 9.04983C154.192 9.07052 154.178 9.08777 154.171 9.10501C154.161 9.12571 154.147 9.14295 154.13 9.1602C153.806 9.50163 153.647 10.0086 153.647 10.6777C153.647 10.8536 153.633 11.0778 153.606 11.3537C153.578 11.6227 153.544 11.9538 153.509 12.347C153.471 12.7332 153.44 13.0643 153.413 13.3402C153.385 13.6092 153.371 13.8196 153.371 13.9748C153.371 14.4818 153.144 14.7439 152.695 14.7612C152.426 14.7612 152.157 14.6853 151.881 14.5266C151.412 14.1611 150.826 13.9748 150.129 13.9748C149.705 13.9748 149.471 14.0576 149.426 14.2231C149.405 14.2783 149.398 14.3818 149.398 14.5266V14.7612C149.398 16.0683 149.667 16.7408 150.212 16.7753C150.55 16.796 151.029 16.6304 151.647 16.2787C151.857 16.2614 152.109 16.0924 152.406 15.7682C153.068 15.4302 153.633 15.4751 154.102 15.9062C154.192 15.9821 154.285 16.0717 154.378 16.1821C154.468 16.2856 154.561 16.3994 154.654 16.527L154.861 16.8029C154.861 16.8305 154.906 16.9202 154.999 17.065C155.182 17.3409 155.227 17.5961 155.137 17.8238C155.006 18.0652 154.716 18.1479 154.268 18.0721C154.192 18.0548 154.12 18.0445 154.047 18.0445C153.982 18.0445 153.93 18.0445 153.895 18.0445C152.985 18.0445 152.192 18.0272 151.523 17.9893C150.86 17.9548 150.322 17.8996 149.909 17.8238C149.44 17.8444 149.184 18.0859 149.15 18.5549V19.0791C149.15 19.255 149.143 19.4516 149.136 19.6723C149.126 19.8862 149.112 20.1276 149.095 20.4035C149.057 21.2312 149.122 21.7106 149.288 21.8382C149.536 22.0486 150.322 22.059 151.647 21.8658H153.164C154.368 22.0935 155.361 21.852 156.144 21.1347C156.768 20.5001 157.275 20.2759 157.662 20.4587C157.927 20.5794 158.248 20.8795 158.627 21.3554C158.627 21.4037 158.689 21.5175 158.82 21.7003C158.855 21.7727 158.876 21.8279 158.876 21.8658C159.076 22.2797 159.02 22.5866 158.71 22.7901C158.617 22.8522 158.51 22.8867 158.393 22.8867C157.555 23.0522 154.889 23.135 150.391 23.135C148.715 23.3006 146.146 23.3833 142.68 23.3833C141.593 23.3833 140.735 23.5144 140.1 23.7834C140.062 23.8006 140.031 23.8179 140.003 23.8386C139.976 23.8558 139.941 23.8731 139.907 23.8938ZM145.384 12.9815H147.149C147.232 12.9815 147.443 12.9608 147.784 12.9126C148.132 12.8677 148.615 12.7988 149.233 12.7056C149.829 12.6332 150.298 12.6332 150.64 12.7056C151.054 12.9264 151.35 12.8712 151.536 12.5401C151.609 12.4504 151.647 12.3332 151.647 12.1952V10.6777C151.647 10.0259 151.364 9.61545 150.805 9.4499C150.729 9.43266 150.66 9.41886 150.598 9.40851C150.533 9.40162 150.464 9.39472 150.391 9.39472C150.253 9.39472 149.995 9.40851 149.619 9.43611C149.25 9.4637 148.767 9.49819 148.17 9.53267C147.736 9.57061 147.391 9.5982 147.136 9.61545C146.887 9.63614 146.725 9.64304 146.653 9.64304C145.446 9.64304 144.735 9.76375 144.515 10.0017C144.383 10.1776 144.328 10.6639 144.349 11.464C144.366 11.602 144.377 11.7365 144.377 11.8641C144.377 11.9952 144.377 12.1055 144.377 12.1952C144.377 12.5918 144.618 12.8436 145.108 12.954C145.142 12.9746 145.191 12.9815 145.246 12.9815C145.301 12.9815 145.346 12.9815 145.384 12.9815Z" fill="black"/>
</svg>
