<svg width="25" height="25" viewBox="0 0 25 25" fill="none" xmlns="http://www.w3.org/2000/svg">
<g opacity="0.88">
<path d="M8.12565 2.08594H16.8757C20.209 2.08594 22.9173 4.79427 22.9173 8.1276V16.8776C22.9173 18.48 22.2808 20.0167 21.1478 21.1497C20.0147 22.2827 18.478 22.9193 16.8757 22.9193H8.12565C4.79232 22.9193 2.08398 20.2109 2.08398 16.8776V8.1276C2.08398 6.52526 2.72052 4.98853 3.85355 3.8555C4.98658 2.72247 6.5233 2.08594 8.12565 2.08594ZM7.91732 4.16927C6.92276 4.16927 5.96893 4.56436 5.26567 5.26762C4.56241 5.97088 4.16732 6.92471 4.16732 7.91927V17.0859C4.16732 19.1589 5.8444 20.8359 7.91732 20.8359H17.084C18.0785 20.8359 19.0324 20.4409 19.7356 19.7376C20.4389 19.0343 20.834 18.0805 20.834 17.0859V7.91927C20.834 5.84635 19.1569 4.16927 17.084 4.16927H7.91732ZM17.9694 5.73177C18.3147 5.73177 18.6459 5.86895 18.8901 6.11314C19.1343 6.35733 19.2715 6.68852 19.2715 7.03385C19.2715 7.37919 19.1343 7.71038 18.8901 7.95457C18.6459 8.19875 18.3147 8.33594 17.9694 8.33594C17.6241 8.33594 17.2929 8.19875 17.0487 7.95457C16.8045 7.71038 16.6673 7.37919 16.6673 7.03385C16.6673 6.68852 16.8045 6.35733 17.0487 6.11314C17.2929 5.86895 17.6241 5.73177 17.9694 5.73177ZM12.5007 7.29427C13.882 7.29427 15.2067 7.843 16.1835 8.81976C17.1603 9.79651 17.709 11.1213 17.709 12.5026C17.709 13.8839 17.1603 15.2087 16.1835 16.1855C15.2067 17.1622 13.882 17.7109 12.5007 17.7109C11.1193 17.7109 9.79456 17.1622 8.8178 16.1855C7.84105 15.2087 7.29232 13.8839 7.29232 12.5026C7.29232 11.1213 7.84105 9.79651 8.8178 8.81976C9.79456 7.843 11.1193 7.29427 12.5007 7.29427ZM12.5007 9.3776C11.6719 9.3776 10.877 9.70684 10.2909 10.2929C9.70489 10.8789 9.37565 11.6738 9.37565 12.5026C9.37565 13.3314 9.70489 14.1263 10.2909 14.7123C10.877 15.2984 11.6719 15.6276 12.5007 15.6276C13.3295 15.6276 14.1243 15.2984 14.7104 14.7123C15.2964 14.1263 15.6257 13.3314 15.6257 12.5026C15.6257 11.6738 15.2964 10.8789 14.7104 10.2929C14.1243 9.70684 13.3295 9.3776 12.5007 9.3776Z" fill="#C8B7AB"/>
</g>
</svg>
