<svg width="1438" height="74" viewBox="0 0 1438 74" fill="none" xmlns="http://www.w3.org/2000/svg">
<path d="M703.324 39H1435.68C1436.97 39 1438 39.9057 1438 41C1438 42.0943 1436.95 43 1435.68 43H703.324C702.03 43 701 42.0943 701 41C701 39.9057 702.052 39 703.324 39Z" fill="#8E1616"/>
<path d="M0.0299668 39H691.81C693.029 39 694 39.9057 694 41C694 42.0943 693.008 43 691.81 43L0 42.9274C1.48179e-05 42.0212 0.0299667 42.0943 0.0299667 41C0.0299667 39.9057 9.91054e-06 39.7557 0.0299668 39Z" fill="#8E1616"/>
<path d="M663.16 72.9997C662.607 72.9997 662.032 72.7915 661.607 72.3543C660.777 71.5214 660.777 70.1889 661.649 69.356L690.161 42.0385C678.82 39.7065 647.627 32.2733 641.244 19.6556C639.521 16.2617 639.584 12.7429 641.457 9.24496C644.074 4.31032 648.159 1.4578 653.33 1.04138C665.203 0.0627778 681.288 12.1599 698.757 35.0425C699.481 35.9795 699.268 37.3121 698.31 37.9992C697.353 38.7071 695.991 38.5197 695.289 37.5619C678.969 16.1993 663.841 4.3936 653.691 5.24728C650.053 5.53877 647.223 7.53762 645.308 11.1605C644.095 13.4509 644.053 15.5955 645.138 17.7609C650.691 28.7545 683.012 36.5417 695.012 38.6238C695.821 38.7695 696.459 39.3317 696.693 40.0813C696.927 40.8308 696.715 41.6637 696.14 42.2259L664.692 72.3543C664.266 72.7499 663.734 72.9581 663.181 72.9581L663.16 72.9997Z" fill="#8E1616"/>
<path d="M730.162 73.0005C729.609 73.0005 729.077 72.7923 728.651 72.3967L697.203 42.2683C696.629 41.7061 696.416 40.8941 696.65 40.1237C696.884 39.3741 697.543 38.8119 698.331 38.6662C710.31 36.584 742.631 28.7969 748.205 17.8033C749.29 15.6378 749.248 13.4933 748.035 11.2029C746.12 7.55919 743.29 5.58116 739.652 5.28967C729.545 4.47764 714.353 16.2417 698.054 37.6043C697.331 38.5412 695.99 38.7286 695.033 38.0415C694.075 37.3336 693.884 36.0219 694.586 35.0849C712.055 12.1607 728.204 0.0843461 740.013 1.06295C745.163 1.47937 749.269 4.31107 751.886 9.26653C753.737 12.7853 753.801 16.2833 752.099 19.6772C745.716 32.2949 714.523 39.7281 703.182 42.06L731.694 69.3776C732.545 70.1896 732.566 71.543 731.736 72.3758C731.311 72.7923 730.758 73.0213 730.183 73.0213L730.162 73.0005Z" fill="#8E1616"/>
</svg>
