<svg width="114" height="74" viewBox="0 0 114 74" fill="none" xmlns="http://www.w3.org/2000/svg">
<path d="M23.1599 72.9997C22.6067 72.9997 22.0322 72.7915 21.6067 72.3543C20.7768 71.5214 20.7768 70.1889 21.6492 69.356L50.161 42.0385C38.8201 39.7065 7.62732 32.2733 1.24406 19.6556C-0.479415 16.2617 -0.415569 12.7429 1.45685 9.24496C4.07399 4.31032 8.15924 1.4578 13.3297 1.04138C25.2025 0.0627778 41.2883 12.1599 58.7572 35.0425C59.4806 35.9795 59.2679 37.3121 58.3104 37.9992C57.3529 38.7071 55.9911 38.5197 55.2889 37.5619C38.9691 16.1993 23.8408 4.3936 13.6914 5.24728C10.053 5.53877 7.22305 7.53762 5.30808 11.1605C4.09526 13.4509 4.05267 15.5955 5.13782 17.7609C10.6913 28.7545 43.0118 36.5417 55.0123 38.6238C55.8209 38.7695 56.4592 39.3317 56.6933 40.0813C56.9273 40.8308 56.7145 41.6637 56.14 42.2259L24.6919 72.3543C24.2663 72.7499 23.7344 72.9581 23.1812 72.9581L23.1599 72.9997Z" fill="#8E1616"/>
<path d="M90.1619 73.0005C89.6087 73.0005 89.0767 72.7923 88.6512 72.3967L57.203 42.2683C56.6285 41.7061 56.4158 40.8941 56.6498 40.1237C56.8839 39.3741 57.5435 38.8119 58.3307 38.6662C70.31 36.584 102.631 28.7969 108.205 17.8033C109.29 15.6378 109.248 13.4933 108.035 11.2029C106.12 7.55919 103.29 5.58116 99.6517 5.28967C89.5449 4.47764 74.3527 16.2417 58.0542 37.6043C57.3307 38.5412 55.9902 38.7286 55.0327 38.0415C54.0752 37.3336 53.8838 36.0219 54.5859 35.0849C72.0548 12.1607 88.2044 0.0843461 100.013 1.06295C105.163 1.47937 109.269 4.31107 111.886 9.26653C113.737 12.7853 113.801 16.2833 112.099 19.6772C105.716 32.2949 74.5229 39.7281 63.182 42.06L91.6939 69.3776C92.545 70.1896 92.5663 71.543 91.7364 72.3758C91.3109 72.7923 90.7577 73.0213 90.1832 73.0213L90.1619 73.0005Z" fill="#8E1616"/>
</svg>
