<svg width="71" height="36" viewBox="0 0 71 36" fill="none" xmlns="http://www.w3.org/2000/svg">
<path d="M68.6718 17.8408C70.0944 15.7575 70.6154 13.095 69.875 10.4884C68.5347 5.77993 63.5866 3.03614 58.8219 4.36061C58.8185 4.36061 58.8151 4.3623 58.8134 4.364C56.7995 0.979988 52.6673 -0.779766 48.6653 0.332994C44.6616 1.44575 42.0633 5.07535 42.1284 8.99965C42.125 8.99965 42.1215 8.99965 42.1181 9.00134C37.3534 10.3258 34.5769 15.2155 35.9172 19.924C36.6593 22.5323 38.5086 24.5359 40.8207 25.581C40.6801 26.7124 40.759 27.8895 41.0897 29.0564C42.43 33.7649 47.3781 36.5087 52.1428 35.1842C54.4583 34.5406 56.3025 33.0536 57.4336 31.1566C59.4012 32.1932 61.7579 32.5133 64.0734 31.8697C68.838 30.5452 71.6146 25.6555 70.2743 20.947C69.9418 19.78 69.3882 18.735 68.6718 17.8425V17.8408Z" fill="#C02B2C"/>
<path d="M61.1647 17.0218C61.6995 16.8779 62.0131 16.3325 61.8674 15.8057C61.7217 15.2773 61.1699 14.9674 60.6369 15.1113C60.1604 15.24 59.8587 15.6872 59.9033 16.1563L56.8234 17.0015C56.6846 16.5764 56.4635 16.1987 56.1841 15.8786L58.1465 13.4024C58.5664 13.6226 59.096 13.5226 59.4011 13.1416C59.7439 12.7114 59.6702 12.0898 59.2366 11.7493C58.8012 11.4106 58.1722 11.4834 57.8277 11.9119C57.5209 12.2947 57.5484 12.8316 57.8654 13.1839L55.9339 15.6211C55.5808 15.2959 55.1592 15.0504 54.6998 14.9013L55.3134 11.9526C55.7882 11.9644 56.2184 11.6426 56.3195 11.1667C56.4343 10.6315 56.0864 10.1064 55.5448 9.99297C55.0032 9.87949 54.4719 10.2233 54.3571 10.7585C54.2559 11.2361 54.5216 11.7053 54.9638 11.8814L54.3553 14.8098C53.8737 14.7099 53.363 14.715 52.8557 14.8437L51.925 11.4343C52.3569 11.2328 52.5917 10.7484 52.4615 10.2775C52.3141 9.74908 51.7622 9.43913 51.2292 9.58479C50.6944 9.73045 50.3808 10.2758 50.5282 10.8026C50.6584 11.2717 51.1075 11.5664 51.5805 11.5258L52.5146 14.9487C52.0278 15.1283 51.6045 15.4128 51.2669 15.7685L49.1416 13.46C49.4313 13.0857 49.4175 12.5488 49.0833 12.188C48.708 11.7849 48.0738 11.7578 47.6659 12.1287C47.258 12.4996 47.2306 13.1263 47.6059 13.5294C47.9384 13.8868 48.4749 13.9478 48.8777 13.6988L51.0355 16.0412C50.8161 16.3291 50.6447 16.6509 50.5316 16.9947L47.4311 16.153C47.474 15.6855 47.1775 15.24 46.7027 15.1096C46.1697 14.9623 45.6161 15.2705 45.467 15.7973C45.3179 16.324 45.6298 16.8711 46.1628 17.0184C46.6393 17.1505 47.1295 16.9185 47.3352 16.4934L50.439 17.3368C50.3482 17.7603 50.3413 18.2057 50.4322 18.6529L47.2854 19.5166C47.0798 19.0932 46.593 18.8629 46.1183 18.9899C45.5835 19.1339 45.2699 19.6792 45.4156 20.206C45.5612 20.7344 46.1131 21.0444 46.6462 20.9004C47.1226 20.7717 47.4243 20.3245 47.3797 19.8554L50.5196 18.9933C50.6413 19.3794 50.8315 19.7284 51.0698 20.0315L48.9274 22.2299C48.5297 21.9691 47.9881 22.0165 47.6471 22.3705C47.2649 22.7668 47.2786 23.3935 47.6796 23.7712C48.0807 24.1489 48.7148 24.1354 49.097 23.739C49.4364 23.3884 49.4621 22.8549 49.1845 22.4738L51.3063 20.2974C51.5908 20.5854 51.9267 20.8174 52.2935 20.9851L51.6971 23.8525C51.2223 23.8407 50.7921 24.1625 50.691 24.6384C50.5762 25.1736 50.9241 25.6986 51.4657 25.8121C52.0073 25.9256 52.5386 25.5818 52.6534 25.0466C52.7545 24.5689 52.4889 24.0998 52.0467 23.9236L52.6311 21.1172C53.1436 21.2866 53.7006 21.3323 54.2611 21.2324L55.142 24.3555C54.7153 24.5588 54.4805 25.0398 54.6107 25.5089C54.7564 26.0374 55.3083 26.3473 55.843 26.2034C56.3778 26.0594 56.6914 25.514 56.5457 24.9856C56.4155 24.5147 55.963 24.2183 55.4865 24.2607L54.609 21.1494C55.1592 20.9902 55.6356 20.7022 56.0144 20.3279L57.8706 22.3434C57.5809 22.7177 57.5946 23.2546 57.9289 23.6154C58.3042 24.0185 58.9384 24.0456 59.3463 23.6747C59.7542 23.3037 59.7816 22.6771 59.4062 22.274C59.0737 21.9166 58.5373 21.8556 58.1345 22.1046L56.2544 20.0637C56.5783 19.6657 56.8062 19.1948 56.9142 18.6918L59.6925 19.7605C59.6016 20.2229 59.8553 20.6988 60.3163 20.8733C60.834 21.0698 61.4132 20.814 61.6121 20.3025C61.8109 19.791 61.5521 19.2185 61.0345 19.0221C60.5751 18.8476 60.0678 19.0305 59.821 19.4303L56.9691 18.3344C57.0016 18.0092 56.9862 17.6756 56.9142 17.3402L59.9976 16.4934C60.2032 16.9168 60.69 17.1472 61.1647 17.0201V17.0218Z" fill="white"/>
<path d="M7.94313 5.68256C6.99362 5.94339 6.46574 7.0155 6.76396 8.07745C7.06218 9.1394 9.18743 13.7446 10.1369 13.4837C11.0865 13.2229 10.5003 8.19431 10.2021 7.13237C9.90385 6.07211 8.89093 5.42173 7.94142 5.68256H7.94313Z" fill="#946593"/>
<path d="M11.7872 19.3388C10.8377 19.5996 11.4222 24.6282 11.7221 25.6901C12.0203 26.7521 13.0333 27.4008 13.9828 27.14C14.9323 26.8791 15.4602 25.807 15.1602 24.7451C14.862 23.6831 12.7367 19.0779 11.7872 19.3388Z" fill="#946593"/>
<path d="M2.92113 8.61009C2.23214 9.30451 2.31613 10.4952 3.1131 11.2658C3.90836 12.0381 8.07831 14.9767 8.76902 14.2806C9.45802 13.5862 6.40895 9.51961 5.61198 8.74897C4.81672 7.97665 3.61184 7.91567 2.92113 8.61009Z" fill="#946593"/>
<path d="M13.1586 18.5394C12.4679 19.2338 15.5186 23.3004 16.3156 24.071C17.1109 24.8433 18.3158 24.9043 19.0065 24.2099C19.6972 23.5155 19.6115 22.3265 18.8162 21.5542C18.021 20.7818 13.8493 17.8433 13.1603 18.5394H13.1586Z" fill="#946593"/>
<path d="M2.45144 12.4191C1.37167 12.1447 0.297045 12.685 0.050241 13.6284C-0.194849 14.5701 0.480434 15.5575 1.5602 15.8336C2.63997 16.1079 7.73888 16.5923 7.98568 15.6489C8.23077 14.7056 3.53292 12.6918 2.45315 12.4174L2.45144 12.4191Z" fill="#946593"/>
<path d="M20.3654 16.9862C19.2856 16.7118 14.1867 16.2274 13.9399 17.1708C13.6948 18.1125 18.3927 20.128 19.4724 20.4024C20.5522 20.6784 21.6268 20.1365 21.8736 19.1931C22.1187 18.2514 21.4434 17.2639 20.3654 16.9879V16.9862Z" fill="#946593"/>
<path d="M1.57428 17.1601C0.499659 17.4548 -0.15677 18.4558 0.107173 19.3941C0.371116 20.3307 1.45603 20.8541 2.53065 20.5577C3.60528 20.263 8.26542 18.1628 8.00319 17.2245C7.73753 16.2862 2.65063 16.8637 1.576 17.1601H1.57428Z" fill="#946593"/>
<path d="M19.396 12.262C18.3231 12.5567 13.6613 14.6569 13.9269 15.5952C14.1892 16.5335 19.2778 15.956 20.3524 15.6596C21.4253 15.3649 22.0835 14.3656 21.8195 13.4273C21.5556 12.489 20.4707 11.9673 19.396 12.262Z" fill="#946593"/>
<path d="M3.20867 21.6976C2.42884 22.4852 2.36542 23.6742 3.06984 24.3584C3.77255 25.0393 4.97571 24.9546 5.75726 24.1687C6.53881 23.3829 9.51073 19.2604 8.80803 18.5778C8.10361 17.897 3.99021 20.9117 3.20867 21.6976Z" fill="#946593"/>
<path d="M16.1676 8.65163C15.386 9.4392 12.4124 13.56 13.1168 14.2408C13.8195 14.9234 17.9346 11.9086 18.7144 11.121C19.496 10.3352 19.5577 9.1445 18.855 8.46194C18.1523 7.78107 16.9474 7.86576 16.1676 8.65163Z" fill="#946593"/>
<path d="M10.1949 19.3508C9.2403 19.1103 7.20417 23.7527 6.9248 24.8198C6.64715 25.8868 7.19388 26.9487 8.14853 27.1926C9.10147 27.4348 10.1024 26.7675 10.3801 25.7005C10.6594 24.6352 11.1479 19.5964 10.1949 19.3508Z" fill="#946593"/>
<path d="M13.7749 5.62582C12.8219 5.38362 11.8227 6.05094 11.5433 7.11797C11.2657 8.185 10.7755 13.2238 11.7302 13.466C12.6848 13.7098 14.7209 9.06572 15.0003 7.99869C15.2797 6.93166 14.7295 5.86971 13.7766 5.62582H13.7749Z" fill="#946593"/>
<path d="M10.4209 14.489C9.34626 14.7837 8.71725 15.8829 9.01719 16.9448C9.31541 18.0068 10.4295 18.6267 11.5024 18.332C12.577 18.0373 13.206 16.9381 12.9078 15.8744C12.6096 14.8142 11.4955 14.1926 10.4209 14.4873V14.489Z" fill="#946593"/>
</svg>
