<svg width="68" height="36" viewBox="0 0 68 36" fill="none" xmlns="http://www.w3.org/2000/svg">
<path d="M62.0658 6.9082C60.9021 6.9082 59.7503 7.30453 58.8951 8.07686C56.7613 10.0026 57.6251 13.2274 58.5489 14.7094C58.6466 14.8669 58.7408 14.9956 58.8128 15.0905C59.4127 14.4469 60.0194 14.0929 60.4153 13.9015C60.6022 13.8117 61.5894 13.351 62.856 13.351C63.4318 13.351 64.066 13.4459 64.7087 13.7152C65.2417 13.9387 65.6359 14.2199 65.8862 14.4265C67.2247 12.5448 67.0791 10.0314 65.6051 8.42068C64.6744 7.40276 63.3616 6.9099 62.0641 6.9099L62.0658 6.9082Z" fill="#1E4268"/>
<path d="M64.8405 14.6756C64.1944 14.3131 63.5277 14.1624 62.873 14.1641C60.9825 14.1641 59.1983 15.4157 58.3499 16.3998C58.2283 16.542 58.134 16.6691 58.0654 16.7656C58.8693 17.1314 59.3989 17.5921 59.7056 17.9055C59.9165 18.1206 61.4024 19.6872 61.2122 21.884C61.1625 22.4547 61.0134 22.9103 60.8917 23.2101C61.387 23.3609 61.8892 23.432 62.3828 23.432C64.1087 23.432 65.7335 22.553 66.5853 21.0896C67.8982 18.8319 66.9692 15.8713 64.8423 14.6756H64.8405Z" fill="#1E4268"/>
<path d="M56.6636 16.7362C56.4905 16.665 56.3379 16.6159 56.2231 16.582C56.1203 17.4509 55.8392 18.0894 55.6335 18.4756C55.4913 18.7398 54.4423 20.6215 52.2708 21.1195C51.8663 21.2126 51.503 21.2397 51.2082 21.2397C51.0916 21.2397 50.9871 21.2363 50.8945 21.2295C50.9305 23.5296 52.5433 25.479 54.6943 25.9245C55.0062 25.9888 55.3164 26.0193 55.6232 26.0193C57.8599 26.0193 59.8943 24.3849 60.3262 22.3033C60.9072 19.507 58.2901 17.3984 56.6619 16.7362H56.6636Z" fill="#1E4268"/>
<path d="M54.7375 14.8992C54.3672 14.8992 54.0587 14.8619 53.8274 14.8212C53.5291 14.7704 51.3936 14.3656 50.2436 12.4772C49.9453 11.9877 49.7945 11.5304 49.714 11.2188C47.5116 11.9623 46.1353 14.0811 46.3684 16.2406C46.6306 18.6609 48.8467 20.4426 51.1211 20.4426C51.2788 20.4426 51.4365 20.4342 51.5941 20.4172C54.4649 20.0988 55.6852 16.9875 55.8189 15.2531C55.8326 15.0685 55.8344 14.9093 55.8326 14.7925C55.4282 14.8721 55.0614 14.9009 54.7392 14.9009L54.7375 14.8992Z" fill="#1E4268"/>
<path d="M54.9997 5.02904C54.3569 5.02904 53.7125 5.15776 53.1109 5.42367C50.7063 6.48731 49.6968 9.42249 50.7063 11.6243C51.6027 13.5771 53.7262 14.1665 55.4521 14.1665C56.0246 14.1665 56.5542 14.1022 56.981 13.9989C57.1643 13.9548 57.3152 13.9074 57.4283 13.8685C56.9947 13.1063 56.8421 12.4254 56.7804 11.9952C56.7376 11.6988 56.4668 9.56646 57.9288 7.90155C58.3075 7.46966 58.7 7.18681 58.976 7.01405C57.999 5.72684 56.4976 5.02734 54.998 5.02734L54.9997 5.02904Z" fill="#1E4268"/>
<path d="M30.7122 10.0306C31.0481 7.54085 30.318 4.92578 28.4789 2.91705C25.1591 -0.710849 19.4929 -0.993697 15.8217 2.287C15.82 2.28869 15.8165 2.29208 15.8148 2.29377C12.4881 0.147856 7.99593 0.38836 4.91088 3.14401C1.82583 5.89966 1.13341 10.2931 2.95873 13.7787C2.95702 13.7804 2.95359 13.7821 2.95187 13.7855C-0.719335 17.0662 -1.00556 22.6656 2.3143 26.2935C4.15333 28.3022 6.71221 29.2846 9.25223 29.2033C9.63615 30.2788 10.236 31.2984 11.0587 32.1977C14.3786 35.8256 20.0448 36.1085 23.716 32.8278C25.5002 31.234 26.4822 29.0915 26.6416 26.8947C28.8697 26.9591 31.1252 26.2088 32.9094 24.6133C36.5806 21.3326 36.8668 15.7333 33.547 12.1054C32.7243 11.206 31.7577 10.5133 30.7139 10.0289L30.7122 10.0306Z" fill="#C02B2C"/>
<path d="M24.4052 14.4473C23.915 14.493 23.5431 14.8792 23.502 15.3466L20.4546 15.6176C20.3381 15.3128 20.1718 15.0197 19.9576 14.7521L22.3382 12.6384C22.7119 12.9263 23.2535 12.9196 23.6202 12.5961C24.0333 12.2319 24.071 11.6052 23.7025 11.1971C23.334 10.7889 22.6999 10.7516 22.2868 11.1158C21.9183 11.441 21.8498 11.9728 22.1 12.3742L19.7228 14.4862C19.4074 14.1678 19.0389 13.9256 18.6447 13.7613L19.2875 10.6805C19.7622 10.6923 20.1924 10.3705 20.2935 9.89461C20.4084 9.3594 20.0604 8.83266 19.5188 8.72088C18.9772 8.6074 18.4442 8.95122 18.3311 9.48643C18.23 9.96405 18.4939 10.4332 18.9378 10.6093L18.3054 13.6411C17.8426 13.5056 17.3542 13.47 16.876 13.5394L16.0979 10.6297C16.5281 10.4315 16.768 9.95389 16.6446 9.48304C16.5058 8.95291 15.959 8.6345 15.4226 8.77168C14.8861 8.90887 14.5639 9.44917 14.7027 9.97929C14.8261 10.4518 15.2752 10.755 15.7517 10.7177L16.5246 13.6089C16.0482 13.7308 15.5923 13.9595 15.1963 14.2982L12.8277 11.6544C13.1225 11.2834 13.1174 10.7465 12.7883 10.3824C12.4198 9.97421 11.7857 9.93864 11.3726 10.3045C10.9595 10.6686 10.9236 11.2953 11.2938 11.7035C11.6211 12.0659 12.1576 12.1337 12.5621 11.8898L14.9393 14.5438C14.5845 14.9181 14.3342 15.3585 14.1903 15.8259L11.2475 14.6929C11.3383 14.2305 11.0847 13.7545 10.6236 13.5801C10.106 13.3836 9.52671 13.6394 9.3279 14.1492C9.12908 14.6607 9.38788 15.2331 9.90377 15.4296C10.3631 15.6041 10.8704 15.4228 11.1172 15.0214L14.1046 16.1715C14.0377 16.5254 14.0292 16.8896 14.0823 17.247L10.9253 17.855C10.7539 17.418 10.286 17.1487 9.80437 17.2402C9.26105 17.3418 8.90285 17.8618 9.0074 18.3987C9.11023 18.9356 9.6364 19.2896 10.1797 19.1862C10.6648 19.0948 11.0007 18.673 10.9938 18.2005L14.1526 17.5908C14.2623 18.0091 14.4559 18.4122 14.7387 18.773L12.3101 20.9307C11.9365 20.6428 11.3949 20.6496 11.0281 20.9731C10.615 21.3372 10.5773 21.9639 10.9458 22.3721C11.3143 22.7803 11.9485 22.8175 12.3615 22.4534C12.73 22.1282 12.7986 21.5964 12.5483 21.195L14.9718 19.0423C15.2563 19.3336 15.582 19.5639 15.9316 19.7299L15.001 22.6397C14.5279 22.5804 14.0652 22.8616 13.9178 23.3273C13.7532 23.8507 14.0497 24.4045 14.5776 24.5671C15.1072 24.7297 15.6677 24.4367 15.8322 23.915C15.9779 23.451 15.7619 22.9615 15.3403 22.7447L16.2607 19.8637C16.6446 19.9958 17.0491 20.0568 17.4536 20.0449L18.2111 22.8751C17.7809 23.0733 17.541 23.5509 17.6644 24.0217C17.8032 24.5519 18.35 24.8703 18.8864 24.7331C19.4229 24.5959 19.7451 24.0556 19.6063 23.5255C19.4829 23.053 19.0338 22.7498 18.5573 22.787L17.8169 20.0162C18.3517 19.9433 18.8727 19.7384 19.3286 19.403L21.5241 21.8132C21.2328 22.1841 21.2396 22.7176 21.567 23.0801C21.9355 23.4882 22.5696 23.5238 22.9827 23.1597C23.3957 22.7955 23.4317 22.1688 23.0632 21.7607C22.7342 21.3965 22.1943 21.3288 21.7881 21.5777L19.6011 19.1778C20.021 18.7933 20.3192 18.3258 20.4906 17.8245L23.0598 18.8136C22.969 19.276 23.2226 19.7519 23.6837 19.9264C24.2013 20.1229 24.7806 19.8671 24.9794 19.3573C25.1782 18.8458 24.9194 18.2733 24.4035 18.0769C23.9442 17.9024 23.4369 18.0836 23.1901 18.485L20.5883 17.4824C20.6997 16.9827 20.6912 16.4628 20.5626 15.9631L23.5328 15.6989C23.6597 16.1545 24.1019 16.4679 24.5937 16.4204C25.1456 16.3679 25.5501 15.8852 25.497 15.3399C25.4439 14.7945 24.9554 14.3948 24.4035 14.4473H24.4052Z" fill="white"/>
</svg>
